%TF.GenerationSoftware,KiCad,Pcbnew,10.0.3*%
%TF.CreationDate,2026-06-16T17:48:51+02:00*%
%TF.ProjectId,suboli_control,7375626f-6c69-45f6-936f-6e74726f6c2e,rev?*%
%TF.SameCoordinates,Original*%
%TF.FileFunction,Copper,L1,Top*%
%TF.FilePolarity,Positive*%
%FSLAX46Y46*%
G04 Gerber Fmt 4.6, Leading zero omitted, Abs format (unit mm)*
G04 Created by KiCad (PCBNEW 10.0.3) date 2026-06-16 17:48:51*
%MOMM*%
%LPD*%
G01*
G04 APERTURE LIST*
G04 Aperture macros list*
%AMRoundRect*
0 Rectangle with rounded corners*
0 $1 Rounding radius*
0 $2 $3 $4 $5 $6 $7 $8 $9 X,Y pos of 4 corners*
0 Add a 4 corners polygon primitive as box body*
4,1,4,$2,$3,$4,$5,$6,$7,$8,$9,$2,$3,0*
0 Add four circle primitives for the rounded corners*
1,1,$1+$1,$2,$3*
1,1,$1+$1,$4,$5*
1,1,$1+$1,$6,$7*
1,1,$1+$1,$8,$9*
0 Add four rect primitives between the rounded corners*
20,1,$1+$1,$2,$3,$4,$5,0*
20,1,$1+$1,$4,$5,$6,$7,0*
20,1,$1+$1,$6,$7,$8,$9,0*
20,1,$1+$1,$8,$9,$2,$3,0*%
G04 Aperture macros list end*
%TA.AperFunction,EtchedComponent*%
%ADD10C,0.000000*%
%TD*%
%TA.AperFunction,ComponentPad*%
%ADD11C,1.600000*%
%TD*%
%TA.AperFunction,ComponentPad*%
%ADD12R,1.800000X1.800000*%
%TD*%
%TA.AperFunction,ComponentPad*%
%ADD13C,1.800000*%
%TD*%
%TA.AperFunction,ComponentPad*%
%ADD14RoundRect,0.250000X-0.550000X-0.550000X0.550000X-0.550000X0.550000X0.550000X-0.550000X0.550000X0*%
%TD*%
%TA.AperFunction,ComponentPad*%
%ADD15RoundRect,0.249999X-0.790001X-1.550001X0.790001X-1.550001X0.790001X1.550001X-0.790001X1.550001X0*%
%TD*%
%TA.AperFunction,ComponentPad*%
%ADD16O,2.080000X3.600000*%
%TD*%
%TA.AperFunction,ComponentPad*%
%ADD17C,1.440000*%
%TD*%
%TA.AperFunction,SMDPad,CuDef*%
%ADD18C,0.500000*%
%TD*%
%TA.AperFunction,ComponentPad*%
%ADD19R,1.050000X1.500000*%
%TD*%
%TA.AperFunction,ComponentPad*%
%ADD20O,1.050000X1.500000*%
%TD*%
%TA.AperFunction,ComponentPad*%
%ADD21RoundRect,0.250000X-0.750000X-0.750000X0.750000X-0.750000X0.750000X0.750000X-0.750000X0.750000X0*%
%TD*%
%TA.AperFunction,ComponentPad*%
%ADD22C,2.000000*%
%TD*%
%TA.AperFunction,ComponentPad*%
%ADD23RoundRect,0.250000X0.725000X-0.600000X0.725000X0.600000X-0.725000X0.600000X-0.725000X-0.600000X0*%
%TD*%
%TA.AperFunction,ComponentPad*%
%ADD24O,1.950000X1.700000*%
%TD*%
%TA.AperFunction,ComponentPad*%
%ADD25C,1.500000*%
%TD*%
%TA.AperFunction,ComponentPad*%
%ADD26RoundRect,0.250000X-0.600000X-0.725000X0.600000X-0.725000X0.600000X0.725000X-0.600000X0.725000X0*%
%TD*%
%TA.AperFunction,ComponentPad*%
%ADD27O,1.700000X1.950000*%
%TD*%
%TA.AperFunction,ComponentPad*%
%ADD28C,2.400000*%
%TD*%
%TA.AperFunction,ComponentPad*%
%ADD29O,2.600000X1.600000*%
%TD*%
%TA.AperFunction,ComponentPad*%
%ADD30RoundRect,0.250001X-0.949999X-0.949999X0.949999X-0.949999X0.949999X0.949999X-0.949999X0.949999X0*%
%TD*%
%TA.AperFunction,ComponentPad*%
%ADD31RoundRect,0.250000X-1.350000X-1.350000X1.350000X-1.350000X1.350000X1.350000X-1.350000X1.350000X0*%
%TD*%
%TA.AperFunction,ComponentPad*%
%ADD32C,3.200000*%
%TD*%
%TA.AperFunction,ViaPad*%
%ADD33C,0.700000*%
%TD*%
%TA.AperFunction,ViaPad*%
%ADD34C,0.600000*%
%TD*%
%TA.AperFunction,Conductor*%
%ADD35C,0.300000*%
%TD*%
%TA.AperFunction,Conductor*%
%ADD36C,2.000000*%
%TD*%
G04 APERTURE END LIST*
D10*
%TA.AperFunction,EtchedComponent*%
%TO.C,NT1*%
G36*
X45420000Y-56250000D02*
G01*
X44420000Y-56250000D01*
X44420000Y-55750000D01*
X45420000Y-55750000D01*
X45420000Y-56250000D01*
G37*
%TD.AperFunction*%
%TD*%
D11*
%TO.P,R5,1*%
%TO.N,/A2_L_FB*%
X121000000Y-86000000D03*
%TO.P,R5,2*%
%TO.N,/VGND*%
X131160000Y-86000000D03*
%TD*%
D12*
%TO.P,LED3,1*%
%TO.N,/GLOW_MID*%
X61920000Y-78000000D03*
D13*
%TO.P,LED3,2*%
%TO.N,/GND_STAR*%
X64460000Y-78000000D03*
%TD*%
D11*
%TO.P,R3,1*%
%TO.N,/A2_INR_BIAS*%
X121000000Y-80500000D03*
%TO.P,R3,2*%
%TO.N,/VGND*%
X131160000Y-80500000D03*
%TD*%
%TO.P,C8,1*%
%TO.N,/VGND*%
X97920000Y-70000000D03*
%TO.P,C8,2*%
%TO.N,/GND_SIG*%
X102920000Y-70000000D03*
%TD*%
D14*
%TO.P,C5,1*%
%TO.N,/+19V_HP*%
X123920000Y-52000000D03*
D11*
%TO.P,C5,2*%
%TO.N,/GND_STAR*%
X125920000Y-52000000D03*
%TD*%
D15*
%TO.P,SW1,1*%
%TO.N,/+19V_RAW*%
X53920000Y-22000000D03*
D16*
%TO.P,SW1,2*%
%TO.N,/+19V_SW*%
X59000000Y-22000000D03*
%TO.P,SW1,3*%
%TO.N,/GND_RAW*%
X64080000Y-22000000D03*
%TO.P,SW1,4*%
%TO.N,/GND_STAR*%
X69160000Y-22000000D03*
%TD*%
D11*
%TO.P,R2,1*%
%TO.N,/A2_INL_BIAS*%
X103500000Y-80500000D03*
%TO.P,R2,2*%
%TO.N,/VGND*%
X113660000Y-80500000D03*
%TD*%
%TO.P,R10,1*%
%TO.N,/+19V*%
X49920000Y-70000000D03*
%TO.P,R10,2*%
%TO.N,/GLOW_A*%
X60080000Y-70000000D03*
%TD*%
D17*
%TO.P,RV3,1*%
%TO.N,/GLOW_A*%
X65920000Y-70000000D03*
%TO.P,RV3,2*%
%TO.N,/GLOW_B*%
X68460000Y-70000000D03*
%TO.P,RV3,3*%
X71000000Y-70000000D03*
%TD*%
D18*
%TO.P,NT1,1*%
%TO.N,/GND_SIG*%
X44420000Y-56000000D03*
%TO.P,NT1,2*%
%TO.N,/GND_STAR*%
X45420000Y-56000000D03*
%TD*%
D19*
%TO.P,U1,1*%
%TO.N,/+19V_HP*%
X111920000Y-49000000D03*
D20*
%TO.P,U1,2*%
%TO.N,/GND_SIG*%
X113190000Y-49000000D03*
%TO.P,U1,3*%
%TO.N,/VGND*%
X114460000Y-49000000D03*
%TD*%
D11*
%TO.P,C2,1*%
%TO.N,/+19V*%
X44920000Y-50000000D03*
%TO.P,C2,2*%
%TO.N,/GND_STAR*%
X49920000Y-50000000D03*
%TD*%
D21*
%TO.P,C12,1*%
%TO.N,/HP_R_SER*%
X81920000Y-58000000D03*
D22*
%TO.P,C12,2*%
%TO.N,/HP_OUT_R*%
X86920000Y-58000000D03*
%TD*%
D23*
%TO.P,J4,1*%
%TO.N,/HP_OUT_L*%
X126475000Y-66500000D03*
D24*
%TO.P,J4,2*%
%TO.N,/HP_OUT_R*%
X126475000Y-64000000D03*
%TO.P,J4,3*%
%TO.N,/GND_SIG*%
X126475000Y-61500000D03*
%TD*%
D23*
%TO.P,J6,1*%
%TO.N,/TACT_INL*%
X107920000Y-23000000D03*
D24*
%TO.P,J6,2*%
%TO.N,/GND_SIG*%
X107920000Y-20500000D03*
%TO.P,J6,3*%
%TO.N,/TACT_INR*%
X107920000Y-18000000D03*
%TD*%
D11*
%TO.P,R7,1*%
%TO.N,/A2_R_FB*%
X103420000Y-91500000D03*
%TO.P,R7,2*%
%TO.N,/VGND*%
X113580000Y-91500000D03*
%TD*%
%TO.P,R4,1*%
%TO.N,/A2_OUT_L_RAW*%
X103500000Y-86000000D03*
%TO.P,R4,2*%
%TO.N,/A2_L_FB*%
X113660000Y-86000000D03*
%TD*%
%TO.P,R9,1*%
%TO.N,/A2_OUT_R_RAW*%
X121000000Y-75000000D03*
%TO.P,R9,2*%
%TO.N,/HP_R_SER*%
X131160000Y-75000000D03*
%TD*%
%TO.P,R6,1*%
%TO.N,/A2_OUT_R_RAW*%
X83920000Y-92000000D03*
%TO.P,R6,2*%
%TO.N,/A2_R_FB*%
X94080000Y-92000000D03*
%TD*%
D21*
%TO.P,C3,1*%
%TO.N,/+19V_HP*%
X97920000Y-50000000D03*
D22*
%TO.P,C3,2*%
%TO.N,/GND_SIG*%
X102920000Y-50000000D03*
%TD*%
D21*
%TO.P,C11,1*%
%TO.N,/HP_L_SER*%
X77920000Y-82000000D03*
D22*
%TO.P,C11,2*%
%TO.N,/HP_OUT_L*%
X82920000Y-82000000D03*
%TD*%
D25*
%TO.P,C10,1*%
%TO.N,/HP_INR*%
X89920000Y-78000000D03*
%TO.P,C10,2*%
%TO.N,/A2_INR_BIAS*%
X94920000Y-78000000D03*
%TD*%
D26*
%TO.P,RV2,1*%
%TO.N,/IN_L*%
X77920000Y-99000000D03*
D27*
%TO.P,RV2,2*%
%TO.N,/HP_INL*%
X80420000Y-99000000D03*
%TO.P,RV2,3*%
%TO.N,/GND_SIG*%
X82920000Y-99000000D03*
%TO.P,RV2,4*%
%TO.N,/IN_R*%
X85420000Y-99000000D03*
%TO.P,RV2,5*%
%TO.N,/HP_INR*%
X87920000Y-99000000D03*
%TO.P,RV2,6*%
%TO.N,/GND_SIG*%
X90420000Y-99000000D03*
%TD*%
D28*
%TO.P,FB1,1*%
%TO.N,/+19V*%
X27920000Y-68000000D03*
%TO.P,FB1,2*%
%TO.N,/+19V_HP*%
X43160000Y-68000000D03*
%TD*%
D29*
%TO.P,F1,1*%
%TO.N,/+19V_SW*%
X27920000Y-36000000D03*
%TO.P,F1,2*%
%TO.N,/+19V_F*%
X35520000Y-36000000D03*
%TD*%
D12*
%TO.P,LED1,1*%
%TO.N,/PWR_LED_ANODE*%
X65920000Y-48000000D03*
D13*
%TO.P,LED1,2*%
%TO.N,/GND_STAR*%
X68460000Y-48000000D03*
%TD*%
D30*
%TO.P,C1,1*%
%TO.N,/+19V*%
X29920000Y-54000000D03*
D28*
%TO.P,C1,2*%
%TO.N,/GND_STAR*%
X37420000Y-54000000D03*
%TD*%
D14*
%TO.P,A2,1*%
%TO.N,/A2_OUT_L_RAW*%
X111920000Y-60000000D03*
D11*
%TO.P,A2,2*%
%TO.N,/A2_L_FB*%
X111920000Y-62540000D03*
%TO.P,A2,3*%
%TO.N,/A2_INL_BIAS*%
X111920000Y-65080000D03*
%TO.P,A2,4*%
%TO.N,/GND_STAR*%
X111920000Y-67620000D03*
%TO.P,A2,5*%
%TO.N,/A2_INR_BIAS*%
X119540000Y-67620000D03*
%TO.P,A2,6*%
%TO.N,/A2_R_FB*%
X119540000Y-65080000D03*
%TO.P,A2,7*%
%TO.N,/A2_OUT_R_RAW*%
X119540000Y-62540000D03*
%TO.P,A2,8*%
%TO.N,/+19V_HP*%
X119540000Y-60000000D03*
%TD*%
D15*
%TO.P,J1,1*%
%TO.N,/+19V_RAW*%
X26920000Y-22000000D03*
D16*
%TO.P,J1,2*%
%TO.N,/GND_RAW*%
X32000000Y-22000000D03*
%TD*%
D30*
%TO.P,TVS1,1*%
%TO.N,/+19V*%
X67920000Y-36000000D03*
D28*
%TO.P,TVS1,2*%
%TO.N,/GND_STAR*%
X78080000Y-36000000D03*
%TD*%
D11*
%TO.P,R1,1*%
%TO.N,/+19V*%
X65920000Y-55000000D03*
%TO.P,R1,2*%
%TO.N,/PWR_LED_ANODE*%
X76080000Y-55000000D03*
%TD*%
D25*
%TO.P,C9,1*%
%TO.N,/HP_INL*%
X85920000Y-70000000D03*
%TO.P,C9,2*%
%TO.N,/A2_INL_BIAS*%
X90920000Y-70000000D03*
%TD*%
D26*
%TO.P,J2,1*%
%TO.N,/IN_L*%
X26920000Y-99000000D03*
D27*
%TO.P,J2,2*%
%TO.N,/IN_R*%
X29420000Y-99000000D03*
%TO.P,J2,3*%
%TO.N,/GND_SIG*%
X31920000Y-99000000D03*
%TD*%
D12*
%TO.P,LED2,1*%
%TO.N,/GLOW_B*%
X47920000Y-78000000D03*
D13*
%TO.P,LED2,2*%
%TO.N,/GLOW_MID*%
X50460000Y-78000000D03*
%TD*%
D11*
%TO.P,R8,1*%
%TO.N,/A2_OUT_L_RAW*%
X121000000Y-91500000D03*
%TO.P,R8,2*%
%TO.N,/HP_L_SER*%
X131160000Y-91500000D03*
%TD*%
D31*
%TO.P,D1,1*%
%TO.N,/+19V_F*%
X48920000Y-36000000D03*
D32*
%TO.P,D1,2*%
%TO.N,/+19V*%
X64160000Y-36000000D03*
%TD*%
D14*
%TO.P,C6,1*%
%TO.N,/VGND*%
X109920000Y-40000000D03*
D11*
%TO.P,C6,2*%
%TO.N,/GND_SIG*%
X111920000Y-40000000D03*
%TD*%
D15*
%TO.P,J5,1*%
%TO.N,/+19V*%
X83920000Y-23000000D03*
D16*
%TO.P,J5,2*%
%TO.N,/GND_STAR*%
X89000000Y-23000000D03*
%TD*%
D11*
%TO.P,C7,1*%
%TO.N,/+19V_HP*%
X111920000Y-72000000D03*
%TO.P,C7,2*%
%TO.N,/GND_STAR*%
X116920000Y-72000000D03*
%TD*%
%TO.P,C4,1*%
%TO.N,/+19V_HP*%
X93920000Y-61000000D03*
%TO.P,C4,2*%
%TO.N,/GND_SIG*%
X98920000Y-61000000D03*
%TD*%
D26*
%TO.P,RV1,1*%
%TO.N,/IN_L*%
X51920000Y-99000000D03*
D27*
%TO.P,RV1,2*%
%TO.N,/TACT_INL*%
X54420000Y-99000000D03*
%TO.P,RV1,3*%
%TO.N,/GND_SIG*%
X56920000Y-99000000D03*
%TO.P,RV1,4*%
%TO.N,/IN_R*%
X59420000Y-99000000D03*
%TO.P,RV1,5*%
%TO.N,/TACT_INR*%
X61920000Y-99000000D03*
%TO.P,RV1,6*%
%TO.N,/GND_SIG*%
X64420000Y-99000000D03*
%TD*%
D33*
%TO.N,/A2_L_FB*%
X111000000Y-62540000D03*
X108500000Y-62500000D03*
%TO.N,/VGND*%
X114006455Y-48151999D03*
D34*
%TO.N,/GND_STAR*%
X29420000Y-77500000D03*
X41420000Y-53500000D03*
X17420000Y-65500000D03*
X41420000Y-77500000D03*
X41420000Y-89500000D03*
X17420000Y-29500000D03*
X17420000Y-41500000D03*
X17420000Y-77500000D03*
X17420000Y-53500000D03*
X53420000Y-89500000D03*
X29420000Y-89500000D03*
X53420000Y-53500000D03*
X17420000Y-89500000D03*
%TO.N,/GND_SIG*%
X87250000Y-101500000D03*
X111250000Y-17500000D03*
X123250000Y-65500000D03*
X123250000Y-101500000D03*
X99250000Y-101500000D03*
X99250000Y-53500000D03*
X99250000Y-17500000D03*
X111250000Y-53500000D03*
X75250000Y-77500000D03*
X111250000Y-101500000D03*
X111250000Y-29500000D03*
X87250000Y-77500000D03*
X75250000Y-89500000D03*
X123250000Y-29500000D03*
X123250000Y-41500000D03*
X123250000Y-17500000D03*
X99250000Y-29500000D03*
X99250000Y-65500000D03*
D33*
%TO.N,/TACT_INR*%
X61920000Y-92000000D03*
%TO.N,/A2_OUT_R_RAW*%
X120500000Y-62000000D03*
%TD*%
%TO.N,/A2_L_FB*%
D35*
X109540000Y-62540000D02*
X111920000Y-62540000D01*
X109500000Y-62500000D02*
X109540000Y-62540000D01*
X108500000Y-62500000D02*
X109500000Y-62500000D01*
%TO.N,/VGND*%
X108420000Y-80500000D02*
X97920000Y-70000000D01*
X114460000Y-49000000D02*
X114460000Y-48605544D01*
X131160000Y-80500000D02*
X131160000Y-86000000D01*
X131160000Y-86000000D02*
X128660000Y-88500000D01*
X130058000Y-81602000D02*
X131160000Y-80500000D01*
X114762000Y-81602000D02*
X130058000Y-81602000D01*
X128660000Y-88500000D02*
X116580000Y-88500000D01*
X113660000Y-80500000D02*
X114762000Y-81602000D01*
X116580000Y-88500000D02*
X113580000Y-91500000D01*
X114460000Y-48605544D02*
X114006455Y-48151999D01*
X113660000Y-80500000D02*
X108420000Y-80500000D01*
%TO.N,/GLOW_MID*%
X50460000Y-78000000D02*
X61920000Y-78000000D01*
%TO.N,/GND_STAR*%
X127474000Y-51356311D02*
X110117689Y-34000000D01*
X110117689Y-34000000D02*
X89000000Y-34000000D01*
D36*
X69160000Y-18000000D02*
X69160000Y-22000000D01*
X68460000Y-45000000D02*
X68460000Y-48000000D01*
X37420000Y-45000000D02*
X78080000Y-45000000D01*
D35*
X98602000Y-41102000D02*
X89000000Y-31500000D01*
D36*
X37420000Y-82000000D02*
X64460000Y-82000000D01*
D35*
X125920000Y-52000000D02*
X115022000Y-41102000D01*
D36*
X89000000Y-31500000D02*
X89000000Y-18000000D01*
D35*
X45420000Y-58000000D02*
X45420000Y-56000000D01*
X119996464Y-63642000D02*
X127474000Y-56164464D01*
X112540000Y-67620000D02*
X111920000Y-67620000D01*
D36*
X37420000Y-54000000D02*
X52500000Y-54000000D01*
X52500000Y-54000000D02*
X52500000Y-50000000D01*
D35*
X47000000Y-54000000D02*
X47000000Y-58000000D01*
X47000000Y-58000000D02*
X45420000Y-58000000D01*
X115358000Y-63642000D02*
X119996464Y-63642000D01*
X116920000Y-72000000D02*
X112540000Y-67620000D01*
D36*
X78080000Y-45000000D02*
X78080000Y-36000000D01*
D35*
X127474000Y-56164464D02*
X127474000Y-51356311D01*
X111500000Y-67500000D02*
X115358000Y-63642000D01*
X111920000Y-67620000D02*
X111620000Y-67620000D01*
X115022000Y-41102000D02*
X98602000Y-41102000D01*
D36*
X89000000Y-36000000D02*
X89000000Y-34000000D01*
D35*
X111620000Y-67620000D02*
X111500000Y-67500000D01*
D36*
X89000000Y-34000000D02*
X89000000Y-31500000D01*
X78080000Y-36000000D02*
X89000000Y-36000000D01*
X64460000Y-82000000D02*
X64460000Y-78000000D01*
X37420000Y-45000000D02*
X37420000Y-82000000D01*
X52500000Y-50000000D02*
X49920000Y-50000000D01*
X89000000Y-18000000D02*
X69160000Y-18000000D01*
%TO.N,/A2_INR_BIAS*%
D35*
X94920000Y-71441536D02*
X94920000Y-78000000D01*
X98376464Y-68898000D02*
X97463536Y-68898000D01*
X121000000Y-80500000D02*
X119898000Y-79398000D01*
X119540000Y-67620000D02*
X119540000Y-79040000D01*
X108876464Y-79398000D02*
X98376464Y-68898000D01*
X119898000Y-79398000D02*
X108876464Y-79398000D01*
X97463536Y-68898000D02*
X94920000Y-71441536D01*
X119540000Y-79040000D02*
X119898000Y-79398000D01*
%TO.N,/GND_SIG*%
X113022000Y-72456464D02*
X112376464Y-73102000D01*
X82920000Y-99000000D02*
X83000000Y-99000000D01*
X44662000Y-68622149D02*
X71067476Y-68622149D01*
X115478464Y-40000000D02*
X127022000Y-51543536D01*
X77032572Y-96000000D02*
X31920000Y-96000000D01*
X79268000Y-98235428D02*
X77032572Y-96000000D01*
X104890630Y-73102000D02*
X102920000Y-71131370D01*
X106898000Y-61102000D02*
X106898000Y-65419536D01*
X41658000Y-68622149D02*
X42537851Y-69502000D01*
X41658000Y-58762000D02*
X41658000Y-68622149D01*
X82920000Y-99000000D02*
X81643000Y-100277000D01*
X31920000Y-96000000D02*
X31920000Y-99000000D01*
X127022000Y-54076464D02*
X119996464Y-61102000D01*
X56920000Y-99000000D02*
X56920000Y-96000000D01*
X43782149Y-69502000D02*
X44662000Y-68622149D01*
X119083536Y-61102000D02*
X119996464Y-61102000D01*
X44420000Y-56000000D02*
X41658000Y-58762000D01*
X79268000Y-99602174D02*
X79268000Y-98235428D01*
X102920000Y-71131370D02*
X102920000Y-70000000D01*
X119996464Y-61102000D02*
X106898000Y-61102000D01*
X127022000Y-51543536D02*
X127022000Y-54076464D01*
X79942826Y-100277000D02*
X79268000Y-99602174D01*
X72022000Y-69576673D02*
X72022000Y-83898000D01*
X113022000Y-71543536D02*
X113022000Y-72456464D01*
X64420000Y-99000000D02*
X64420000Y-96000000D01*
X72022000Y-83898000D02*
X56920000Y-99000000D01*
X113190000Y-55208464D02*
X119083536Y-61102000D01*
X42537851Y-69502000D02*
X43782149Y-69502000D01*
X111920000Y-40000000D02*
X115478464Y-40000000D01*
X112376464Y-73102000D02*
X104890630Y-73102000D01*
X71067476Y-68622149D02*
X72022000Y-69576673D01*
X106898000Y-65419536D02*
X113022000Y-71543536D01*
X81643000Y-100277000D02*
X79942826Y-100277000D01*
X113190000Y-49000000D02*
X113190000Y-55208464D01*
%TO.N,/+19V_HP*%
X111920000Y-47500000D02*
X111920000Y-49000000D01*
X93920000Y-57000000D02*
X97920000Y-57000000D01*
X43160000Y-68000000D02*
X105000000Y-68000000D01*
X97920000Y-57000000D02*
X97920000Y-50000000D01*
X119540000Y-47500000D02*
X119540000Y-60000000D01*
X97920000Y-47500000D02*
X119540000Y-47500000D01*
X93920000Y-61000000D02*
X93920000Y-57000000D01*
X97920000Y-50000000D02*
X97920000Y-47500000D01*
X105000000Y-72000000D02*
X111920000Y-72000000D01*
X93920000Y-68000000D02*
X93920000Y-61000000D01*
X119540000Y-52000000D02*
X123920000Y-52000000D01*
X105000000Y-68000000D02*
X105000000Y-72000000D01*
%TO.N,/+19V_RAW*%
D36*
X26920000Y-17000000D02*
X53920000Y-17000000D01*
X53920000Y-17000000D02*
X53920000Y-22000000D01*
X26920000Y-22000000D02*
X26920000Y-17000000D01*
%TO.N,/+19V_SW*%
X27920000Y-31000000D02*
X27920000Y-36000000D01*
X59000000Y-31000000D02*
X27920000Y-31000000D01*
X59000000Y-22000000D02*
X59000000Y-31000000D01*
%TO.N,/A2_INL_BIAS*%
D35*
X95932247Y-80500000D02*
X90920000Y-75487753D01*
X103500000Y-80500000D02*
X95932247Y-80500000D01*
X90920000Y-75487753D02*
X90920000Y-70000000D01*
X119083536Y-66518000D02*
X119996464Y-66518000D01*
X103500000Y-82978464D02*
X103500000Y-80500000D01*
X132262000Y-78783536D02*
X132262000Y-86456464D01*
X111920000Y-65080000D02*
X110558844Y-66441156D01*
X113123536Y-92602000D02*
X103500000Y-82978464D01*
X116625688Y-74508000D02*
X118438000Y-74508000D01*
X118438000Y-74508000D02*
X118438000Y-67163536D01*
X110558844Y-66441156D02*
X110558844Y-68441156D01*
X110558844Y-68441156D02*
X116625688Y-74508000D01*
X119996464Y-66518000D02*
X132262000Y-78783536D01*
X132262000Y-86456464D02*
X126116464Y-92602000D01*
X126116464Y-92602000D02*
X113123536Y-92602000D01*
X118438000Y-67163536D02*
X119083536Y-66518000D01*
%TO.N,/+19V*%
D36*
X83920000Y-32000000D02*
X83920000Y-23000000D01*
X67920000Y-32000000D02*
X67920000Y-42500000D01*
X64160000Y-36000000D02*
X67920000Y-36000000D01*
X29920000Y-42500000D02*
X29920000Y-68000000D01*
X67920000Y-42500000D02*
X29920000Y-42500000D01*
X67920000Y-32000000D02*
X83920000Y-32000000D01*
%TO.N,/GLOW_A*%
D35*
X60080000Y-70000000D02*
X65920000Y-70000000D01*
%TO.N,/GLOW_B*%
X68460000Y-70000000D02*
X71000000Y-70000000D01*
X47920000Y-74000000D02*
X47920000Y-78000000D01*
X68460000Y-74000000D02*
X47920000Y-74000000D01*
X68460000Y-70000000D02*
X68460000Y-74000000D01*
%TO.N,/TACT_INR*%
X107920000Y-15000000D02*
X107920000Y-18000000D01*
X61920000Y-92000000D02*
X23000000Y-92000000D01*
X23000000Y-92000000D02*
X23000000Y-15000000D01*
X23000000Y-15000000D02*
X107920000Y-15000000D01*
%TO.N,/A2_R_FB*%
X94080000Y-92000000D02*
X102920000Y-92000000D01*
X102920000Y-92000000D02*
X103420000Y-91500000D01*
X132714000Y-78254000D02*
X119540000Y-65080000D01*
X104974000Y-93054000D02*
X126303689Y-93054000D01*
X132714000Y-86643688D02*
X132714000Y-78254000D01*
X126303689Y-93054000D02*
X132714000Y-86643688D01*
X103420000Y-91500000D02*
X104974000Y-93054000D01*
%TO.N,/A2_OUT_L_RAW*%
X103500000Y-86000000D02*
X103500000Y-86500000D01*
%TO.N,/HP_L_SER*%
X92978000Y-92456464D02*
X92978000Y-78184977D01*
X86355753Y-68948000D02*
X85484247Y-68948000D01*
X89932247Y-70500000D02*
X86907753Y-70500000D01*
X78415449Y-70500000D02*
X77920000Y-70995449D01*
X86972000Y-69564247D02*
X86355753Y-68948000D01*
X85484247Y-68948000D02*
X84868000Y-69564247D01*
X86972000Y-70435753D02*
X86972000Y-69564247D01*
X86907753Y-70500000D02*
X86972000Y-70435753D01*
X84868000Y-69564247D02*
X84868000Y-70412776D01*
X90468000Y-71035753D02*
X89932247Y-70500000D01*
X120208000Y-102452000D02*
X102973536Y-102452000D01*
X92978000Y-78184977D02*
X90468000Y-75674977D01*
X77920000Y-70995449D02*
X77920000Y-82000000D01*
X131160000Y-91500000D02*
X120208000Y-102452000D01*
X84780776Y-70500000D02*
X78415449Y-70500000D01*
X90468000Y-75674977D02*
X90468000Y-71035753D01*
X84868000Y-70412776D02*
X84780776Y-70500000D01*
X102973536Y-102452000D02*
X92978000Y-92456464D01*
%TO.N,/HP_INR*%
X87920000Y-99000000D02*
X87920000Y-80000000D01*
X87920000Y-80000000D02*
X89920000Y-78000000D01*
%TO.N,/IN_L*%
X77920000Y-99000000D02*
X77920000Y-102000000D01*
X51920000Y-99000000D02*
X51920000Y-102000000D01*
X26920000Y-99000000D02*
X26920000Y-102000000D01*
X26920000Y-102000000D02*
X77920000Y-102000000D01*
%TO.N,/HP_INL*%
X80420000Y-75500000D02*
X85920000Y-70000000D01*
X80420000Y-99000000D02*
X80420000Y-75500000D01*
%TO.N,/+19V_F*%
D36*
X35520000Y-36000000D02*
X48920000Y-36000000D01*
%TD*%
%TA.AperFunction,Conductor*%
%TO.N,/GND_SIG*%
G36*
X136195049Y-12504784D02*
G01*
X136215506Y-12508853D01*
X136270721Y-12531723D01*
X136305261Y-12546029D01*
X136305262Y-12546030D01*
X136305266Y-12546032D01*
X136339611Y-12580377D01*
X136373962Y-12614726D01*
X136373963Y-12614729D01*
X136373965Y-12614731D01*
X136409463Y-12700427D01*
X136411144Y-12704484D01*
X136415214Y-12724942D01*
X136420000Y-12773527D01*
X136420000Y-106226472D01*
X136415214Y-106275057D01*
X136411144Y-106295515D01*
X136373962Y-106385273D01*
X136305261Y-106453970D01*
X136215517Y-106491144D01*
X136195060Y-106495214D01*
X136146473Y-106500000D01*
X70523527Y-106500000D01*
X70474942Y-106495214D01*
X70454484Y-106491144D01*
X70364726Y-106453962D01*
X70296029Y-106385261D01*
X70258852Y-106295500D01*
X70258852Y-106295497D01*
X70254784Y-106275045D01*
X70250000Y-106226472D01*
X70250000Y-102624027D01*
X70254784Y-102575454D01*
X70258853Y-102554996D01*
X70296031Y-102465235D01*
X70364729Y-102396535D01*
X70454486Y-102359354D01*
X70454489Y-102359353D01*
X70454496Y-102359353D01*
X70474954Y-102355284D01*
X70523527Y-102350500D01*
X77966143Y-102350500D01*
X77966147Y-102350500D01*
X78032996Y-102332586D01*
X78033003Y-102332586D01*
X78033003Y-102332585D01*
X78040430Y-102330594D01*
X78055288Y-102326614D01*
X78135212Y-102280469D01*
X78200469Y-102215212D01*
X78246614Y-102135288D01*
X78260746Y-102082546D01*
X78270500Y-102046146D01*
X78270500Y-100449027D01*
X78275284Y-100400454D01*
X78279353Y-100379996D01*
X78316531Y-100290235D01*
X78385229Y-100221535D01*
X78474986Y-100184354D01*
X78474989Y-100184353D01*
X78474996Y-100184353D01*
X78495454Y-100180284D01*
X78544027Y-100175500D01*
X78591633Y-100175500D01*
X78604693Y-100172646D01*
X78604699Y-100172646D01*
X78732882Y-100127793D01*
X78842150Y-100047150D01*
X78922793Y-99937882D01*
X78967646Y-99809699D01*
X78970500Y-99779266D01*
X78970500Y-99647021D01*
X78975273Y-99623023D01*
X78975262Y-99598559D01*
X78975283Y-99598452D01*
X78977722Y-99586188D01*
X78987108Y-99563524D01*
X78989454Y-99551733D01*
X78996131Y-99541739D01*
X79014898Y-99496428D01*
X79083595Y-99427726D01*
X79173353Y-99390543D01*
X79270508Y-99390540D01*
X79360268Y-99427716D01*
X79428970Y-99496413D01*
X79428978Y-99496425D01*
X79435851Y-99506712D01*
X79435854Y-99506715D01*
X79435855Y-99506718D01*
X79435922Y-99506818D01*
X79458929Y-99549861D01*
X79488957Y-99622355D01*
X79489056Y-99622593D01*
X79489062Y-99622603D01*
X79526682Y-99678906D01*
X79604016Y-99794647D01*
X79604018Y-99794649D01*
X79604020Y-99794651D01*
X79604023Y-99794655D01*
X79750345Y-99940977D01*
X79750348Y-99940979D01*
X79750350Y-99940981D01*
X79921742Y-100055500D01*
X79921741Y-100055500D01*
X79924453Y-100057311D01*
X79933692Y-100060617D01*
X80049851Y-100108731D01*
X80049854Y-100108734D01*
X80049854Y-100108733D01*
X80113578Y-100135129D01*
X80113580Y-100135130D01*
X80316535Y-100175500D01*
X80316537Y-100175500D01*
X80523463Y-100175500D01*
X80523465Y-100175500D01*
X80726420Y-100135130D01*
X80917598Y-100055941D01*
X81089655Y-99940977D01*
X81235977Y-99794655D01*
X81350941Y-99622598D01*
X81430130Y-99431420D01*
X81430130Y-99431418D01*
X81430311Y-99430982D01*
X81434736Y-99423549D01*
X81440753Y-99408900D01*
X81451506Y-99388782D01*
X81465827Y-99371332D01*
X81466962Y-99369427D01*
X81480508Y-99352724D01*
X81482361Y-99351184D01*
X81513138Y-99313682D01*
X81553502Y-99292105D01*
X81555250Y-99290654D01*
X81557550Y-99289941D01*
X81598820Y-99267881D01*
X81642754Y-99263552D01*
X81648056Y-99261911D01*
X81653913Y-99262453D01*
X81695507Y-99258356D01*
X81733240Y-99269801D01*
X81744797Y-99270872D01*
X81755681Y-99276608D01*
X81788479Y-99286557D01*
X81813471Y-99307066D01*
X81830745Y-99316171D01*
X81843968Y-99332094D01*
X81863582Y-99348190D01*
X81866379Y-99351598D01*
X81879714Y-99375138D01*
X81892815Y-99390913D01*
X81897836Y-99407126D01*
X81908349Y-99425683D01*
X81910347Y-99431269D01*
X81950086Y-99527206D01*
X81989499Y-99622357D01*
X81989502Y-99622362D01*
X82104408Y-99794332D01*
X82250667Y-99940591D01*
X82422637Y-100055497D01*
X82422642Y-100055500D01*
X82613726Y-100134650D01*
X82613731Y-100134651D01*
X82669999Y-100145843D01*
X82670000Y-100145842D01*
X82670000Y-99724000D01*
X82688954Y-99628712D01*
X82742930Y-99547930D01*
X82823712Y-99493954D01*
X82919000Y-99475000D01*
X82921000Y-99475000D01*
X83016288Y-99493954D01*
X83097070Y-99547930D01*
X83151046Y-99628712D01*
X83170000Y-99724000D01*
X83170000Y-100145842D01*
X83170000Y-100145843D01*
X83226268Y-100134651D01*
X83226273Y-100134650D01*
X83417357Y-100055500D01*
X83417362Y-100055497D01*
X83589332Y-99940591D01*
X83735591Y-99794332D01*
X83850497Y-99622362D01*
X83850500Y-99622357D01*
X83929647Y-99431280D01*
X83929650Y-99431271D01*
X83929714Y-99431117D01*
X83934225Y-99423520D01*
X83940153Y-99409044D01*
X83950979Y-99388788D01*
X83965004Y-99371696D01*
X83966014Y-99369997D01*
X83979620Y-99353143D01*
X83981552Y-99351530D01*
X84012608Y-99313686D01*
X84052439Y-99292393D01*
X84054223Y-99290905D01*
X84056626Y-99290154D01*
X84098289Y-99267883D01*
X84141665Y-99263608D01*
X84146964Y-99261955D01*
X84152955Y-99262496D01*
X84194975Y-99258356D01*
X84232249Y-99269661D01*
X84243725Y-99270698D01*
X84254786Y-99276496D01*
X84287948Y-99286554D01*
X84312666Y-99306837D01*
X84329774Y-99315805D01*
X84343183Y-99331879D01*
X84363048Y-99348179D01*
X84365833Y-99351572D01*
X84378994Y-99374804D01*
X84392012Y-99390408D01*
X84397138Y-99406831D01*
X84407814Y-99425675D01*
X84409867Y-99431415D01*
X84458929Y-99549861D01*
X84489056Y-99622593D01*
X84489062Y-99622603D01*
X84526682Y-99678906D01*
X84604016Y-99794647D01*
X84604018Y-99794649D01*
X84604020Y-99794651D01*
X84604023Y-99794655D01*
X84750345Y-99940977D01*
X84750348Y-99940979D01*
X84750350Y-99940981D01*
X84921742Y-100055500D01*
X84921741Y-100055500D01*
X84924453Y-100057311D01*
X84933692Y-100060617D01*
X85049851Y-100108731D01*
X85049854Y-100108734D01*
X85049854Y-100108733D01*
X85113578Y-100135129D01*
X85113580Y-100135130D01*
X85316535Y-100175500D01*
X85316537Y-100175500D01*
X85523463Y-100175500D01*
X85523465Y-100175500D01*
X85726420Y-100135130D01*
X85917598Y-100055941D01*
X86089655Y-99940977D01*
X86235977Y-99794655D01*
X86350941Y-99622598D01*
X86429631Y-99432624D01*
X86433827Y-99425623D01*
X86440071Y-99410548D01*
X86451245Y-99389643D01*
X86466630Y-99370896D01*
X86467200Y-99369946D01*
X86481310Y-99352754D01*
X86481949Y-99352228D01*
X86512875Y-99314545D01*
X86555891Y-99291550D01*
X86556414Y-99291122D01*
X86557060Y-99290926D01*
X86598557Y-99268744D01*
X86645408Y-99264128D01*
X86649386Y-99262922D01*
X86653520Y-99263329D01*
X86695244Y-99259219D01*
X86735385Y-99271395D01*
X86746073Y-99272448D01*
X86755539Y-99277508D01*
X86788216Y-99287420D01*
X86814638Y-99309099D01*
X86831755Y-99318249D01*
X86844048Y-99333229D01*
X86863290Y-99349017D01*
X86866138Y-99352487D01*
X86882929Y-99380609D01*
X86893387Y-99393353D01*
X86896328Y-99403050D01*
X86904071Y-99416018D01*
X86904169Y-99416257D01*
X86908228Y-99426834D01*
X86909863Y-99431405D01*
X86909868Y-99431416D01*
X86909870Y-99431422D01*
X86989056Y-99622593D01*
X86989062Y-99622603D01*
X87026682Y-99678906D01*
X87104016Y-99794647D01*
X87104018Y-99794649D01*
X87104020Y-99794651D01*
X87104023Y-99794655D01*
X87250345Y-99940977D01*
X87250348Y-99940979D01*
X87250350Y-99940981D01*
X87421742Y-100055500D01*
X87421741Y-100055500D01*
X87424453Y-100057311D01*
X87433692Y-100060617D01*
X87549851Y-100108731D01*
X87549854Y-100108734D01*
X87549854Y-100108733D01*
X87613578Y-100135129D01*
X87613580Y-100135130D01*
X87816535Y-100175500D01*
X87816537Y-100175500D01*
X88023463Y-100175500D01*
X88023465Y-100175500D01*
X88226420Y-100135130D01*
X88417598Y-100055941D01*
X88589655Y-99940977D01*
X88735977Y-99794655D01*
X88850941Y-99622598D01*
X88930130Y-99431420D01*
X88930130Y-99431418D01*
X88930311Y-99430982D01*
X88934736Y-99423549D01*
X88940753Y-99408900D01*
X88951506Y-99388782D01*
X88965827Y-99371332D01*
X88966962Y-99369427D01*
X88980508Y-99352724D01*
X88982361Y-99351184D01*
X89013138Y-99313682D01*
X89053502Y-99292105D01*
X89055250Y-99290654D01*
X89057550Y-99289941D01*
X89098820Y-99267881D01*
X89142754Y-99263552D01*
X89148056Y-99261911D01*
X89153913Y-99262453D01*
X89195507Y-99258356D01*
X89233240Y-99269801D01*
X89244797Y-99270872D01*
X89255681Y-99276608D01*
X89288479Y-99286557D01*
X89313471Y-99307066D01*
X89330745Y-99316171D01*
X89343968Y-99332094D01*
X89363582Y-99348190D01*
X89366379Y-99351598D01*
X89379714Y-99375138D01*
X89392815Y-99390913D01*
X89397836Y-99407126D01*
X89408349Y-99425683D01*
X89410347Y-99431269D01*
X89450086Y-99527206D01*
X89489499Y-99622357D01*
X89489502Y-99622362D01*
X89604408Y-99794332D01*
X89750667Y-99940591D01*
X89922637Y-100055497D01*
X89922642Y-100055500D01*
X90113726Y-100134650D01*
X90113731Y-100134651D01*
X90169999Y-100145843D01*
X90170000Y-100145842D01*
X90170000Y-99724000D01*
X90188954Y-99628712D01*
X90242930Y-99547930D01*
X90323712Y-99493954D01*
X90419000Y-99475000D01*
X90421000Y-99475000D01*
X90516288Y-99493954D01*
X90597070Y-99547930D01*
X90651046Y-99628712D01*
X90670000Y-99724000D01*
X90670000Y-100145842D01*
X90670000Y-100145843D01*
X90726268Y-100134651D01*
X90726273Y-100134650D01*
X90917357Y-100055500D01*
X90917362Y-100055497D01*
X91089332Y-99940591D01*
X91235591Y-99794332D01*
X91350497Y-99622362D01*
X91350500Y-99622357D01*
X91429649Y-99431276D01*
X91465707Y-99250000D01*
X91465706Y-99250000D01*
X91144000Y-99250000D01*
X91048712Y-99231046D01*
X90967930Y-99177070D01*
X90913954Y-99096288D01*
X90895000Y-99001000D01*
X90895000Y-98999000D01*
X90913954Y-98903712D01*
X90967930Y-98822930D01*
X91048712Y-98768954D01*
X91144000Y-98750000D01*
X91465705Y-98750000D01*
X91465706Y-98750000D01*
X91429649Y-98568723D01*
X91350500Y-98377642D01*
X91350497Y-98377637D01*
X91235591Y-98205667D01*
X91089332Y-98059408D01*
X91088753Y-98059021D01*
X90917367Y-97944505D01*
X90917361Y-97944501D01*
X90917351Y-97944497D01*
X90726274Y-97865350D01*
X90726272Y-97865349D01*
X90726271Y-97865349D01*
X90670000Y-97854155D01*
X90670000Y-98276000D01*
X90651046Y-98371288D01*
X90597070Y-98452070D01*
X90516288Y-98506046D01*
X90421000Y-98525000D01*
X90419000Y-98525000D01*
X90323712Y-98506046D01*
X90242930Y-98452070D01*
X90188954Y-98371288D01*
X90170000Y-98276000D01*
X90170000Y-97854155D01*
X90169999Y-97854155D01*
X90142236Y-97859677D01*
X90113728Y-97865349D01*
X90113727Y-97865349D01*
X90113724Y-97865350D01*
X89922647Y-97944497D01*
X89922637Y-97944501D01*
X89922631Y-97944505D01*
X89750670Y-98059405D01*
X89604407Y-98205668D01*
X89489498Y-98377643D01*
X89410275Y-98568902D01*
X89405223Y-98577545D01*
X89399824Y-98590997D01*
X89389011Y-98611225D01*
X89376945Y-98625926D01*
X89376147Y-98627292D01*
X89362750Y-98644371D01*
X89359559Y-98647109D01*
X89327374Y-98686325D01*
X89291576Y-98705457D01*
X89289026Y-98707647D01*
X89285033Y-98708954D01*
X89241690Y-98732121D01*
X89202558Y-98735973D01*
X89196699Y-98737893D01*
X89189014Y-98737306D01*
X89145002Y-98741640D01*
X89111145Y-98731368D01*
X89099825Y-98730505D01*
X89087164Y-98724092D01*
X89052032Y-98713434D01*
X89029328Y-98694800D01*
X89013153Y-98686608D01*
X88998392Y-98669410D01*
X88976932Y-98651797D01*
X88976931Y-98651796D01*
X88974343Y-98648642D01*
X88964072Y-98629423D01*
X88949877Y-98612884D01*
X88941393Y-98586988D01*
X88938012Y-98580662D01*
X88935556Y-98581680D01*
X88930129Y-98568579D01*
X88889515Y-98470527D01*
X88880193Y-98448022D01*
X88880192Y-98448021D01*
X88850943Y-98377406D01*
X88850936Y-98377395D01*
X88850934Y-98377392D01*
X88735981Y-98205350D01*
X88735979Y-98205348D01*
X88735977Y-98205345D01*
X88589655Y-98059023D01*
X88589651Y-98059020D01*
X88589649Y-98059018D01*
X88488382Y-97991354D01*
X88483335Y-97986307D01*
X88385461Y-97920906D01*
X88385458Y-97920903D01*
X88385457Y-97920903D01*
X88352055Y-97887498D01*
X88316764Y-97852205D01*
X88316582Y-97851767D01*
X88305289Y-97824500D01*
X88279588Y-97762449D01*
X88275281Y-97740794D01*
X88270500Y-97692231D01*
X88270500Y-80272848D01*
X88275283Y-80224280D01*
X88279790Y-80201617D01*
X88316961Y-80111863D01*
X88329806Y-80092639D01*
X88360763Y-80054917D01*
X89413664Y-79002015D01*
X89451393Y-78971053D01*
X89470605Y-78958217D01*
X89472994Y-78957228D01*
X89560346Y-78921047D01*
X89570746Y-78918978D01*
X89667899Y-78918975D01*
X89826384Y-78950500D01*
X90013614Y-78950500D01*
X90013616Y-78950500D01*
X90197251Y-78913973D01*
X90370231Y-78842322D01*
X90525908Y-78738302D01*
X90658302Y-78605908D01*
X90762322Y-78450231D01*
X90833973Y-78277251D01*
X90870500Y-78093616D01*
X90870500Y-77906384D01*
X90833973Y-77722749D01*
X90833972Y-77722746D01*
X90762324Y-77549773D01*
X90762321Y-77549768D01*
X90762304Y-77549743D01*
X90658302Y-77394092D01*
X90525908Y-77261698D01*
X90525904Y-77261695D01*
X90370255Y-77157693D01*
X90370226Y-77157675D01*
X90197248Y-77086025D01*
X90197249Y-77086025D01*
X90105435Y-77067762D01*
X90105435Y-77067763D01*
X90013617Y-77049500D01*
X90013616Y-77049500D01*
X89826384Y-77049500D01*
X89826378Y-77049500D01*
X89752927Y-77064110D01*
X89642749Y-77086025D01*
X89469772Y-77157675D01*
X89469743Y-77157694D01*
X89314098Y-77261692D01*
X89181692Y-77394098D01*
X89077694Y-77549743D01*
X89077675Y-77549772D01*
X89011095Y-77710512D01*
X89006027Y-77722746D01*
X88978631Y-77860475D01*
X88969500Y-77906384D01*
X88969500Y-77906386D01*
X88969500Y-78093615D01*
X88998677Y-78240303D01*
X89003461Y-78288879D01*
X89003461Y-78311980D01*
X88984507Y-78407268D01*
X88984505Y-78407273D01*
X88980450Y-78417062D01*
X88926476Y-78497838D01*
X87639535Y-79784780D01*
X87639530Y-79784787D01*
X87593682Y-79864195D01*
X87593677Y-79864203D01*
X87593651Y-79864246D01*
X87593651Y-79864249D01*
X87592504Y-79866233D01*
X87589703Y-79871084D01*
X87589702Y-79871087D01*
X87583473Y-79881874D01*
X87581754Y-79908118D01*
X87569500Y-79953853D01*
X87569500Y-97692225D01*
X87564715Y-97740804D01*
X87560408Y-97762456D01*
X87523228Y-97852215D01*
X87454529Y-97920914D01*
X87454526Y-97920915D01*
X87357495Y-97985750D01*
X87351586Y-97991374D01*
X87250349Y-98059018D01*
X87104016Y-98205351D01*
X86989067Y-98377388D01*
X86989055Y-98377406D01*
X86910369Y-98567369D01*
X86906176Y-98574361D01*
X86899925Y-98589451D01*
X86888756Y-98610348D01*
X86873341Y-98629132D01*
X86872773Y-98630080D01*
X86858660Y-98647270D01*
X86858038Y-98647779D01*
X86827124Y-98685452D01*
X86784052Y-98708475D01*
X86783547Y-98708890D01*
X86782922Y-98709079D01*
X86741442Y-98731252D01*
X86694532Y-98735873D01*
X86690570Y-98737075D01*
X86686458Y-98736669D01*
X86644755Y-98740778D01*
X86604564Y-98728587D01*
X86593884Y-98727533D01*
X86584440Y-98722482D01*
X86551783Y-98712577D01*
X86525343Y-98690880D01*
X86508210Y-98681718D01*
X86495914Y-98666730D01*
X86476681Y-98650947D01*
X86473835Y-98647478D01*
X86456695Y-98618923D01*
X86446590Y-98606605D01*
X86443822Y-98597477D01*
X86436382Y-98585080D01*
X86436271Y-98584812D01*
X86431763Y-98573145D01*
X86430130Y-98568580D01*
X86430129Y-98568577D01*
X86350943Y-98377406D01*
X86350937Y-98377396D01*
X86235981Y-98205350D01*
X86235979Y-98205348D01*
X86235977Y-98205345D01*
X86089655Y-98059023D01*
X86089651Y-98059020D01*
X86089649Y-98059018D01*
X86089647Y-98059016D01*
X85930764Y-97952856D01*
X85917603Y-97944062D01*
X85917593Y-97944056D01*
X85744132Y-97872206D01*
X85726419Y-97864869D01*
X85658769Y-97851412D01*
X85658769Y-97851413D01*
X85613667Y-97842442D01*
X85523465Y-97824500D01*
X85523463Y-97824500D01*
X85316535Y-97824500D01*
X85215056Y-97844685D01*
X85215055Y-97844684D01*
X85113582Y-97864868D01*
X85113579Y-97864869D01*
X84922405Y-97944056D01*
X84922388Y-97944067D01*
X84750351Y-98059016D01*
X84604016Y-98205351D01*
X84489067Y-98377388D01*
X84489055Y-98377406D01*
X84489053Y-98377410D01*
X84409678Y-98569040D01*
X84405271Y-98576435D01*
X84399225Y-98591140D01*
X84388486Y-98611229D01*
X84374086Y-98628772D01*
X84372932Y-98630711D01*
X84359392Y-98647386D01*
X84357568Y-98648898D01*
X84326848Y-98686328D01*
X84286342Y-98707976D01*
X84284613Y-98709411D01*
X84282349Y-98710110D01*
X84241163Y-98732123D01*
X84197076Y-98736462D01*
X84191789Y-98738097D01*
X84185978Y-98737555D01*
X84144475Y-98741641D01*
X84106626Y-98730157D01*
X84095054Y-98729079D01*
X84084216Y-98723358D01*
X84051505Y-98713434D01*
X84026441Y-98692863D01*
X84009133Y-98683727D01*
X83995959Y-98667844D01*
X83976406Y-98651796D01*
X83976403Y-98651792D01*
X83973589Y-98648363D01*
X83960220Y-98624756D01*
X83947108Y-98608948D01*
X83942111Y-98592781D01*
X83931638Y-98574287D01*
X83929648Y-98568723D01*
X83929647Y-98568719D01*
X83850500Y-98377642D01*
X83850497Y-98377637D01*
X83735591Y-98205667D01*
X83589332Y-98059408D01*
X83588753Y-98059021D01*
X83417367Y-97944505D01*
X83417361Y-97944501D01*
X83417351Y-97944497D01*
X83226274Y-97865350D01*
X83226272Y-97865349D01*
X83226271Y-97865349D01*
X83170000Y-97854155D01*
X83170000Y-98276000D01*
X83151046Y-98371288D01*
X83097070Y-98452070D01*
X83016288Y-98506046D01*
X82921000Y-98525000D01*
X82919000Y-98525000D01*
X82823712Y-98506046D01*
X82742930Y-98452070D01*
X82688954Y-98371288D01*
X82670000Y-98276000D01*
X82670000Y-97854156D01*
X82670000Y-97854155D01*
X82669999Y-97854155D01*
X82669996Y-97854155D01*
X82613728Y-97865348D01*
X82613724Y-97865349D01*
X82422647Y-97944497D01*
X82422637Y-97944501D01*
X82422631Y-97944505D01*
X82250670Y-98059405D01*
X82104407Y-98205668D01*
X81989498Y-98377643D01*
X81910275Y-98568902D01*
X81905223Y-98577545D01*
X81899824Y-98590997D01*
X81889011Y-98611225D01*
X81876945Y-98625926D01*
X81876147Y-98627292D01*
X81862750Y-98644371D01*
X81859559Y-98647109D01*
X81827374Y-98686325D01*
X81791576Y-98705457D01*
X81789026Y-98707647D01*
X81785033Y-98708954D01*
X81741690Y-98732121D01*
X81702558Y-98735973D01*
X81696699Y-98737893D01*
X81689014Y-98737306D01*
X81645002Y-98741640D01*
X81611145Y-98731368D01*
X81599825Y-98730505D01*
X81587164Y-98724092D01*
X81552032Y-98713434D01*
X81529328Y-98694800D01*
X81513153Y-98686608D01*
X81498392Y-98669410D01*
X81476932Y-98651797D01*
X81476931Y-98651796D01*
X81474343Y-98648642D01*
X81464072Y-98629423D01*
X81449877Y-98612884D01*
X81441393Y-98586988D01*
X81438012Y-98580662D01*
X81435556Y-98581680D01*
X81430129Y-98568579D01*
X81389515Y-98470527D01*
X81380193Y-98448022D01*
X81380192Y-98448021D01*
X81350943Y-98377406D01*
X81350936Y-98377395D01*
X81350934Y-98377392D01*
X81235981Y-98205350D01*
X81235979Y-98205348D01*
X81235977Y-98205345D01*
X81089655Y-98059023D01*
X81089651Y-98059020D01*
X81089649Y-98059018D01*
X80988382Y-97991354D01*
X80983335Y-97986307D01*
X80885461Y-97920906D01*
X80885458Y-97920903D01*
X80885457Y-97920903D01*
X80852055Y-97887498D01*
X80816764Y-97852205D01*
X80816582Y-97851767D01*
X80805289Y-97824500D01*
X80779588Y-97762449D01*
X80775281Y-97740794D01*
X80770500Y-97692231D01*
X80770500Y-91901449D01*
X82919500Y-91901449D01*
X82919500Y-92098549D01*
X82957946Y-92291826D01*
X82957947Y-92291830D01*
X82957949Y-92291835D01*
X83029987Y-92465755D01*
X83031956Y-92471030D01*
X83033364Y-92473908D01*
X83126454Y-92613228D01*
X83142861Y-92637782D01*
X83282218Y-92777139D01*
X83446086Y-92886632D01*
X83628165Y-92962051D01*
X83628167Y-92962051D01*
X83628169Y-92962052D01*
X83816453Y-92999504D01*
X83816452Y-92999505D01*
X83816467Y-92999506D01*
X83821459Y-93000500D01*
X84018541Y-93000500D01*
X84211835Y-92962051D01*
X84393914Y-92886632D01*
X84557782Y-92777139D01*
X84697139Y-92637782D01*
X84806632Y-92473914D01*
X84882051Y-92291835D01*
X84920500Y-92098541D01*
X84920500Y-91901459D01*
X84898694Y-91791835D01*
X84882052Y-91708169D01*
X84882051Y-91708167D01*
X84882051Y-91708165D01*
X84882048Y-91708158D01*
X84881784Y-91706830D01*
X84878688Y-91700047D01*
X84806632Y-91526086D01*
X84697139Y-91362218D01*
X84557782Y-91222861D01*
X84556857Y-91222243D01*
X84556848Y-91222236D01*
X84476411Y-91168490D01*
X84476410Y-91168490D01*
X84435960Y-91141462D01*
X84393914Y-91113368D01*
X84393911Y-91113366D01*
X84393909Y-91113365D01*
X84393907Y-91113364D01*
X84391030Y-91111956D01*
X84385755Y-91109987D01*
X84211835Y-91037949D01*
X84211830Y-91037947D01*
X84211826Y-91037946D01*
X84018549Y-90999500D01*
X84018545Y-90999500D01*
X84018541Y-90999500D01*
X83821459Y-90999500D01*
X83821454Y-90999500D01*
X83821449Y-90999500D01*
X83628172Y-91037946D01*
X83628170Y-91037946D01*
X83628169Y-91037947D01*
X83628164Y-91037949D01*
X83581919Y-91057104D01*
X83446088Y-91113366D01*
X83446086Y-91113367D01*
X83446077Y-91113373D01*
X83282226Y-91222853D01*
X83142853Y-91362226D01*
X83033373Y-91526077D01*
X83033367Y-91526086D01*
X83033366Y-91526088D01*
X83015511Y-91569194D01*
X82984231Y-91644714D01*
X82957946Y-91708172D01*
X82919500Y-91901449D01*
X80770500Y-91901449D01*
X80770500Y-81905529D01*
X81719500Y-81905529D01*
X81719500Y-82094470D01*
X81719501Y-82094495D01*
X81719501Y-82094497D01*
X81749058Y-82281109D01*
X81749059Y-82281116D01*
X81749061Y-82281123D01*
X81807450Y-82460826D01*
X81807451Y-82460827D01*
X81807453Y-82460832D01*
X81893240Y-82629199D01*
X81948759Y-82705614D01*
X82000519Y-82776856D01*
X82004310Y-82782073D01*
X82137927Y-82915690D01*
X82290801Y-83026760D01*
X82459168Y-83112547D01*
X82638882Y-83170940D01*
X82825519Y-83200500D01*
X82825523Y-83200500D01*
X83014477Y-83200500D01*
X83014481Y-83200500D01*
X83201118Y-83170940D01*
X83380832Y-83112547D01*
X83549199Y-83026760D01*
X83702073Y-82915690D01*
X83835690Y-82782073D01*
X83946760Y-82629199D01*
X84032547Y-82460832D01*
X84090940Y-82281118D01*
X84120500Y-82094481D01*
X84120500Y-81905519D01*
X84090940Y-81718882D01*
X84032547Y-81539168D01*
X83946760Y-81370801D01*
X83835690Y-81217927D01*
X83702073Y-81084310D01*
X83702069Y-81084307D01*
X83702068Y-81084306D01*
X83637116Y-81037116D01*
X83549199Y-80973240D01*
X83380832Y-80887453D01*
X83380831Y-80887452D01*
X83380828Y-80887451D01*
X83256965Y-80847206D01*
X83235910Y-80840364D01*
X83218846Y-80834820D01*
X83218840Y-80834816D01*
X83209780Y-80831104D01*
X83191316Y-80826745D01*
X83181756Y-80825993D01*
X83014506Y-80799503D01*
X83014499Y-80799502D01*
X83014492Y-80799501D01*
X83014483Y-80799500D01*
X83014482Y-80799500D01*
X82825517Y-80799500D01*
X82825516Y-80799500D01*
X82825507Y-80799501D01*
X82825501Y-80799501D01*
X82825492Y-80799503D01*
X82638889Y-80829057D01*
X82480891Y-80880393D01*
X82480882Y-80880396D01*
X82459172Y-80887451D01*
X82459168Y-80887452D01*
X82459168Y-80887453D01*
X82405214Y-80914943D01*
X82405183Y-80914958D01*
X82320450Y-80958133D01*
X82290801Y-80973240D01*
X82290798Y-80973241D01*
X82290796Y-80973243D01*
X82290792Y-80973245D01*
X82289874Y-80973913D01*
X82289872Y-80973914D01*
X82137937Y-81084300D01*
X82137928Y-81084308D01*
X82004309Y-81217926D01*
X82004304Y-81217932D01*
X81967179Y-81269031D01*
X81967172Y-81269041D01*
X81961288Y-81277141D01*
X81893240Y-81370801D01*
X81837690Y-81479825D01*
X81833356Y-81488329D01*
X81833354Y-81488334D01*
X81807450Y-81539172D01*
X81807447Y-81539179D01*
X81749058Y-81718884D01*
X81749058Y-81718887D01*
X81719501Y-81905501D01*
X81719501Y-81905503D01*
X81719500Y-81905529D01*
X80770500Y-81905529D01*
X80770500Y-75772848D01*
X80775283Y-75724280D01*
X80779790Y-75701617D01*
X80816961Y-75611863D01*
X80829806Y-75592639D01*
X80860763Y-75554917D01*
X85413664Y-71002015D01*
X85451393Y-70971053D01*
X85470605Y-70958217D01*
X85471082Y-70958020D01*
X85560346Y-70921047D01*
X85570746Y-70918978D01*
X85667899Y-70918975D01*
X85826384Y-70950500D01*
X86013614Y-70950500D01*
X86013616Y-70950500D01*
X86197251Y-70913973D01*
X86370231Y-70842322D01*
X86420167Y-70808955D01*
X86463207Y-70785950D01*
X86484559Y-70777106D01*
X86579835Y-70758156D01*
X86582160Y-70758156D01*
X86669871Y-70774117D01*
X86684271Y-70779537D01*
X86721054Y-70796933D01*
X86760569Y-70819746D01*
X86761946Y-70820541D01*
X86761948Y-70820542D01*
X86761947Y-70820542D01*
X86772461Y-70826612D01*
X86772462Y-70826612D01*
X86772465Y-70826614D01*
X86785707Y-70830162D01*
X86798949Y-70833710D01*
X86798952Y-70833710D01*
X86861606Y-70850500D01*
X86861609Y-70850500D01*
X89659398Y-70850500D01*
X89707970Y-70855283D01*
X89713711Y-70856424D01*
X89730632Y-70859790D01*
X89820391Y-70896968D01*
X89820398Y-70896973D01*
X89839605Y-70909807D01*
X89877336Y-70940771D01*
X90027228Y-71090663D01*
X90058192Y-71128394D01*
X90071026Y-71147601D01*
X90108207Y-71237360D01*
X90112715Y-71260022D01*
X90117500Y-71308602D01*
X90117500Y-75721121D01*
X90141386Y-75810267D01*
X90187527Y-75890185D01*
X90187528Y-75890186D01*
X90187530Y-75890189D01*
X91365103Y-77067762D01*
X92537230Y-78239889D01*
X92568194Y-78277620D01*
X92581026Y-78296824D01*
X92618207Y-78386583D01*
X92622715Y-78409245D01*
X92627500Y-78457825D01*
X92627500Y-92502608D01*
X92640142Y-92549788D01*
X92641767Y-92555852D01*
X92641768Y-92555856D01*
X92651386Y-92591754D01*
X92697527Y-92671672D01*
X92697528Y-92671673D01*
X92697530Y-92671676D01*
X102758324Y-102732470D01*
X102758326Y-102732471D01*
X102758327Y-102732472D01*
X102758332Y-102732475D01*
X102759719Y-102733474D01*
X102764772Y-102736193D01*
X102838245Y-102778613D01*
X102838246Y-102778613D01*
X102838247Y-102778613D01*
X102838248Y-102778614D01*
X102870874Y-102787356D01*
X102927389Y-102802500D01*
X102927392Y-102802500D01*
X120254144Y-102802500D01*
X120343288Y-102778614D01*
X120423212Y-102732470D01*
X122281650Y-100874031D01*
X128399500Y-100874031D01*
X128399500Y-101125967D01*
X128399501Y-101125980D01*
X128438907Y-101374773D01*
X128438921Y-101374834D01*
X128439204Y-101375691D01*
X128516757Y-101614375D01*
X128516758Y-101614378D01*
X128516759Y-101614379D01*
X128631130Y-101838845D01*
X128779207Y-102042656D01*
X128957344Y-102220793D01*
X129161155Y-102368870D01*
X129385621Y-102483241D01*
X129625215Y-102561090D01*
X129683557Y-102570330D01*
X129712728Y-102574951D01*
X129712729Y-102574951D01*
X129840268Y-102595151D01*
X129873731Y-102600452D01*
X129874031Y-102600500D01*
X130125962Y-102600500D01*
X130125967Y-102600500D01*
X130126121Y-102600475D01*
X130243513Y-102581881D01*
X130243516Y-102581881D01*
X130374779Y-102561091D01*
X130374779Y-102561090D01*
X130374785Y-102561090D01*
X130614379Y-102483241D01*
X130838845Y-102368870D01*
X131042656Y-102220793D01*
X131220793Y-102042656D01*
X131368870Y-101838845D01*
X131483241Y-101614379D01*
X131561090Y-101374785D01*
X131581881Y-101243513D01*
X131600499Y-101125971D01*
X131600500Y-101125959D01*
X131600500Y-100874031D01*
X131600452Y-100873731D01*
X131574951Y-100712730D01*
X131574951Y-100712728D01*
X131561090Y-100625217D01*
X131561090Y-100625215D01*
X131483241Y-100385621D01*
X131399634Y-100221532D01*
X131368872Y-100161158D01*
X131368870Y-100161155D01*
X131357744Y-100145842D01*
X131223742Y-99961404D01*
X131223741Y-99961400D01*
X131221613Y-99958344D01*
X131220797Y-99957349D01*
X131220795Y-99957347D01*
X131220793Y-99957344D01*
X131042656Y-99779207D01*
X130860717Y-99647021D01*
X130838848Y-99631132D01*
X130838849Y-99631132D01*
X130675556Y-99547930D01*
X130614379Y-99516759D01*
X130614378Y-99516758D01*
X130614375Y-99516757D01*
X130374785Y-99438910D01*
X130374782Y-99438909D01*
X130374780Y-99438908D01*
X130374771Y-99438906D01*
X130125980Y-99399501D01*
X130125974Y-99399500D01*
X130125971Y-99399500D01*
X130125968Y-99399500D01*
X129874031Y-99399500D01*
X129874028Y-99399500D01*
X129874025Y-99399500D01*
X129874018Y-99399501D01*
X129625227Y-99438906D01*
X129625209Y-99438911D01*
X129407346Y-99509697D01*
X129407327Y-99509705D01*
X129385625Y-99516757D01*
X129385621Y-99516758D01*
X129385621Y-99516759D01*
X129331687Y-99544239D01*
X129331625Y-99544268D01*
X129161901Y-99630748D01*
X129161279Y-99631062D01*
X129161144Y-99631136D01*
X129161143Y-99631136D01*
X128957353Y-99779198D01*
X128779198Y-99957353D01*
X128631136Y-100161143D01*
X128631136Y-100161144D01*
X128631068Y-100161267D01*
X128630723Y-100161952D01*
X128545502Y-100329210D01*
X128545501Y-100329212D01*
X128535798Y-100348254D01*
X128516756Y-100385625D01*
X128516755Y-100385629D01*
X128438910Y-100625213D01*
X128438906Y-100625227D01*
X128399501Y-100874018D01*
X128399500Y-100874031D01*
X122281650Y-100874031D01*
X130611387Y-92544292D01*
X130649116Y-92513330D01*
X130668328Y-92500494D01*
X130671217Y-92499298D01*
X130758060Y-92463326D01*
X130758087Y-92463320D01*
X130758090Y-92463320D01*
X130762387Y-92462465D01*
X130847537Y-92460375D01*
X130855783Y-92461599D01*
X130855783Y-92461598D01*
X130889573Y-92466614D01*
X130901582Y-92468698D01*
X130975610Y-92483423D01*
X131058552Y-92499921D01*
X131058550Y-92499927D01*
X131058616Y-92499933D01*
X131061459Y-92500500D01*
X131258541Y-92500500D01*
X131451835Y-92462051D01*
X131633914Y-92386632D01*
X131797782Y-92277139D01*
X131937139Y-92137782D01*
X132046632Y-91973914D01*
X132122051Y-91791835D01*
X132160500Y-91598541D01*
X132160500Y-91401459D01*
X132124852Y-91222244D01*
X132122052Y-91208169D01*
X132122051Y-91208167D01*
X132122051Y-91208165D01*
X132121070Y-91205798D01*
X132120503Y-91204024D01*
X132118688Y-91200047D01*
X132046632Y-91026086D01*
X131937139Y-90862218D01*
X131797782Y-90722861D01*
X131797770Y-90722853D01*
X131634023Y-90613441D01*
X131633915Y-90613369D01*
X131633914Y-90613368D01*
X131633911Y-90613366D01*
X131633909Y-90613365D01*
X131633907Y-90613364D01*
X131631030Y-90611956D01*
X131625755Y-90609987D01*
X131451835Y-90537949D01*
X131451830Y-90537947D01*
X131451826Y-90537946D01*
X131258549Y-90499500D01*
X131258545Y-90499500D01*
X131258541Y-90499500D01*
X131061459Y-90499500D01*
X131061454Y-90499500D01*
X131061449Y-90499500D01*
X130868172Y-90537946D01*
X130868170Y-90537946D01*
X130868169Y-90537947D01*
X130868164Y-90537949D01*
X130765503Y-90580471D01*
X130686088Y-90613366D01*
X130686086Y-90613367D01*
X130686077Y-90613373D01*
X130522226Y-90722853D01*
X130382853Y-90862226D01*
X130273373Y-91026077D01*
X130273367Y-91026086D01*
X130273366Y-91026088D01*
X130268454Y-91037947D01*
X130225578Y-91141462D01*
X130197946Y-91208172D01*
X130159500Y-91401449D01*
X130159500Y-91598550D01*
X130191966Y-91761763D01*
X130195558Y-91785995D01*
X130199919Y-91830384D01*
X130190381Y-91927042D01*
X130189093Y-91931286D01*
X130150803Y-92007329D01*
X130143972Y-92016537D01*
X130120063Y-92044252D01*
X120153089Y-102011228D01*
X120115358Y-102042192D01*
X120096151Y-102055026D01*
X120006394Y-102092207D01*
X119983733Y-102096715D01*
X119935151Y-102101500D01*
X103246385Y-102101500D01*
X103197805Y-102096715D01*
X103175143Y-102092207D01*
X103085384Y-102055026D01*
X103066177Y-102042192D01*
X103028446Y-102011228D01*
X94375096Y-93357878D01*
X94344133Y-93320149D01*
X94333427Y-93304127D01*
X94296245Y-93214368D01*
X94296244Y-93117213D01*
X94333421Y-93027453D01*
X94402116Y-92958755D01*
X94418143Y-92948046D01*
X94461181Y-92925042D01*
X94553914Y-92886632D01*
X94717782Y-92777139D01*
X94857139Y-92637782D01*
X94949540Y-92499493D01*
X94964092Y-92479872D01*
X94975947Y-92465426D01*
X94992455Y-92445309D01*
X95067548Y-92383678D01*
X95071478Y-92381577D01*
X95152300Y-92354882D01*
X95163683Y-92353194D01*
X95200214Y-92350500D01*
X102791950Y-92350500D01*
X102840528Y-92355285D01*
X102875548Y-92362251D01*
X102944334Y-92386860D01*
X102982756Y-92407394D01*
X103016819Y-92415931D01*
X103120006Y-92458672D01*
X103120007Y-92458672D01*
X103128165Y-92462051D01*
X103128166Y-92462051D01*
X103128167Y-92462051D01*
X103128169Y-92462052D01*
X103151104Y-92466614D01*
X103235604Y-92483423D01*
X103235611Y-92483423D01*
X103235613Y-92483424D01*
X103321459Y-92500500D01*
X103518541Y-92500500D01*
X103604387Y-92483424D01*
X103681664Y-92468052D01*
X103705811Y-92464470D01*
X103724423Y-92462635D01*
X103724424Y-92462637D01*
X103750313Y-92460085D01*
X103846959Y-92469591D01*
X103851191Y-92470875D01*
X103927278Y-92509163D01*
X103932889Y-92513324D01*
X103936526Y-92516021D01*
X103964270Y-92539953D01*
X104358737Y-92934419D01*
X104758788Y-93334470D01*
X104758787Y-93334470D01*
X104760178Y-93335472D01*
X104765248Y-93338200D01*
X104838709Y-93380613D01*
X104838711Y-93380613D01*
X104838712Y-93380614D01*
X104860998Y-93386585D01*
X104927853Y-93404500D01*
X104927856Y-93404500D01*
X126349833Y-93404500D01*
X126438977Y-93380614D01*
X126518901Y-93334470D01*
X132994469Y-86858900D01*
X133040614Y-86778976D01*
X133057699Y-86715212D01*
X133057700Y-86715212D01*
X133057701Y-86715204D01*
X133064500Y-86689832D01*
X133064500Y-78207856D01*
X133064500Y-78207854D01*
X133054404Y-78170177D01*
X133040614Y-78118712D01*
X133000763Y-78049689D01*
X132994469Y-78038787D01*
X131353090Y-76397408D01*
X131322125Y-76359676D01*
X131311420Y-76343655D01*
X131274240Y-76253896D01*
X131274239Y-76156741D01*
X131311418Y-76066981D01*
X131339857Y-76038542D01*
X131380115Y-75998283D01*
X131385769Y-75994505D01*
X131451937Y-75963228D01*
X131492000Y-75951094D01*
X131522696Y-75932699D01*
X131633914Y-75886632D01*
X131797782Y-75777139D01*
X131937139Y-75637782D01*
X132046632Y-75473914D01*
X132122051Y-75291835D01*
X132160500Y-75098541D01*
X132160500Y-74901459D01*
X132138025Y-74788469D01*
X132122052Y-74708169D01*
X132122051Y-74708167D01*
X132122051Y-74708165D01*
X132046632Y-74526086D01*
X131937139Y-74362218D01*
X131797782Y-74222861D01*
X131797770Y-74222853D01*
X131686054Y-74148207D01*
X131633914Y-74113368D01*
X131633911Y-74113366D01*
X131633909Y-74113365D01*
X131633907Y-74113364D01*
X131631030Y-74111956D01*
X131625755Y-74109987D01*
X131451835Y-74037949D01*
X131451830Y-74037947D01*
X131451826Y-74037946D01*
X131258549Y-73999500D01*
X131258545Y-73999500D01*
X131258541Y-73999500D01*
X131061459Y-73999500D01*
X131061454Y-73999500D01*
X131061449Y-73999500D01*
X130868172Y-74037946D01*
X130868170Y-74037946D01*
X130868169Y-74037947D01*
X130868164Y-74037949D01*
X130856518Y-74042773D01*
X130686088Y-74113366D01*
X130686086Y-74113367D01*
X130686077Y-74113373D01*
X130522226Y-74222853D01*
X130382853Y-74362226D01*
X130273373Y-74526077D01*
X130273367Y-74526086D01*
X130273362Y-74526097D01*
X130230894Y-74628625D01*
X130229031Y-74633005D01*
X130191475Y-74718987D01*
X130191086Y-74718869D01*
X130182514Y-74739500D01*
X130181601Y-74741593D01*
X130155096Y-74779663D01*
X130129302Y-74818180D01*
X130127397Y-74819449D01*
X130126090Y-74821328D01*
X130087044Y-74846351D01*
X130048464Y-74872071D01*
X130046218Y-74872515D01*
X130044292Y-74873750D01*
X129998633Y-74881928D01*
X129953155Y-74890925D01*
X129950912Y-74890476D01*
X129948659Y-74890880D01*
X129903356Y-74880964D01*
X129857888Y-74871871D01*
X129851608Y-74869262D01*
X129771068Y-74815386D01*
X120584302Y-65628620D01*
X120553338Y-65590889D01*
X120540504Y-65571682D01*
X120540499Y-65571670D01*
X120540487Y-65571658D01*
X120520415Y-65523185D01*
X120503323Y-65481923D01*
X120503317Y-65481894D01*
X120502455Y-65477558D01*
X120500372Y-65392467D01*
X120501596Y-65384217D01*
X120501595Y-65384216D01*
X120506589Y-65350560D01*
X120508678Y-65338522D01*
X120526951Y-65246653D01*
X120529930Y-65231678D01*
X120540500Y-65178541D01*
X120540500Y-64981459D01*
X120529857Y-64927952D01*
X120502052Y-64788169D01*
X120502051Y-64788167D01*
X120502051Y-64788165D01*
X120426632Y-64606086D01*
X120317139Y-64442218D01*
X120258054Y-64383133D01*
X120195349Y-64320427D01*
X120182907Y-64307036D01*
X120181698Y-64305635D01*
X120178255Y-64299561D01*
X120165284Y-64283508D01*
X120164411Y-64282736D01*
X120164040Y-64282181D01*
X120164151Y-64282106D01*
X120161738Y-64279118D01*
X120151358Y-64263226D01*
X120135979Y-64224968D01*
X120133793Y-64221111D01*
X120133511Y-64218828D01*
X120115122Y-64173083D01*
X120116141Y-64075934D01*
X120152794Y-63988739D01*
X120158875Y-63979639D01*
X120200898Y-63934773D01*
X120200135Y-63934010D01*
X120211673Y-63922471D01*
X120211676Y-63922470D01*
X120237611Y-63896535D01*
X125299500Y-63896535D01*
X125299500Y-64103465D01*
X125303930Y-64125736D01*
X125307934Y-64145870D01*
X125307935Y-64145874D01*
X125339870Y-64306422D01*
X125419056Y-64497593D01*
X125419067Y-64497610D01*
X125534016Y-64669647D01*
X125534018Y-64669649D01*
X125534020Y-64669651D01*
X125534023Y-64669655D01*
X125680345Y-64815977D01*
X125680348Y-64815979D01*
X125680350Y-64815981D01*
X125852202Y-64930808D01*
X125852756Y-64931177D01*
X125852842Y-64931234D01*
X125854486Y-64932330D01*
X125863756Y-64935644D01*
X125925136Y-64961068D01*
X125945524Y-64974691D01*
X125968196Y-64984086D01*
X125973367Y-64987541D01*
X125978592Y-64991033D01*
X125995922Y-65008365D01*
X126005915Y-65015042D01*
X126012596Y-65025041D01*
X126047287Y-65059736D01*
X126084461Y-65149498D01*
X126084454Y-65246653D01*
X126047269Y-65336410D01*
X125978566Y-65405105D01*
X125888834Y-65442273D01*
X125876571Y-65444713D01*
X125876526Y-65444717D01*
X125876506Y-65444726D01*
X125876439Y-65444725D01*
X125827979Y-65449500D01*
X125695718Y-65449500D01*
X125665310Y-65452351D01*
X125665307Y-65452352D01*
X125537121Y-65497205D01*
X125537119Y-65497205D01*
X125537111Y-65497211D01*
X125427856Y-65577844D01*
X125427844Y-65577856D01*
X125347211Y-65687111D01*
X125347205Y-65687120D01*
X125302352Y-65815307D01*
X125302351Y-65815310D01*
X125299500Y-65845718D01*
X125299500Y-67154273D01*
X125299782Y-67157290D01*
X125299783Y-67157297D01*
X125302353Y-67184695D01*
X125302353Y-67184697D01*
X125302354Y-67184699D01*
X125347207Y-67312882D01*
X125393769Y-67375972D01*
X125422084Y-67414338D01*
X125427850Y-67422150D01*
X125537118Y-67502793D01*
X125665301Y-67547646D01*
X125678550Y-67548888D01*
X125688372Y-67550500D01*
X127254271Y-67550500D01*
X127271633Y-67550500D01*
X127284693Y-67547646D01*
X127284699Y-67547646D01*
X127412882Y-67502793D01*
X127522150Y-67422150D01*
X127602793Y-67312882D01*
X127647646Y-67184699D01*
X127650500Y-67154266D01*
X127650500Y-65845734D01*
X127647646Y-65815301D01*
X127602793Y-65687118D01*
X127522150Y-65577850D01*
X127489715Y-65553912D01*
X127412884Y-65497208D01*
X127412877Y-65497204D01*
X127357898Y-65477967D01*
X127316448Y-65463463D01*
X127299649Y-65457585D01*
X127290538Y-65453731D01*
X127281818Y-65451673D01*
X127273094Y-65451265D01*
X127261861Y-65450211D01*
X127254274Y-65449500D01*
X127254273Y-65449500D01*
X127254266Y-65449500D01*
X127122021Y-65449500D01*
X127098006Y-65444723D01*
X127073524Y-65444731D01*
X127073433Y-65444713D01*
X127061169Y-65442273D01*
X127038520Y-65432890D01*
X127026733Y-65430546D01*
X127016735Y-65423866D01*
X126971411Y-65405090D01*
X126902715Y-65336388D01*
X126865539Y-65246627D01*
X126865544Y-65149472D01*
X126902727Y-65059714D01*
X126971421Y-64991024D01*
X126981815Y-64984079D01*
X127024857Y-64961071D01*
X127089451Y-64934315D01*
X127096752Y-64931590D01*
X127104812Y-64927952D01*
X127175959Y-64898481D01*
X127235923Y-64838515D01*
X127269655Y-64815977D01*
X127415977Y-64669655D01*
X127530941Y-64497598D01*
X127610130Y-64306420D01*
X127650500Y-64103465D01*
X127650500Y-63896535D01*
X127610130Y-63693580D01*
X127546722Y-63540500D01*
X127546311Y-63539508D01*
X127530942Y-63502404D01*
X127530940Y-63502401D01*
X127530937Y-63502396D01*
X127415981Y-63330350D01*
X127415979Y-63330348D01*
X127415977Y-63330345D01*
X127269655Y-63184023D01*
X127269651Y-63184020D01*
X127269649Y-63184018D01*
X127269647Y-63184016D01*
X127136846Y-63095283D01*
X127097603Y-63069062D01*
X127097593Y-63069056D01*
X126906419Y-62989869D01*
X126906417Y-62989868D01*
X126905960Y-62989679D01*
X126898551Y-62985265D01*
X126883862Y-62979226D01*
X126863771Y-62968486D01*
X126846251Y-62954106D01*
X126844313Y-62952952D01*
X126827634Y-62939412D01*
X126826112Y-62937577D01*
X126788671Y-62906848D01*
X126767040Y-62866375D01*
X126765600Y-62864639D01*
X126764896Y-62862363D01*
X126742877Y-62821163D01*
X126738540Y-62777115D01*
X126736903Y-62771819D01*
X126737445Y-62765993D01*
X126733358Y-62724476D01*
X126744832Y-62686656D01*
X126745910Y-62675083D01*
X126751636Y-62664231D01*
X126761565Y-62631506D01*
X126782120Y-62606460D01*
X126791251Y-62589157D01*
X126807142Y-62575973D01*
X126823196Y-62556412D01*
X126826615Y-62553606D01*
X126850214Y-62540239D01*
X126866024Y-62527123D01*
X126882198Y-62522122D01*
X126900699Y-62511643D01*
X126906252Y-62509655D01*
X126906280Y-62509647D01*
X127097357Y-62430500D01*
X127097362Y-62430497D01*
X127269332Y-62315591D01*
X127415591Y-62169332D01*
X127530497Y-61997362D01*
X127530500Y-61997357D01*
X127609650Y-61806273D01*
X127609651Y-61806268D01*
X127620843Y-61750000D01*
X127620842Y-61750000D01*
X127199000Y-61750000D01*
X127103712Y-61731046D01*
X127022930Y-61677070D01*
X126968954Y-61596288D01*
X126950000Y-61501000D01*
X126950000Y-61499000D01*
X126968954Y-61403712D01*
X127022930Y-61322930D01*
X127103712Y-61268954D01*
X127199000Y-61250000D01*
X127620842Y-61250000D01*
X127620843Y-61250000D01*
X127620843Y-61249999D01*
X127609651Y-61193731D01*
X127609650Y-61193726D01*
X127530500Y-61002642D01*
X127530497Y-61002637D01*
X127415591Y-60830667D01*
X127269332Y-60684408D01*
X127097362Y-60569502D01*
X127097357Y-60569499D01*
X126906276Y-60490350D01*
X126725000Y-60454293D01*
X126725000Y-60776000D01*
X126706046Y-60871288D01*
X126652070Y-60952070D01*
X126571288Y-61006046D01*
X126476000Y-61025000D01*
X126474000Y-61025000D01*
X126378712Y-61006046D01*
X126297930Y-60952070D01*
X126243954Y-60871288D01*
X126225000Y-60776000D01*
X126225000Y-60454293D01*
X126224999Y-60454293D01*
X126043722Y-60490350D01*
X125852641Y-60569499D01*
X125680668Y-60684407D01*
X125534407Y-60830668D01*
X125419499Y-61002641D01*
X125379773Y-61098549D01*
X125340349Y-61193726D01*
X125340348Y-61193731D01*
X125329156Y-61249999D01*
X125329157Y-61250000D01*
X125751000Y-61250000D01*
X125846288Y-61268954D01*
X125927070Y-61322930D01*
X125981046Y-61403712D01*
X126000000Y-61499000D01*
X126000000Y-61501000D01*
X125981046Y-61596288D01*
X125927070Y-61677070D01*
X125846288Y-61731046D01*
X125751000Y-61750000D01*
X125329156Y-61750000D01*
X125340348Y-61806268D01*
X125340349Y-61806273D01*
X125419499Y-61997357D01*
X125419502Y-61997362D01*
X125534408Y-62169332D01*
X125680667Y-62315591D01*
X125852637Y-62430497D01*
X125852642Y-62430500D01*
X126043719Y-62509647D01*
X126043721Y-62509647D01*
X126043891Y-62509718D01*
X126051484Y-62514228D01*
X126065976Y-62520164D01*
X126086214Y-62530981D01*
X126103324Y-62545022D01*
X126105039Y-62546041D01*
X126121883Y-62559643D01*
X126123494Y-62561574D01*
X126161317Y-62592614D01*
X126182623Y-62632473D01*
X126184109Y-62634255D01*
X126184856Y-62636652D01*
X126207117Y-62678296D01*
X126211392Y-62721701D01*
X126213046Y-62727001D01*
X126212504Y-62732986D01*
X126216641Y-62774983D01*
X126205326Y-62812283D01*
X126204288Y-62823760D01*
X126198494Y-62834809D01*
X126188440Y-62867955D01*
X126168145Y-62892685D01*
X126159169Y-62909803D01*
X126143099Y-62923205D01*
X126126807Y-62943058D01*
X126126791Y-62943071D01*
X126123397Y-62945856D01*
X126100144Y-62959029D01*
X126084557Y-62972029D01*
X126068176Y-62977139D01*
X126049356Y-62987802D01*
X126043577Y-62989870D01*
X125852414Y-63069051D01*
X125852406Y-63069055D01*
X125852388Y-63069067D01*
X125680351Y-63184016D01*
X125534016Y-63330351D01*
X125419067Y-63502388D01*
X125419056Y-63502405D01*
X125339870Y-63693575D01*
X125339870Y-63693578D01*
X125339870Y-63693580D01*
X125299500Y-63896535D01*
X120237611Y-63896535D01*
X127754470Y-56379676D01*
X127800614Y-56299752D01*
X127824500Y-56210608D01*
X127824500Y-56118320D01*
X127824500Y-51310167D01*
X127824500Y-51310164D01*
X127800614Y-51221023D01*
X127771416Y-51170452D01*
X127754469Y-51141099D01*
X127725451Y-51112081D01*
X127714500Y-51101130D01*
X127714498Y-51101127D01*
X127571583Y-50958208D01*
X127571566Y-50958196D01*
X120139342Y-43525972D01*
X110332901Y-33719530D01*
X110332898Y-33719528D01*
X110332897Y-33719527D01*
X110252979Y-33673386D01*
X110163833Y-33649500D01*
X91772849Y-33649500D01*
X91724269Y-33644715D01*
X91701607Y-33640207D01*
X91611848Y-33603026D01*
X91592641Y-33590192D01*
X91554910Y-33559228D01*
X90290771Y-32295089D01*
X90259807Y-32257358D01*
X90246973Y-32238151D01*
X90209792Y-32148392D01*
X90209790Y-32148382D01*
X90205283Y-32125720D01*
X90200500Y-32077150D01*
X90200500Y-24138630D01*
X90203189Y-24102138D01*
X90203381Y-24100839D01*
X90209774Y-24060502D01*
X90209371Y-24060405D01*
X90223509Y-23964983D01*
X90223912Y-23963854D01*
X90223886Y-23962526D01*
X90230281Y-23922150D01*
X90240500Y-23857629D01*
X90240500Y-22142371D01*
X90209955Y-21949516D01*
X90209950Y-21949500D01*
X90209298Y-21946782D01*
X90203027Y-21906094D01*
X90202258Y-21895149D01*
X90202457Y-21893338D01*
X90201870Y-21889632D01*
X90201112Y-21878839D01*
X90201581Y-21875138D01*
X90200500Y-21861387D01*
X90200500Y-17905521D01*
X90200496Y-17905497D01*
X90199546Y-17899501D01*
X90170940Y-17718885D01*
X90170940Y-17718882D01*
X90112547Y-17539168D01*
X90026760Y-17370801D01*
X89915690Y-17217927D01*
X89782073Y-17084310D01*
X89782069Y-17084307D01*
X89782068Y-17084306D01*
X89782065Y-17084304D01*
X89782062Y-17084301D01*
X89693588Y-17020022D01*
X89693587Y-17020021D01*
X89629199Y-16973240D01*
X89460832Y-16887453D01*
X89460829Y-16887452D01*
X89460827Y-16887451D01*
X89460828Y-16887451D01*
X89410860Y-16871215D01*
X89360893Y-16854980D01*
X89360892Y-16854979D01*
X89308282Y-16837885D01*
X89308270Y-16837882D01*
X89281118Y-16829060D01*
X89281116Y-16829059D01*
X89281114Y-16829059D01*
X89252211Y-16824481D01*
X89252202Y-16824479D01*
X89094506Y-16799503D01*
X89094499Y-16799502D01*
X89094492Y-16799501D01*
X89094483Y-16799500D01*
X89094482Y-16799500D01*
X70523527Y-16799500D01*
X70474942Y-16794714D01*
X70454484Y-16790644D01*
X70364726Y-16753462D01*
X70296029Y-16684761D01*
X70258852Y-16595000D01*
X70258852Y-16594997D01*
X70254784Y-16574545D01*
X70250000Y-16525972D01*
X70250000Y-15624027D01*
X70254784Y-15575454D01*
X70258853Y-15554996D01*
X70296031Y-15465235D01*
X70364729Y-15396535D01*
X70454486Y-15359354D01*
X70454489Y-15359353D01*
X70454496Y-15359353D01*
X70474954Y-15355284D01*
X70523527Y-15350500D01*
X107295973Y-15350500D01*
X107344549Y-15355284D01*
X107365006Y-15359353D01*
X107454766Y-15396532D01*
X107523465Y-15465231D01*
X107560644Y-15554984D01*
X107564714Y-15575442D01*
X107569500Y-15624027D01*
X107569500Y-16765447D01*
X107564715Y-16814028D01*
X107560408Y-16835679D01*
X107541461Y-16881418D01*
X107523234Y-16925428D01*
X107523229Y-16925432D01*
X107523227Y-16925438D01*
X107458541Y-16990125D01*
X107454537Y-16994129D01*
X107436187Y-17006391D01*
X107393131Y-17029406D01*
X107297410Y-17069054D01*
X107297402Y-17069058D01*
X107297392Y-17069064D01*
X107125351Y-17184016D01*
X106979016Y-17330351D01*
X106864067Y-17502388D01*
X106864056Y-17502405D01*
X106784870Y-17693576D01*
X106779837Y-17718879D01*
X106744500Y-17896536D01*
X106744500Y-18103463D01*
X106774777Y-18255681D01*
X106784870Y-18306422D01*
X106864056Y-18497593D01*
X106864067Y-18497610D01*
X106979016Y-18669647D01*
X106979018Y-18669649D01*
X106979020Y-18669651D01*
X106979023Y-18669655D01*
X107125345Y-18815977D01*
X107125348Y-18815979D01*
X107125351Y-18815982D01*
X107229574Y-18885621D01*
X107229575Y-18885621D01*
X107297402Y-18930941D01*
X107297403Y-18930941D01*
X107299456Y-18932313D01*
X107308697Y-18935620D01*
X107368024Y-18960194D01*
X107452187Y-18995055D01*
X107488580Y-19010130D01*
X107488581Y-19010130D01*
X107489020Y-19010312D01*
X107511110Y-19020760D01*
X107531218Y-19031508D01*
X107606320Y-19093142D01*
X107652118Y-19178826D01*
X107661641Y-19275513D01*
X107633438Y-19368484D01*
X107571808Y-19443582D01*
X107568400Y-19446379D01*
X107494316Y-19488348D01*
X107488743Y-19490341D01*
X107297641Y-19569499D01*
X107125668Y-19684407D01*
X106979407Y-19830668D01*
X106864499Y-20002641D01*
X106818216Y-20114379D01*
X106785349Y-20193726D01*
X106785348Y-20193731D01*
X106774156Y-20249999D01*
X106774157Y-20250000D01*
X107196000Y-20250000D01*
X107291288Y-20268954D01*
X107372070Y-20322930D01*
X107426046Y-20403712D01*
X107445000Y-20499000D01*
X107445000Y-20501000D01*
X107426046Y-20596288D01*
X107372070Y-20677070D01*
X107291288Y-20731046D01*
X107196000Y-20750000D01*
X106774156Y-20750000D01*
X106785348Y-20806268D01*
X106785349Y-20806273D01*
X106864499Y-20997357D01*
X106864502Y-20997362D01*
X106979408Y-21169332D01*
X107125667Y-21315591D01*
X107297637Y-21430497D01*
X107297642Y-21430500D01*
X107332214Y-21444820D01*
X107371443Y-21461070D01*
X107391821Y-21474686D01*
X107414489Y-21484079D01*
X107424883Y-21491024D01*
X107442225Y-21508365D01*
X107452224Y-21515047D01*
X107458904Y-21525044D01*
X107493582Y-21559722D01*
X107530762Y-21649482D01*
X107530763Y-21746637D01*
X107493583Y-21836396D01*
X107424885Y-21905095D01*
X107335139Y-21942273D01*
X107322876Y-21944713D01*
X107322828Y-21944717D01*
X107322806Y-21944727D01*
X107322734Y-21944726D01*
X107274284Y-21949500D01*
X107140718Y-21949500D01*
X107110310Y-21952351D01*
X107110307Y-21952352D01*
X106982121Y-21997205D01*
X106982119Y-21997205D01*
X106982111Y-21997211D01*
X106872856Y-22077844D01*
X106872844Y-22077856D01*
X106792211Y-22187111D01*
X106792205Y-22187119D01*
X106792205Y-22187121D01*
X106747352Y-22315307D01*
X106747351Y-22315310D01*
X106744500Y-22345718D01*
X106744500Y-23654273D01*
X106744782Y-23657290D01*
X106744783Y-23657297D01*
X106747353Y-23684695D01*
X106747353Y-23684697D01*
X106747354Y-23684699D01*
X106792207Y-23812882D01*
X106872850Y-23922150D01*
X106982118Y-24002793D01*
X107110301Y-24047646D01*
X107123550Y-24048888D01*
X107133372Y-24050500D01*
X108699271Y-24050500D01*
X108716633Y-24050500D01*
X108729693Y-24047646D01*
X108729699Y-24047646D01*
X108857882Y-24002793D01*
X108967150Y-23922150D01*
X109047793Y-23812882D01*
X109092646Y-23684699D01*
X109095500Y-23654266D01*
X109095500Y-22345734D01*
X109092646Y-22315301D01*
X109047793Y-22187118D01*
X108967150Y-22077850D01*
X108901794Y-22029615D01*
X108857884Y-21997208D01*
X108857877Y-21997204D01*
X108802898Y-21977967D01*
X108744649Y-21957585D01*
X108735538Y-21953731D01*
X108726818Y-21951673D01*
X108718094Y-21951265D01*
X108706861Y-21950211D01*
X108699274Y-21949500D01*
X108699273Y-21949500D01*
X108699266Y-21949500D01*
X108565716Y-21949500D01*
X108541659Y-21944714D01*
X108517129Y-21944714D01*
X108517128Y-21944713D01*
X108504864Y-21942273D01*
X108482215Y-21932890D01*
X108470428Y-21930546D01*
X108460430Y-21923866D01*
X108415106Y-21905090D01*
X108346410Y-21836388D01*
X108309234Y-21746627D01*
X108309239Y-21649472D01*
X108346422Y-21559714D01*
X108415102Y-21491033D01*
X108415831Y-21490545D01*
X108425524Y-21484069D01*
X108425543Y-21484061D01*
X108468542Y-21461075D01*
X108542357Y-21430500D01*
X108542362Y-21430497D01*
X108714332Y-21315591D01*
X108860591Y-21169332D01*
X108975497Y-20997362D01*
X108975500Y-20997357D01*
X109054650Y-20806273D01*
X109054651Y-20806268D01*
X109065843Y-20750000D01*
X109065842Y-20750000D01*
X108644000Y-20750000D01*
X108548712Y-20731046D01*
X108467930Y-20677070D01*
X108413954Y-20596288D01*
X108395000Y-20501000D01*
X108395000Y-20499000D01*
X108413954Y-20403712D01*
X108467930Y-20322930D01*
X108548712Y-20268954D01*
X108644000Y-20250000D01*
X109065842Y-20250000D01*
X109065843Y-20250000D01*
X109065843Y-20249999D01*
X109054651Y-20193731D01*
X109054650Y-20193726D01*
X108975500Y-20002642D01*
X108975497Y-20002637D01*
X108860591Y-19830667D01*
X108714330Y-19684406D01*
X108564131Y-19584047D01*
X108341761Y-19488675D01*
X108341221Y-19488442D01*
X108340574Y-19487994D01*
X108299226Y-19465227D01*
X108284861Y-19455368D01*
X108286169Y-19453461D01*
X108272492Y-19440933D01*
X108261301Y-19433198D01*
X108257327Y-19427043D01*
X108224741Y-19397195D01*
X108213934Y-19374031D01*
X128399500Y-19374031D01*
X128399500Y-19625967D01*
X128399501Y-19625980D01*
X128438906Y-19874771D01*
X128438911Y-19874789D01*
X128498233Y-20057367D01*
X128498234Y-20057367D01*
X128498235Y-20057370D01*
X128516759Y-20114379D01*
X128631130Y-20338845D01*
X128631133Y-20338849D01*
X128631134Y-20338851D01*
X128702781Y-20437465D01*
X128779207Y-20542656D01*
X128957344Y-20720793D01*
X129161155Y-20868870D01*
X129385621Y-20983241D01*
X129625215Y-21061090D01*
X129683557Y-21070330D01*
X129712728Y-21074951D01*
X129712729Y-21074951D01*
X129840268Y-21095151D01*
X129873731Y-21100452D01*
X129874031Y-21100500D01*
X130125962Y-21100500D01*
X130125967Y-21100500D01*
X130126121Y-21100475D01*
X130243513Y-21081881D01*
X130243516Y-21081881D01*
X130374779Y-21061091D01*
X130374779Y-21061090D01*
X130374785Y-21061090D01*
X130614379Y-20983241D01*
X130838845Y-20868870D01*
X131042656Y-20720793D01*
X131220793Y-20542656D01*
X131368870Y-20338845D01*
X131483241Y-20114379D01*
X131561090Y-19874785D01*
X131591243Y-19684408D01*
X131591244Y-19684405D01*
X131592887Y-19674024D01*
X131600499Y-19625971D01*
X131600500Y-19625959D01*
X131600500Y-19374040D01*
X131600499Y-19374028D01*
X131573014Y-19200500D01*
X131561090Y-19125215D01*
X131483241Y-18885621D01*
X131368870Y-18661155D01*
X131220793Y-18457344D01*
X131042656Y-18279207D01*
X131042644Y-18279198D01*
X130838848Y-18131132D01*
X130838849Y-18131132D01*
X130726612Y-18073944D01*
X130614379Y-18016759D01*
X130614378Y-18016758D01*
X130614375Y-18016757D01*
X130374785Y-17938910D01*
X130374782Y-17938909D01*
X130374780Y-17938908D01*
X130374771Y-17938906D01*
X130125980Y-17899501D01*
X130125974Y-17899500D01*
X130125971Y-17899500D01*
X130125968Y-17899500D01*
X129874031Y-17899500D01*
X129874028Y-17899500D01*
X129874025Y-17899500D01*
X129874018Y-17899501D01*
X129625227Y-17938906D01*
X129625209Y-17938911D01*
X129407346Y-18009697D01*
X129407327Y-18009705D01*
X129385625Y-18016757D01*
X129385621Y-18016758D01*
X129385621Y-18016759D01*
X129331687Y-18044239D01*
X129331625Y-18044268D01*
X129161901Y-18130748D01*
X129161279Y-18131062D01*
X129161144Y-18131136D01*
X129161143Y-18131136D01*
X128957353Y-18279198D01*
X128779198Y-18457353D01*
X128631136Y-18661143D01*
X128631136Y-18661144D01*
X128631062Y-18661279D01*
X128630749Y-18661899D01*
X128552242Y-18815979D01*
X128552242Y-18815981D01*
X128516759Y-18885622D01*
X128516755Y-18885630D01*
X128438910Y-19125213D01*
X128438906Y-19125227D01*
X128399501Y-19374018D01*
X128399500Y-19374031D01*
X108213934Y-19374031D01*
X108183665Y-19309150D01*
X108179409Y-19212089D01*
X108212621Y-19120787D01*
X108269187Y-19059031D01*
X108267761Y-19057293D01*
X108270497Y-19055047D01*
X108275083Y-19052594D01*
X108278244Y-19049144D01*
X108278755Y-19048770D01*
X108278988Y-19048600D01*
X108279988Y-19049971D01*
X108335786Y-19020137D01*
X108334538Y-19017123D01*
X108542593Y-18930943D01*
X108542592Y-18930943D01*
X108542598Y-18930941D01*
X108714655Y-18815977D01*
X108860977Y-18669655D01*
X108975941Y-18497598D01*
X109055130Y-18306420D01*
X109095500Y-18103465D01*
X109095500Y-17896535D01*
X109055130Y-17693580D01*
X109028733Y-17629854D01*
X108975943Y-17502406D01*
X108975940Y-17502401D01*
X108975937Y-17502396D01*
X108888008Y-17370800D01*
X108860981Y-17330350D01*
X108860979Y-17330348D01*
X108860977Y-17330345D01*
X108714655Y-17184023D01*
X108714651Y-17184020D01*
X108714649Y-17184018D01*
X108714647Y-17184016D01*
X108542606Y-17069064D01*
X108542596Y-17069058D01*
X108542593Y-17069056D01*
X108446869Y-17029406D01*
X108403822Y-17006396D01*
X108385469Y-16994133D01*
X108316769Y-16925435D01*
X108279590Y-16835675D01*
X108275282Y-16814016D01*
X108270500Y-16765452D01*
X108270500Y-14953853D01*
X108246614Y-14864713D01*
X108246614Y-14864712D01*
X108200469Y-14784788D01*
X108135212Y-14719531D01*
X108089066Y-14692888D01*
X108089066Y-14692887D01*
X108089062Y-14692886D01*
X108072176Y-14683136D01*
X108055291Y-14673387D01*
X108055288Y-14673386D01*
X108055287Y-14673385D01*
X108055285Y-14673384D01*
X108055284Y-14673384D01*
X107966149Y-14649500D01*
X107966147Y-14649500D01*
X107966144Y-14649500D01*
X70523527Y-14649500D01*
X70474942Y-14644714D01*
X70454484Y-14640644D01*
X70364726Y-14603462D01*
X70296029Y-14534761D01*
X70258852Y-14445000D01*
X70258852Y-14444997D01*
X70254784Y-14424545D01*
X70250000Y-14375972D01*
X70250000Y-12773527D01*
X70254784Y-12724954D01*
X70258853Y-12704496D01*
X70258853Y-12704493D01*
X70258854Y-12704487D01*
X70282759Y-12646778D01*
X70296031Y-12614735D01*
X70296035Y-12614729D01*
X70364729Y-12546035D01*
X70364735Y-12546031D01*
X70396778Y-12532759D01*
X70454486Y-12508854D01*
X70454489Y-12508853D01*
X70454496Y-12508853D01*
X70474954Y-12504784D01*
X70523527Y-12500000D01*
X136146473Y-12500000D01*
X136195049Y-12504784D01*
G37*
%TD.AperFunction*%
%TA.AperFunction,Conductor*%
G36*
X85008977Y-68355285D02*
G01*
X85025547Y-68358581D01*
X85115306Y-68395760D01*
X85184005Y-68464459D01*
X85221185Y-68554219D01*
X85221184Y-68651374D01*
X85184005Y-68741133D01*
X85184002Y-68741137D01*
X85174619Y-68755179D01*
X85143656Y-68792907D01*
X84857065Y-69079499D01*
X84857065Y-69079500D01*
X84587528Y-69349037D01*
X84587525Y-69349039D01*
X84563966Y-69389846D01*
X84563962Y-69389853D01*
X84558392Y-69399502D01*
X84541387Y-69428954D01*
X84541386Y-69428958D01*
X84535295Y-69451686D01*
X84535292Y-69451695D01*
X84517500Y-69518100D01*
X84517500Y-69875972D01*
X84512714Y-69924557D01*
X84508644Y-69945015D01*
X84471462Y-70034773D01*
X84402761Y-70103470D01*
X84313017Y-70140644D01*
X84292560Y-70144714D01*
X84243973Y-70149500D01*
X78369304Y-70149500D01*
X78280158Y-70173385D01*
X78200238Y-70219528D01*
X78200236Y-70219529D01*
X77639529Y-70780237D01*
X77639527Y-70780240D01*
X77608655Y-70833712D01*
X77586376Y-70872299D01*
X77585160Y-70890853D01*
X77569500Y-70949298D01*
X77569500Y-80525972D01*
X77564714Y-80574557D01*
X77560644Y-80595015D01*
X77523462Y-80684773D01*
X77454761Y-80753470D01*
X77365017Y-80790644D01*
X77344560Y-80794714D01*
X77295973Y-80799500D01*
X77115718Y-80799500D01*
X77085310Y-80802351D01*
X77085307Y-80802352D01*
X76957120Y-80847205D01*
X76957111Y-80847211D01*
X76847856Y-80927844D01*
X76847844Y-80927856D01*
X76767211Y-81037111D01*
X76767205Y-81037121D01*
X76722352Y-81165307D01*
X76722351Y-81165310D01*
X76719500Y-81195718D01*
X76719500Y-82804273D01*
X76719782Y-82807290D01*
X76719783Y-82807297D01*
X76722353Y-82834695D01*
X76722353Y-82834697D01*
X76722354Y-82834699D01*
X76767207Y-82962882D01*
X76847850Y-83072150D01*
X76957118Y-83152793D01*
X77085301Y-83197646D01*
X77098550Y-83198888D01*
X77108372Y-83200500D01*
X78724271Y-83200500D01*
X78741633Y-83200500D01*
X78754693Y-83197646D01*
X78754699Y-83197646D01*
X78882882Y-83152793D01*
X78992150Y-83072150D01*
X79072793Y-82962882D01*
X79117646Y-82834699D01*
X79120500Y-82804266D01*
X79120500Y-81195734D01*
X79117646Y-81165301D01*
X79072793Y-81037118D01*
X78992150Y-80927850D01*
X78882882Y-80847207D01*
X78882880Y-80847206D01*
X78882876Y-80847204D01*
X78882875Y-80847204D01*
X78824031Y-80826614D01*
X78824031Y-80826613D01*
X78824028Y-80826613D01*
X78769646Y-80807584D01*
X78760537Y-80803731D01*
X78751818Y-80801673D01*
X78743094Y-80801265D01*
X78731861Y-80800211D01*
X78724274Y-80799500D01*
X78724273Y-80799500D01*
X78724266Y-80799500D01*
X78544027Y-80799500D01*
X78495442Y-80794714D01*
X78474984Y-80790644D01*
X78385226Y-80753462D01*
X78316529Y-80684761D01*
X78303530Y-80653377D01*
X78279353Y-80595003D01*
X78275284Y-80574545D01*
X78270500Y-80525972D01*
X78270500Y-71268298D01*
X78275283Y-71219728D01*
X78279790Y-71197066D01*
X78279792Y-71197056D01*
X78298715Y-71151374D01*
X78316967Y-71107306D01*
X78316973Y-71107297D01*
X78329807Y-71088090D01*
X78360766Y-71050364D01*
X78470364Y-70940766D01*
X78508090Y-70909807D01*
X78527297Y-70896973D01*
X78617055Y-70859792D01*
X78623642Y-70858481D01*
X78639728Y-70855283D01*
X78688298Y-70850500D01*
X83948151Y-70850500D01*
X83996729Y-70855285D01*
X84013299Y-70858581D01*
X84103058Y-70895760D01*
X84171757Y-70964459D01*
X84208937Y-71054219D01*
X84208936Y-71151374D01*
X84171757Y-71241133D01*
X84171754Y-71241137D01*
X84162369Y-71255182D01*
X84131406Y-71292911D01*
X80139527Y-75284791D01*
X80102823Y-75348366D01*
X80093385Y-75364712D01*
X80093383Y-75364717D01*
X80069500Y-75453851D01*
X80069500Y-97692225D01*
X80064715Y-97740804D01*
X80060408Y-97762456D01*
X80023228Y-97852215D01*
X79954529Y-97920914D01*
X79954526Y-97920915D01*
X79857495Y-97985750D01*
X79851586Y-97991374D01*
X79750349Y-98059018D01*
X79604016Y-98205351D01*
X79489064Y-98377392D01*
X79489060Y-98377398D01*
X79489057Y-98377404D01*
X79458932Y-98450134D01*
X79445305Y-98470527D01*
X79435916Y-98493190D01*
X79428969Y-98503586D01*
X79411632Y-98520921D01*
X79404955Y-98530915D01*
X79394958Y-98537594D01*
X79360268Y-98572283D01*
X79270507Y-98609459D01*
X79173352Y-98609455D01*
X79083594Y-98572271D01*
X79014897Y-98503570D01*
X78977722Y-98413810D01*
X78975283Y-98401546D01*
X78975282Y-98401536D01*
X78975279Y-98401529D01*
X78975279Y-98401505D01*
X78970500Y-98352977D01*
X78970500Y-98218504D01*
X78969713Y-98212350D01*
X78969056Y-98205345D01*
X78968732Y-98201893D01*
X78968397Y-98194723D01*
X78967646Y-98190302D01*
X78967646Y-98190301D01*
X78922793Y-98062118D01*
X78920509Y-98059023D01*
X78842153Y-97952852D01*
X78842148Y-97952848D01*
X78830235Y-97944056D01*
X78830232Y-97944054D01*
X78819319Y-97936000D01*
X78819315Y-97935997D01*
X78747739Y-97883172D01*
X78732881Y-97872206D01*
X78732877Y-97872204D01*
X78677898Y-97852967D01*
X78619649Y-97832585D01*
X78610538Y-97828731D01*
X78601818Y-97826673D01*
X78593094Y-97826265D01*
X78581861Y-97825211D01*
X78574274Y-97824500D01*
X78574273Y-97824500D01*
X78574266Y-97824500D01*
X77265734Y-97824500D01*
X77265726Y-97824500D01*
X77265718Y-97824500D01*
X77235310Y-97827351D01*
X77235307Y-97827352D01*
X77107121Y-97872205D01*
X77107119Y-97872205D01*
X77107111Y-97872211D01*
X76997856Y-97952844D01*
X76997844Y-97952856D01*
X76917211Y-98062111D01*
X76917205Y-98062119D01*
X76917205Y-98062121D01*
X76872352Y-98190307D01*
X76872351Y-98190310D01*
X76869500Y-98220718D01*
X76869500Y-99779273D01*
X76869782Y-99782290D01*
X76869783Y-99782297D01*
X76872353Y-99809695D01*
X76872353Y-99809697D01*
X76872354Y-99809699D01*
X76917207Y-99937882D01*
X76997850Y-100047150D01*
X77107118Y-100127793D01*
X77235301Y-100172646D01*
X77265727Y-100175499D01*
X77265729Y-100175500D01*
X77265734Y-100175500D01*
X77300716Y-100175500D01*
X77305479Y-100175682D01*
X77310849Y-100176965D01*
X77344549Y-100180284D01*
X77365006Y-100184353D01*
X77396676Y-100197471D01*
X77399974Y-100198259D01*
X77401834Y-100199607D01*
X77454766Y-100221532D01*
X77523465Y-100290231D01*
X77560644Y-100379984D01*
X77564714Y-100400442D01*
X77569500Y-100449027D01*
X77569500Y-101375972D01*
X77564714Y-101424557D01*
X77560644Y-101445015D01*
X77523462Y-101534773D01*
X77454761Y-101603470D01*
X77365017Y-101640644D01*
X77344560Y-101644714D01*
X77295973Y-101649500D01*
X70523527Y-101649500D01*
X70474942Y-101644714D01*
X70454489Y-101640645D01*
X70454487Y-101640645D01*
X70454485Y-101640644D01*
X70454484Y-101640644D01*
X70432699Y-101631619D01*
X70364729Y-101603464D01*
X70364727Y-101603462D01*
X70364726Y-101603462D01*
X70330375Y-101569108D01*
X70296031Y-101534764D01*
X70296030Y-101534762D01*
X70296029Y-101534761D01*
X70258853Y-101445003D01*
X70254784Y-101424545D01*
X70250000Y-101375972D01*
X70250000Y-71082864D01*
X70254783Y-71034294D01*
X70258542Y-71015393D01*
X70295719Y-70925633D01*
X70364415Y-70856932D01*
X70454174Y-70819749D01*
X70551329Y-70819746D01*
X70567190Y-70822901D01*
X70570242Y-70823508D01*
X70616947Y-70837677D01*
X70628164Y-70842323D01*
X70731497Y-70885125D01*
X70731498Y-70885125D01*
X70731500Y-70885126D01*
X70909339Y-70920500D01*
X70909341Y-70920500D01*
X71090659Y-70920500D01*
X71090661Y-70920500D01*
X71268500Y-70885126D01*
X71436020Y-70815737D01*
X71586785Y-70714999D01*
X71714999Y-70586785D01*
X71815737Y-70436020D01*
X71885126Y-70268500D01*
X71920500Y-70090661D01*
X71920500Y-69909339D01*
X71885126Y-69731500D01*
X71881500Y-69722746D01*
X71875519Y-69708306D01*
X71815743Y-69563992D01*
X71815738Y-69563982D01*
X71806245Y-69549774D01*
X71806240Y-69549768D01*
X71714999Y-69413215D01*
X71586785Y-69285001D01*
X71551910Y-69261698D01*
X71436044Y-69184278D01*
X71436013Y-69184259D01*
X71268503Y-69114874D01*
X71224041Y-69106030D01*
X71179580Y-69097187D01*
X71179578Y-69097186D01*
X71179577Y-69097186D01*
X71120031Y-69085342D01*
X71090661Y-69079500D01*
X71090660Y-69079500D01*
X70909339Y-69079500D01*
X70736857Y-69113807D01*
X70736858Y-69113808D01*
X70731502Y-69114873D01*
X70616946Y-69162323D01*
X70570242Y-69176491D01*
X70551341Y-69180251D01*
X70454186Y-69180252D01*
X70364426Y-69143074D01*
X70295726Y-69074377D01*
X70258544Y-68984618D01*
X70258543Y-68984610D01*
X70254784Y-68965711D01*
X70250000Y-68917137D01*
X70250000Y-68624027D01*
X70254784Y-68575454D01*
X70258853Y-68554996D01*
X70258853Y-68554993D01*
X70258854Y-68554987D01*
X70286693Y-68487781D01*
X70296031Y-68465235D01*
X70296035Y-68465229D01*
X70342585Y-68418680D01*
X70364729Y-68396535D01*
X70364735Y-68396531D01*
X70396778Y-68383259D01*
X70454486Y-68359354D01*
X70454489Y-68359353D01*
X70454496Y-68359353D01*
X70474954Y-68355284D01*
X70523527Y-68350500D01*
X84960399Y-68350500D01*
X85008977Y-68355285D01*
G37*
%TD.AperFunction*%
%TA.AperFunction,Conductor*%
G36*
X104424549Y-68355284D02*
G01*
X104445006Y-68359353D01*
X104534766Y-68396532D01*
X104603465Y-68465231D01*
X104640644Y-68554984D01*
X104644714Y-68575442D01*
X104649500Y-68624027D01*
X104649500Y-72046149D01*
X104673384Y-72135285D01*
X104689773Y-72163672D01*
X104689776Y-72163676D01*
X104719531Y-72215212D01*
X104784788Y-72280469D01*
X104864712Y-72326614D01*
X104953853Y-72350500D01*
X104953856Y-72350500D01*
X105046144Y-72350500D01*
X110793630Y-72350500D01*
X110842202Y-72355283D01*
X110847943Y-72356424D01*
X110864864Y-72359790D01*
X110954623Y-72396968D01*
X110954671Y-72397000D01*
X110958345Y-72399456D01*
X111019963Y-72458133D01*
X111045195Y-72492154D01*
X111052234Y-72502149D01*
X111129984Y-72618512D01*
X111142856Y-72637775D01*
X111142857Y-72637777D01*
X111142861Y-72637782D01*
X111282218Y-72777139D01*
X111446086Y-72886632D01*
X111628165Y-72962051D01*
X111628167Y-72962051D01*
X111628169Y-72962052D01*
X111816453Y-72999504D01*
X111816452Y-72999505D01*
X111816467Y-72999506D01*
X111821459Y-73000500D01*
X112018541Y-73000500D01*
X112211835Y-72962051D01*
X112393914Y-72886632D01*
X112557782Y-72777139D01*
X112697139Y-72637782D01*
X112806632Y-72473914D01*
X112882051Y-72291835D01*
X112920500Y-72098541D01*
X112920500Y-71924160D01*
X112925283Y-71875588D01*
X112928579Y-71859016D01*
X112965757Y-71769256D01*
X113034454Y-71700555D01*
X113124213Y-71663374D01*
X113221368Y-71663371D01*
X113311125Y-71700547D01*
X113325176Y-71709936D01*
X113362905Y-71740899D01*
X116410476Y-74788470D01*
X116410478Y-74788471D01*
X116410479Y-74788472D01*
X116410484Y-74788475D01*
X116411871Y-74789474D01*
X116416924Y-74792193D01*
X116490397Y-74834613D01*
X116490398Y-74834613D01*
X116490399Y-74834613D01*
X116490400Y-74834614D01*
X116523026Y-74843356D01*
X116579541Y-74858500D01*
X116579544Y-74858500D01*
X118484147Y-74858500D01*
X118565719Y-74836642D01*
X118573288Y-74834614D01*
X118653212Y-74788469D01*
X118718469Y-74723212D01*
X118724861Y-74712140D01*
X118758885Y-74673343D01*
X118780688Y-74657304D01*
X118786751Y-74654464D01*
X118829254Y-74621854D01*
X118923100Y-74596712D01*
X119019423Y-74609398D01*
X119103560Y-74657979D01*
X119162572Y-74734799D01*
X119162708Y-74735074D01*
X119186380Y-74812945D01*
X119187236Y-74819449D01*
X119187369Y-74820455D01*
X119189500Y-74852965D01*
X119189500Y-78773972D01*
X119184714Y-78822557D01*
X119180644Y-78843015D01*
X119143462Y-78932773D01*
X119074761Y-79001470D01*
X118985017Y-79038644D01*
X118964560Y-79042714D01*
X118915973Y-79047500D01*
X109149312Y-79047500D01*
X109100732Y-79042715D01*
X109078070Y-79038207D01*
X108988311Y-79001026D01*
X108969104Y-78988192D01*
X108931373Y-78957228D01*
X103882645Y-73908500D01*
X100039493Y-70065347D01*
X99875656Y-69901510D01*
X101920000Y-69901510D01*
X101920000Y-70098489D01*
X101958429Y-70291689D01*
X101958430Y-70291692D01*
X102030429Y-70465512D01*
X102032405Y-70470808D01*
X102033808Y-70473672D01*
X102033810Y-70473675D01*
X102033811Y-70473677D01*
X102057425Y-70509019D01*
X102284312Y-70282131D01*
X102365091Y-70228158D01*
X102460379Y-70209204D01*
X102555667Y-70228158D01*
X102636445Y-70282131D01*
X102637866Y-70283552D01*
X102691840Y-70364331D01*
X102710794Y-70459619D01*
X102691840Y-70554907D01*
X102637865Y-70635687D01*
X102637862Y-70635689D01*
X102637860Y-70635691D01*
X102410978Y-70862572D01*
X102410979Y-70862572D01*
X102410979Y-70862573D01*
X102446322Y-70886189D01*
X102446324Y-70886190D01*
X102446339Y-70886196D01*
X102446347Y-70886200D01*
X102628305Y-70961569D01*
X102628306Y-70961569D01*
X102628308Y-70961570D01*
X102821511Y-71000000D01*
X103018487Y-71000000D01*
X103018489Y-71000000D01*
X103211691Y-70961570D01*
X103309523Y-70921047D01*
X103393669Y-70886193D01*
X103393675Y-70886190D01*
X103393674Y-70886190D01*
X103393682Y-70886187D01*
X103429019Y-70862574D01*
X103202134Y-70635689D01*
X103148159Y-70554908D01*
X103129205Y-70459620D01*
X103148159Y-70364332D01*
X103202132Y-70283553D01*
X103203553Y-70282132D01*
X103284332Y-70228159D01*
X103379620Y-70209205D01*
X103474908Y-70228159D01*
X103555690Y-70282135D01*
X103782573Y-70509018D01*
X103782574Y-70509019D01*
X103806187Y-70473682D01*
X103806191Y-70473673D01*
X103806193Y-70473669D01*
X103881569Y-70291693D01*
X103881568Y-70291693D01*
X103881570Y-70291691D01*
X103920000Y-70098489D01*
X103920000Y-69901510D01*
X103881570Y-69708308D01*
X103881569Y-69708305D01*
X103806200Y-69526347D01*
X103806196Y-69526339D01*
X103806190Y-69526324D01*
X103806189Y-69526322D01*
X103782573Y-69490979D01*
X103782572Y-69490978D01*
X103555690Y-69717859D01*
X103555688Y-69717863D01*
X103474906Y-69771839D01*
X103379618Y-69790793D01*
X103379617Y-69790792D01*
X103379617Y-69790793D01*
X103284329Y-69771839D01*
X103203551Y-69717865D01*
X103202131Y-69716445D01*
X103148158Y-69635667D01*
X103129204Y-69540379D01*
X103148158Y-69445091D01*
X103202130Y-69364313D01*
X103429019Y-69137425D01*
X103429016Y-69137423D01*
X103399542Y-69117730D01*
X103393677Y-69113811D01*
X103393675Y-69113810D01*
X103393672Y-69113808D01*
X103390808Y-69112405D01*
X103385512Y-69110429D01*
X103211692Y-69038430D01*
X103211690Y-69038429D01*
X103211689Y-69038429D01*
X103018489Y-69000000D01*
X103018486Y-69000000D01*
X102821513Y-69000000D01*
X102821511Y-69000000D01*
X102694911Y-69025182D01*
X102628307Y-69038430D01*
X102628306Y-69038431D01*
X102446326Y-69113808D01*
X102446318Y-69113812D01*
X102410979Y-69137423D01*
X102410979Y-69137424D01*
X102637867Y-69364312D01*
X102691841Y-69445091D01*
X102710795Y-69540379D01*
X102691841Y-69635667D01*
X102637865Y-69716449D01*
X102636449Y-69717865D01*
X102555667Y-69771841D01*
X102460379Y-69790795D01*
X102365091Y-69771841D01*
X102284312Y-69717867D01*
X102057424Y-69490979D01*
X102057423Y-69490979D01*
X102033812Y-69526318D01*
X102033809Y-69526325D01*
X101958431Y-69708306D01*
X101958431Y-69708308D01*
X101958429Y-69708313D01*
X101920000Y-69901510D01*
X99875656Y-69901510D01*
X98767054Y-68792908D01*
X98736091Y-68755179D01*
X98726708Y-68741137D01*
X98689527Y-68651379D01*
X98689524Y-68554224D01*
X98726702Y-68464463D01*
X98795400Y-68395763D01*
X98885158Y-68358582D01*
X98885166Y-68358580D01*
X98901737Y-68355284D01*
X98950312Y-68350500D01*
X104375973Y-68350500D01*
X104424549Y-68355284D01*
G37*
%TD.AperFunction*%
%TA.AperFunction,Conductor*%
G36*
X109975049Y-47855284D02*
G01*
X109995506Y-47859353D01*
X110085266Y-47896532D01*
X110153965Y-47965231D01*
X110191144Y-48054984D01*
X110195214Y-48075442D01*
X110200000Y-48124027D01*
X110200000Y-52000000D01*
X116199999Y-52000000D01*
X116200000Y-52000000D01*
X116200000Y-48124027D01*
X116204784Y-48075454D01*
X116208853Y-48054996D01*
X116246031Y-47965235D01*
X116314729Y-47896535D01*
X116404486Y-47859354D01*
X116404489Y-47859353D01*
X116404496Y-47859353D01*
X116424954Y-47855284D01*
X116473527Y-47850500D01*
X118915973Y-47850500D01*
X118964549Y-47855284D01*
X118985006Y-47859353D01*
X119074766Y-47896532D01*
X119143465Y-47965231D01*
X119180644Y-48054984D01*
X119184714Y-48075442D01*
X119189500Y-48124027D01*
X119189500Y-58873628D01*
X119184715Y-58922208D01*
X119180207Y-58944870D01*
X119143026Y-59034629D01*
X119143026Y-59034630D01*
X119140561Y-59038319D01*
X119081879Y-59099960D01*
X119076356Y-59104058D01*
X119048049Y-59125057D01*
X119038036Y-59132110D01*
X118935683Y-59200500D01*
X118902214Y-59222863D01*
X118762859Y-59362219D01*
X118762853Y-59362226D01*
X118653373Y-59526077D01*
X118653367Y-59526086D01*
X118653366Y-59526088D01*
X118577946Y-59708172D01*
X118539500Y-59901449D01*
X118539500Y-60098549D01*
X118577946Y-60291826D01*
X118577947Y-60291830D01*
X118577949Y-60291835D01*
X118653365Y-60473908D01*
X118653366Y-60473911D01*
X118653368Y-60473914D01*
X118688227Y-60526084D01*
X118691975Y-60531694D01*
X118691979Y-60531700D01*
X118727647Y-60585081D01*
X118755829Y-60627259D01*
X118762861Y-60637782D01*
X118902218Y-60777139D01*
X119066086Y-60886632D01*
X119248165Y-60962051D01*
X119248167Y-60962051D01*
X119248169Y-60962052D01*
X119427111Y-60997646D01*
X119441459Y-61000500D01*
X119638541Y-61000500D01*
X119831835Y-60962051D01*
X120013914Y-60886632D01*
X120177782Y-60777139D01*
X120317139Y-60637782D01*
X120426632Y-60473914D01*
X120502051Y-60291835D01*
X120540500Y-60098541D01*
X120540500Y-59901459D01*
X120534964Y-59873628D01*
X120502052Y-59708169D01*
X120502051Y-59708167D01*
X120502051Y-59708165D01*
X120426632Y-59526086D01*
X120317139Y-59362218D01*
X120317137Y-59362216D01*
X120177787Y-59222865D01*
X120177780Y-59222859D01*
X120144315Y-59200498D01*
X120144315Y-59200499D01*
X120039391Y-59130391D01*
X120019708Y-59115788D01*
X119985251Y-59087493D01*
X119923638Y-59012374D01*
X119923635Y-59012367D01*
X119921544Y-59008452D01*
X119894870Y-58927645D01*
X119893190Y-58916308D01*
X119890500Y-58879808D01*
X119890500Y-52624027D01*
X119895284Y-52575454D01*
X119899353Y-52554996D01*
X119936531Y-52465235D01*
X120005229Y-52396535D01*
X120094986Y-52359354D01*
X120094989Y-52359353D01*
X120094996Y-52359353D01*
X120115454Y-52355284D01*
X120164027Y-52350500D01*
X122645973Y-52350500D01*
X122694549Y-52355284D01*
X122715006Y-52359353D01*
X122804766Y-52396532D01*
X122873465Y-52465231D01*
X122910645Y-52554990D01*
X122910646Y-52554992D01*
X122916153Y-52582678D01*
X122919848Y-52607990D01*
X122921264Y-52623079D01*
X122921673Y-52631817D01*
X122923731Y-52640536D01*
X122927585Y-52649648D01*
X122962729Y-52750086D01*
X122967207Y-52762882D01*
X123047850Y-52872150D01*
X123157118Y-52952793D01*
X123285301Y-52997646D01*
X123298550Y-52998888D01*
X123308372Y-53000500D01*
X124524271Y-53000500D01*
X124541633Y-53000500D01*
X124554693Y-52997646D01*
X124554699Y-52997646D01*
X124682882Y-52952793D01*
X124792150Y-52872150D01*
X124854213Y-52788055D01*
X124886907Y-52751814D01*
X124902329Y-52737770D01*
X124985543Y-52687626D01*
X125081613Y-52673144D01*
X125175909Y-52696528D01*
X125185045Y-52700823D01*
X125255164Y-52750086D01*
X125282215Y-52777137D01*
X125282217Y-52777138D01*
X125282218Y-52777139D01*
X125446086Y-52886632D01*
X125628165Y-52962051D01*
X125628167Y-52962051D01*
X125628169Y-52962052D01*
X125807111Y-52997646D01*
X125821459Y-53000500D01*
X126018541Y-53000500D01*
X126211835Y-52962051D01*
X126393914Y-52886632D01*
X126557782Y-52777139D01*
X126681093Y-52653827D01*
X126718817Y-52622868D01*
X126732864Y-52613481D01*
X126822620Y-52576301D01*
X126919775Y-52576299D01*
X127009536Y-52613477D01*
X127078236Y-52682175D01*
X127114759Y-52770343D01*
X127115418Y-52771933D01*
X127115418Y-52771937D01*
X127118713Y-52788498D01*
X127123500Y-52837087D01*
X127123500Y-55891613D01*
X127118715Y-55940193D01*
X127114207Y-55962855D01*
X127077026Y-56052614D01*
X127064192Y-56071821D01*
X127033228Y-56109552D01*
X121385067Y-61757712D01*
X121347335Y-61788677D01*
X121329994Y-61800264D01*
X121240235Y-61837444D01*
X121143080Y-61837445D01*
X121053347Y-61800284D01*
X121049796Y-61797912D01*
X120990558Y-61742437D01*
X120985948Y-61736429D01*
X120967855Y-61709350D01*
X120949606Y-61677742D01*
X120949603Y-61677736D01*
X120940511Y-61661988D01*
X120940510Y-61661987D01*
X120940509Y-61661985D01*
X120838015Y-61559491D01*
X120838012Y-61559489D01*
X120838011Y-61559488D01*
X120712487Y-61487017D01*
X120712482Y-61487015D01*
X120712477Y-61487013D01*
X120572475Y-61449500D01*
X120427525Y-61449500D01*
X120427522Y-61449500D01*
X120287520Y-61487014D01*
X120287509Y-61487018D01*
X120226601Y-61522182D01*
X120226352Y-61522327D01*
X120161988Y-61559488D01*
X120159392Y-61561479D01*
X120148035Y-61568120D01*
X120147059Y-61566847D01*
X120124910Y-61581642D01*
X120118480Y-61585402D01*
X120079469Y-61598883D01*
X120041340Y-61614671D01*
X120033789Y-61614670D01*
X120026654Y-61617136D01*
X119985480Y-61614664D01*
X119944195Y-61614660D01*
X119922563Y-61610355D01*
X119875881Y-61596192D01*
X119843135Y-61582629D01*
X119834255Y-61578429D01*
X119739031Y-61559488D01*
X119638545Y-61539500D01*
X119638543Y-61539500D01*
X119441449Y-61539500D01*
X119248172Y-61577946D01*
X119248170Y-61577946D01*
X119248169Y-61577947D01*
X119248164Y-61577949D01*
X119197624Y-61598883D01*
X119066088Y-61653366D01*
X119066086Y-61653367D01*
X119066077Y-61653373D01*
X118902226Y-61762853D01*
X118762853Y-61902226D01*
X118653373Y-62066077D01*
X118653367Y-62066086D01*
X118653366Y-62066088D01*
X118643381Y-62090195D01*
X118608523Y-62174352D01*
X118577946Y-62248172D01*
X118539500Y-62441449D01*
X118539500Y-62441454D01*
X118539500Y-62638545D01*
X118576342Y-62823760D01*
X118578429Y-62834253D01*
X118582631Y-62843138D01*
X118616357Y-62924565D01*
X118630524Y-62971269D01*
X118634282Y-62990161D01*
X118634282Y-63014691D01*
X118635309Y-63019854D01*
X118634282Y-63025014D01*
X118634283Y-63087316D01*
X118597104Y-63177075D01*
X118528406Y-63245775D01*
X118438651Y-63282954D01*
X118419751Y-63286714D01*
X118371167Y-63291500D01*
X115311855Y-63291500D01*
X115222709Y-63315385D01*
X115142790Y-63361527D01*
X113362911Y-65141406D01*
X113325176Y-65172374D01*
X113311130Y-65181759D01*
X113221370Y-65218937D01*
X113124215Y-65218936D01*
X113034456Y-65181755D01*
X112965757Y-65113056D01*
X112928580Y-65023301D01*
X112923111Y-64995807D01*
X112922366Y-64990794D01*
X112920496Y-64981438D01*
X112920518Y-64981433D01*
X112920450Y-64981208D01*
X112882052Y-64788169D01*
X112882051Y-64788167D01*
X112882051Y-64788165D01*
X112882047Y-64788155D01*
X112881017Y-64785150D01*
X112878688Y-64780047D01*
X112806632Y-64606086D01*
X112697139Y-64442218D01*
X112557782Y-64302861D01*
X112555378Y-64301255D01*
X112437257Y-64222329D01*
X112393914Y-64193368D01*
X112393911Y-64193366D01*
X112393908Y-64193365D01*
X112211835Y-64117949D01*
X112211830Y-64117947D01*
X112211826Y-64117946D01*
X112018549Y-64079500D01*
X112018545Y-64079500D01*
X112018541Y-64079500D01*
X111821459Y-64079500D01*
X111821454Y-64079500D01*
X111821449Y-64079500D01*
X111628172Y-64117946D01*
X111628170Y-64117946D01*
X111628169Y-64117947D01*
X111628164Y-64117949D01*
X111606214Y-64127041D01*
X111446088Y-64193366D01*
X111446086Y-64193367D01*
X111446077Y-64193373D01*
X111282226Y-64302853D01*
X111142853Y-64442226D01*
X111033373Y-64606077D01*
X111033367Y-64606086D01*
X111033366Y-64606088D01*
X111033365Y-64606091D01*
X110959198Y-64785150D01*
X110957946Y-64788172D01*
X110919500Y-64981449D01*
X110919500Y-65178547D01*
X110951949Y-65341674D01*
X110955535Y-65365851D01*
X110959915Y-65410329D01*
X110950391Y-65507016D01*
X110950388Y-65507024D01*
X110949104Y-65511256D01*
X110910823Y-65587300D01*
X110903980Y-65596526D01*
X110880057Y-65624258D01*
X110278374Y-66225942D01*
X110278371Y-66225946D01*
X110234047Y-66302720D01*
X110234004Y-66302795D01*
X110232788Y-66304899D01*
X110232227Y-66305870D01*
X110208344Y-66395008D01*
X110208344Y-66395011D01*
X110208344Y-68487300D01*
X110208343Y-68487300D01*
X110221518Y-68536467D01*
X110223452Y-68557749D01*
X110222895Y-68562988D01*
X110224069Y-68562311D01*
X110275492Y-68651379D01*
X110278371Y-68656364D01*
X110278372Y-68656365D01*
X110278374Y-68656368D01*
X111249265Y-69627259D01*
X112179097Y-70557091D01*
X112210060Y-70594820D01*
X112219443Y-70608862D01*
X112256624Y-70698620D01*
X112256627Y-70795775D01*
X112219449Y-70885536D01*
X112150751Y-70954236D01*
X112061002Y-70991416D01*
X112044432Y-70994713D01*
X111995840Y-70999500D01*
X111821449Y-70999500D01*
X111628172Y-71037946D01*
X111628170Y-71037946D01*
X111628169Y-71037947D01*
X111628164Y-71037949D01*
X111559042Y-71066580D01*
X111446088Y-71113366D01*
X111446086Y-71113367D01*
X111446077Y-71113373D01*
X111282226Y-71222853D01*
X111282219Y-71222859D01*
X111142863Y-71362214D01*
X111142858Y-71362220D01*
X111142858Y-71362221D01*
X111120695Y-71395391D01*
X111050465Y-71500498D01*
X111035911Y-71520121D01*
X111007541Y-71554691D01*
X110932443Y-71616325D01*
X110932441Y-71616325D01*
X110932440Y-71616327D01*
X110932438Y-71616327D01*
X110928550Y-71618406D01*
X110847722Y-71645113D01*
X110836342Y-71646802D01*
X110799786Y-71649500D01*
X105624027Y-71649500D01*
X105575442Y-71644714D01*
X105554984Y-71640644D01*
X105465226Y-71603462D01*
X105396529Y-71534761D01*
X105377928Y-71489851D01*
X105359353Y-71445003D01*
X105355284Y-71424545D01*
X105350500Y-71375972D01*
X105350500Y-67953853D01*
X105327553Y-67868217D01*
X105326614Y-67864712D01*
X105314528Y-67843779D01*
X105280469Y-67784788D01*
X105215212Y-67719531D01*
X105169066Y-67692888D01*
X105138353Y-67675155D01*
X105135291Y-67673387D01*
X105135288Y-67673386D01*
X105135287Y-67673385D01*
X105135285Y-67673384D01*
X105135284Y-67673384D01*
X105046149Y-67649500D01*
X105046147Y-67649500D01*
X105046144Y-67649500D01*
X94544027Y-67649500D01*
X94495442Y-67644714D01*
X94474984Y-67640644D01*
X94385226Y-67603462D01*
X94316529Y-67534761D01*
X94279352Y-67445000D01*
X94279352Y-67444997D01*
X94275284Y-67424545D01*
X94270500Y-67375972D01*
X94270500Y-62427523D01*
X107949500Y-62427523D01*
X107949500Y-62572475D01*
X107987013Y-62712476D01*
X107987013Y-62712477D01*
X107987015Y-62712482D01*
X107987017Y-62712487D01*
X108059488Y-62838011D01*
X108059489Y-62838012D01*
X108059491Y-62838015D01*
X108161985Y-62940509D01*
X108161987Y-62940510D01*
X108161988Y-62940511D01*
X108163375Y-62941511D01*
X108168430Y-62944230D01*
X108201685Y-62963430D01*
X108287515Y-63012984D01*
X108427525Y-63050500D01*
X108572474Y-63050500D01*
X108572475Y-63050500D01*
X108712485Y-63012984D01*
X108838015Y-62940509D01*
X108838910Y-62939822D01*
X108875489Y-62909800D01*
X108894701Y-62896964D01*
X108900543Y-62894545D01*
X108984449Y-62859793D01*
X108984460Y-62859790D01*
X108984464Y-62859790D01*
X109007112Y-62855285D01*
X109055690Y-62850500D01*
X109291758Y-62850500D01*
X109340332Y-62855284D01*
X109418070Y-62870746D01*
X109433935Y-62874445D01*
X109433940Y-62874445D01*
X109433942Y-62874446D01*
X109433943Y-62874447D01*
X109437867Y-62875498D01*
X109461309Y-62881779D01*
X109461311Y-62881780D01*
X109461313Y-62881780D01*
X109461316Y-62881781D01*
X109493855Y-62890500D01*
X109493856Y-62890500D01*
X109493857Y-62890500D01*
X109586144Y-62890500D01*
X110444310Y-62890500D01*
X110492890Y-62895285D01*
X110515552Y-62899793D01*
X110605298Y-62936964D01*
X110624508Y-62949799D01*
X110661530Y-62980181D01*
X110663378Y-62981513D01*
X110668437Y-62984235D01*
X110718225Y-63012979D01*
X110718228Y-63012982D01*
X110718229Y-63012982D01*
X110765550Y-63040302D01*
X110787515Y-63052984D01*
X110927525Y-63090500D01*
X110928935Y-63090500D01*
X110977507Y-63095283D01*
X110983248Y-63096424D01*
X111000169Y-63099790D01*
X111089928Y-63136968D01*
X111096982Y-63141681D01*
X111106063Y-63147749D01*
X111143787Y-63178708D01*
X111282218Y-63317139D01*
X111446086Y-63426632D01*
X111628165Y-63502051D01*
X111628167Y-63502051D01*
X111628169Y-63502052D01*
X111816453Y-63539504D01*
X111816452Y-63539505D01*
X111816467Y-63539506D01*
X111821459Y-63540500D01*
X112018541Y-63540500D01*
X112211835Y-63502051D01*
X112393914Y-63426632D01*
X112557782Y-63317139D01*
X112697139Y-63177782D01*
X112806632Y-63013914D01*
X112882051Y-62831835D01*
X112920500Y-62638541D01*
X112920500Y-62441459D01*
X112918320Y-62430500D01*
X112882052Y-62248169D01*
X112882051Y-62248167D01*
X112882051Y-62248165D01*
X112882048Y-62248159D01*
X112881784Y-62246829D01*
X112878688Y-62240047D01*
X112806632Y-62066086D01*
X112697139Y-61902218D01*
X112557782Y-61762861D01*
X112557770Y-61762853D01*
X112538534Y-61750000D01*
X112430392Y-61677742D01*
X112393914Y-61653368D01*
X112393911Y-61653366D01*
X112393909Y-61653365D01*
X112393907Y-61653364D01*
X112391030Y-61651956D01*
X112385755Y-61649987D01*
X112211835Y-61577949D01*
X112211830Y-61577947D01*
X112211826Y-61577946D01*
X112018549Y-61539500D01*
X112018545Y-61539500D01*
X112018541Y-61539500D01*
X111821459Y-61539500D01*
X111821454Y-61539500D01*
X111821449Y-61539500D01*
X111628172Y-61577946D01*
X111628170Y-61577946D01*
X111628169Y-61577947D01*
X111628164Y-61577949D01*
X111577624Y-61598883D01*
X111446088Y-61653366D01*
X111446086Y-61653367D01*
X111446077Y-61653373D01*
X111296954Y-61753012D01*
X111296946Y-61753019D01*
X111282221Y-61762858D01*
X111282218Y-61762860D01*
X111282218Y-61762861D01*
X111251206Y-61793872D01*
X111251188Y-61793889D01*
X111158334Y-61886744D01*
X111140221Y-61903159D01*
X111109119Y-61928682D01*
X111023439Y-61974476D01*
X111009253Y-61978779D01*
X110936976Y-61989500D01*
X110927522Y-61989500D01*
X110787520Y-62027014D01*
X110787507Y-62027019D01*
X110680028Y-62089071D01*
X110680017Y-62089078D01*
X110661988Y-62099488D01*
X110661987Y-62099489D01*
X110661985Y-62099490D01*
X110661985Y-62099491D01*
X110651741Y-62109734D01*
X110619544Y-62133254D01*
X110618807Y-62133595D01*
X110618255Y-62134189D01*
X110611005Y-62139221D01*
X110605309Y-62143027D01*
X110541856Y-62169311D01*
X110531418Y-62174156D01*
X110530019Y-62174214D01*
X110515553Y-62180207D01*
X110492892Y-62184715D01*
X110444310Y-62189500D01*
X109742226Y-62189500D01*
X109705413Y-62186764D01*
X109673711Y-62182025D01*
X109646084Y-62176278D01*
X109627448Y-62171285D01*
X109627443Y-62171282D01*
X109627443Y-62171284D01*
X109546144Y-62149500D01*
X109055690Y-62149500D01*
X109007110Y-62144715D01*
X108984448Y-62140207D01*
X108971081Y-62134670D01*
X108894691Y-62103028D01*
X108875485Y-62090195D01*
X108849846Y-62069154D01*
X108849840Y-62069162D01*
X108849835Y-62069158D01*
X108849660Y-62069002D01*
X108838872Y-62060148D01*
X108838014Y-62059490D01*
X108830476Y-62055138D01*
X108712487Y-61987017D01*
X108712482Y-61987015D01*
X108712477Y-61987013D01*
X108572475Y-61949500D01*
X108427525Y-61949500D01*
X108427522Y-61949500D01*
X108287520Y-61987014D01*
X108287511Y-61987017D01*
X108161989Y-62059487D01*
X108059487Y-62161989D01*
X107987017Y-62287511D01*
X107987013Y-62287521D01*
X107987013Y-62287522D01*
X107949500Y-62427523D01*
X94270500Y-62427523D01*
X94270500Y-62126370D01*
X94275283Y-62077800D01*
X94278924Y-62059491D01*
X94279790Y-62055136D01*
X94281590Y-62050792D01*
X94316963Y-61965383D01*
X94319424Y-61961700D01*
X94378132Y-61900035D01*
X94384836Y-61895064D01*
X94384835Y-61895063D01*
X94412134Y-61874818D01*
X94422125Y-61867782D01*
X94557776Y-61777143D01*
X94557775Y-61777143D01*
X94557782Y-61777139D01*
X94697139Y-61637782D01*
X94806632Y-61473914D01*
X94882051Y-61291835D01*
X94920500Y-61098541D01*
X94920500Y-60901510D01*
X97920000Y-60901510D01*
X97920000Y-61098489D01*
X97958429Y-61291689D01*
X97958430Y-61291692D01*
X98030429Y-61465512D01*
X98032405Y-61470808D01*
X98033808Y-61473672D01*
X98033810Y-61473675D01*
X98033811Y-61473677D01*
X98057425Y-61509019D01*
X98284312Y-61282131D01*
X98365091Y-61228158D01*
X98460379Y-61209204D01*
X98555667Y-61228158D01*
X98636445Y-61282131D01*
X98637866Y-61283552D01*
X98691840Y-61364331D01*
X98710794Y-61459619D01*
X98691840Y-61554907D01*
X98637865Y-61635687D01*
X98637862Y-61635689D01*
X98637860Y-61635691D01*
X98410978Y-61862572D01*
X98410979Y-61862572D01*
X98410979Y-61862573D01*
X98446322Y-61886189D01*
X98446324Y-61886190D01*
X98446339Y-61886196D01*
X98446347Y-61886200D01*
X98628305Y-61961569D01*
X98628306Y-61961569D01*
X98628308Y-61961570D01*
X98821511Y-62000000D01*
X99018487Y-62000000D01*
X99018489Y-62000000D01*
X99211691Y-61961570D01*
X99330271Y-61912453D01*
X99393669Y-61886193D01*
X99393675Y-61886190D01*
X99393674Y-61886190D01*
X99393682Y-61886187D01*
X99429019Y-61862574D01*
X99202134Y-61635689D01*
X99148159Y-61554908D01*
X99129205Y-61459620D01*
X99148159Y-61364332D01*
X99202132Y-61283553D01*
X99203553Y-61282132D01*
X99284332Y-61228159D01*
X99379620Y-61209205D01*
X99474908Y-61228159D01*
X99555690Y-61282135D01*
X99782573Y-61509018D01*
X99782574Y-61509019D01*
X99806187Y-61473682D01*
X99806191Y-61473673D01*
X99806193Y-61473669D01*
X99881569Y-61291693D01*
X99881568Y-61291693D01*
X99881570Y-61291691D01*
X99920000Y-61098489D01*
X99920000Y-60901510D01*
X99881570Y-60708308D01*
X99881514Y-60708172D01*
X99806200Y-60526347D01*
X99806196Y-60526339D01*
X99806190Y-60526324D01*
X99806189Y-60526322D01*
X99782573Y-60490979D01*
X99782572Y-60490978D01*
X99555690Y-60717859D01*
X99555688Y-60717863D01*
X99474906Y-60771839D01*
X99379618Y-60790793D01*
X99379617Y-60790792D01*
X99379617Y-60790793D01*
X99284329Y-60771839D01*
X99203551Y-60717865D01*
X99202131Y-60716445D01*
X99148158Y-60635667D01*
X99129204Y-60540379D01*
X99148158Y-60445091D01*
X99202130Y-60364313D01*
X99429019Y-60137425D01*
X99429016Y-60137423D01*
X99410508Y-60125057D01*
X99393677Y-60113811D01*
X99393675Y-60113810D01*
X99393672Y-60113808D01*
X99390808Y-60112405D01*
X99385512Y-60110429D01*
X99211692Y-60038430D01*
X99211690Y-60038429D01*
X99211689Y-60038429D01*
X99018489Y-60000000D01*
X99018486Y-60000000D01*
X98821513Y-60000000D01*
X98821511Y-60000000D01*
X98691521Y-60025856D01*
X98628307Y-60038430D01*
X98628306Y-60038431D01*
X98446326Y-60113808D01*
X98446318Y-60113812D01*
X98410979Y-60137423D01*
X98410979Y-60137424D01*
X98637867Y-60364312D01*
X98691841Y-60445091D01*
X98710795Y-60540379D01*
X98691841Y-60635667D01*
X98637865Y-60716449D01*
X98636449Y-60717865D01*
X98555667Y-60771841D01*
X98460379Y-60790795D01*
X98365091Y-60771841D01*
X98284312Y-60717867D01*
X98057424Y-60490979D01*
X98057423Y-60490979D01*
X98033812Y-60526318D01*
X98033808Y-60526326D01*
X97958431Y-60708306D01*
X97958431Y-60708308D01*
X97958429Y-60708313D01*
X97920000Y-60901510D01*
X94920500Y-60901510D01*
X94920500Y-60901459D01*
X94909390Y-60845606D01*
X94908763Y-60842454D01*
X94908757Y-60842419D01*
X94882052Y-60708169D01*
X94882051Y-60708166D01*
X94882051Y-60708165D01*
X94806632Y-60526086D01*
X94771772Y-60473915D01*
X94771771Y-60473913D01*
X94710057Y-60381551D01*
X94705831Y-60374277D01*
X94697142Y-60362222D01*
X94697140Y-60362220D01*
X94697139Y-60362218D01*
X94557782Y-60222861D01*
X94557778Y-60222858D01*
X94419390Y-60130390D01*
X94399707Y-60115788D01*
X94365251Y-60087494D01*
X94303639Y-60012374D01*
X94303635Y-60012367D01*
X94301544Y-60008452D01*
X94274870Y-59927645D01*
X94273190Y-59916308D01*
X94270500Y-59879808D01*
X94270500Y-59395718D01*
X110919500Y-59395718D01*
X110919500Y-60604273D01*
X110919782Y-60607290D01*
X110919783Y-60607297D01*
X110922353Y-60634695D01*
X110922353Y-60634697D01*
X110922354Y-60634699D01*
X110932349Y-60663263D01*
X110948112Y-60708313D01*
X110967207Y-60762882D01*
X111047850Y-60872150D01*
X111157118Y-60952793D01*
X111285301Y-60997646D01*
X111298550Y-60998888D01*
X111308372Y-61000500D01*
X112524271Y-61000500D01*
X112541633Y-61000500D01*
X112554693Y-60997646D01*
X112554699Y-60997646D01*
X112682882Y-60952793D01*
X112792150Y-60872150D01*
X112872793Y-60762882D01*
X112917646Y-60634699D01*
X112920500Y-60604266D01*
X112920500Y-59395734D01*
X112917646Y-59365301D01*
X112872793Y-59237118D01*
X112792150Y-59127850D01*
X112682883Y-59047208D01*
X112682884Y-59047208D01*
X112682882Y-59047207D01*
X112682880Y-59047206D01*
X112624442Y-59026758D01*
X112569645Y-59007583D01*
X112569644Y-59007583D01*
X112560536Y-59003731D01*
X112551818Y-59001673D01*
X112543094Y-59001265D01*
X112531861Y-59000211D01*
X112524274Y-58999500D01*
X112524273Y-58999500D01*
X112524266Y-58999500D01*
X111315734Y-58999500D01*
X111315726Y-58999500D01*
X111315718Y-58999500D01*
X111285310Y-59002351D01*
X111285307Y-59002352D01*
X111157121Y-59047205D01*
X111157119Y-59047205D01*
X111157111Y-59047211D01*
X111047856Y-59127844D01*
X111047844Y-59127856D01*
X110967211Y-59237111D01*
X110967205Y-59237119D01*
X110967205Y-59237121D01*
X110923433Y-59362219D01*
X110922352Y-59365307D01*
X110922351Y-59365310D01*
X110919500Y-59395718D01*
X94270500Y-59395718D01*
X94270500Y-57624027D01*
X94275284Y-57575454D01*
X94279353Y-57554996D01*
X94316531Y-57465235D01*
X94385229Y-57396535D01*
X94474986Y-57359354D01*
X94474989Y-57359353D01*
X94474996Y-57359353D01*
X94495454Y-57355284D01*
X94544027Y-57350500D01*
X97966143Y-57350500D01*
X97966147Y-57350500D01*
X98032996Y-57332586D01*
X98033003Y-57332586D01*
X98033003Y-57332585D01*
X98040430Y-57330594D01*
X98055288Y-57326614D01*
X98135212Y-57280469D01*
X98200469Y-57215212D01*
X98246614Y-57135288D01*
X98254576Y-57105573D01*
X98270500Y-57046146D01*
X98270500Y-51474027D01*
X98275284Y-51425454D01*
X98279353Y-51404996D01*
X98316531Y-51315235D01*
X98385229Y-51246535D01*
X98474986Y-51209354D01*
X98474989Y-51209353D01*
X98474996Y-51209353D01*
X98495454Y-51205284D01*
X98544027Y-51200500D01*
X98741633Y-51200500D01*
X98754693Y-51197646D01*
X98754699Y-51197646D01*
X98882882Y-51152793D01*
X98992150Y-51072150D01*
X99072793Y-50962882D01*
X99117646Y-50834699D01*
X99120500Y-50804266D01*
X99120500Y-49905562D01*
X101720000Y-49905562D01*
X101720000Y-50094437D01*
X101720001Y-50094452D01*
X101748102Y-50271879D01*
X101748104Y-50271896D01*
X101749546Y-50280999D01*
X101807911Y-50460629D01*
X101807918Y-50460646D01*
X101893654Y-50628912D01*
X101893666Y-50628933D01*
X101893672Y-50628944D01*
X101912115Y-50654328D01*
X101912116Y-50654328D01*
X102213602Y-50352841D01*
X102294381Y-50298868D01*
X102389669Y-50279914D01*
X102484957Y-50298868D01*
X102565735Y-50352841D01*
X102567156Y-50354262D01*
X102621130Y-50435041D01*
X102640084Y-50530329D01*
X102621130Y-50625617D01*
X102567155Y-50706397D01*
X102567152Y-50706399D01*
X102567150Y-50706401D01*
X102265670Y-51007882D01*
X102265670Y-51007883D01*
X102291058Y-51026328D01*
X102291071Y-51026336D01*
X102371941Y-51067541D01*
X102459353Y-51112081D01*
X102459360Y-51112084D01*
X102459367Y-51112087D01*
X102638996Y-51170451D01*
X102638997Y-51170452D01*
X102713618Y-51182270D01*
X102825547Y-51199998D01*
X102825562Y-51200000D01*
X102825564Y-51200000D01*
X103014438Y-51200000D01*
X103014440Y-51200000D01*
X103014440Y-51199999D01*
X103014452Y-51199998D01*
X103189455Y-51172280D01*
X103200999Y-51170452D01*
X103201001Y-51170452D01*
X103380632Y-51112087D01*
X103380644Y-51112081D01*
X103548934Y-51026333D01*
X103574328Y-51007882D01*
X103429709Y-50863263D01*
X103272848Y-50706401D01*
X103272846Y-50706400D01*
X103272843Y-50706397D01*
X103218869Y-50625617D01*
X103199915Y-50530329D01*
X103218869Y-50435041D01*
X103272840Y-50354265D01*
X103274265Y-50352840D01*
X103355041Y-50298869D01*
X103450329Y-50279915D01*
X103545617Y-50298869D01*
X103626397Y-50352843D01*
X103626400Y-50352846D01*
X103626401Y-50352848D01*
X103927881Y-50654327D01*
X103927882Y-50654328D01*
X103946333Y-50628934D01*
X104032081Y-50460644D01*
X104032087Y-50460632D01*
X104090452Y-50281001D01*
X104090452Y-50280998D01*
X104119998Y-50094452D01*
X104120000Y-50094437D01*
X104120000Y-49905562D01*
X104119998Y-49905547D01*
X104093518Y-49738358D01*
X104093518Y-49738353D01*
X104090452Y-49718999D01*
X104090452Y-49718998D01*
X104032087Y-49539367D01*
X104032081Y-49539354D01*
X103946336Y-49371071D01*
X103946328Y-49371058D01*
X103927883Y-49345670D01*
X103927882Y-49345670D01*
X103626401Y-49647150D01*
X103626399Y-49647152D01*
X103626397Y-49647155D01*
X103545617Y-49701130D01*
X103450329Y-49720084D01*
X103355041Y-49701130D01*
X103274262Y-49647156D01*
X103272841Y-49645735D01*
X103218868Y-49564957D01*
X103199914Y-49469669D01*
X103218868Y-49374381D01*
X103272841Y-49293602D01*
X103574328Y-48992116D01*
X103574328Y-48992115D01*
X103548944Y-48973672D01*
X103548933Y-48973666D01*
X103548912Y-48973654D01*
X103380646Y-48887918D01*
X103380634Y-48887913D01*
X103380632Y-48887912D01*
X103380629Y-48887911D01*
X103201002Y-48829547D01*
X103201001Y-48829546D01*
X103014457Y-48800001D01*
X103014441Y-48800000D01*
X103014438Y-48800000D01*
X102825562Y-48800000D01*
X102825546Y-48800000D01*
X102679322Y-48823160D01*
X102658358Y-48826481D01*
X102658346Y-48826482D01*
X102638999Y-48829546D01*
X102459363Y-48887913D01*
X102459362Y-48887913D01*
X102459357Y-48887915D01*
X102291074Y-48973661D01*
X102291065Y-48973666D01*
X102291047Y-48973678D01*
X102265670Y-48992114D01*
X102265670Y-48992115D01*
X102567157Y-49293602D01*
X102621131Y-49374381D01*
X102640085Y-49469669D01*
X102621131Y-49564957D01*
X102567155Y-49645739D01*
X102565739Y-49647155D01*
X102484957Y-49701131D01*
X102389669Y-49720085D01*
X102294381Y-49701131D01*
X102213602Y-49647157D01*
X101912115Y-49345670D01*
X101912114Y-49345670D01*
X101893678Y-49371047D01*
X101893666Y-49371065D01*
X101893661Y-49371074D01*
X101807915Y-49539357D01*
X101807913Y-49539362D01*
X101807913Y-49539363D01*
X101749546Y-49718999D01*
X101746732Y-49736766D01*
X101746716Y-49736873D01*
X101720001Y-49905547D01*
X101720000Y-49905562D01*
X99120500Y-49905562D01*
X99120500Y-49195734D01*
X99120498Y-49195718D01*
X99118175Y-49170944D01*
X99118175Y-49170940D01*
X99117647Y-49165304D01*
X99117646Y-49165301D01*
X99072793Y-49037118D01*
X98992150Y-48927850D01*
X98938036Y-48887912D01*
X98882884Y-48847208D01*
X98882877Y-48847204D01*
X98827898Y-48827967D01*
X98769649Y-48807585D01*
X98760538Y-48803731D01*
X98751818Y-48801673D01*
X98743094Y-48801265D01*
X98731861Y-48800211D01*
X98724274Y-48799500D01*
X98724273Y-48799500D01*
X98724266Y-48799500D01*
X98544027Y-48799500D01*
X98495442Y-48794714D01*
X98474984Y-48790644D01*
X98385226Y-48753462D01*
X98316529Y-48684761D01*
X98312561Y-48675180D01*
X98279353Y-48595003D01*
X98275284Y-48574545D01*
X98270500Y-48525972D01*
X98270500Y-48124027D01*
X98275284Y-48075454D01*
X98279353Y-48054996D01*
X98316531Y-47965235D01*
X98385229Y-47896535D01*
X98474986Y-47859354D01*
X98474989Y-47859353D01*
X98474996Y-47859353D01*
X98495454Y-47855284D01*
X98544027Y-47850500D01*
X109926473Y-47850500D01*
X109975049Y-47855284D01*
G37*
%TD.AperFunction*%
%TA.AperFunction,Conductor*%
G36*
X109893412Y-34355283D02*
G01*
X109899153Y-34356424D01*
X109916081Y-34359792D01*
X109950614Y-34374096D01*
X110005833Y-34396968D01*
X110005840Y-34396973D01*
X110025047Y-34409807D01*
X110062778Y-34440771D01*
X126179097Y-50557089D01*
X126210065Y-50594824D01*
X126220044Y-50609759D01*
X126218510Y-50610783D01*
X126234246Y-50643934D01*
X126255401Y-50688447D01*
X126255403Y-50688502D01*
X126255427Y-50688551D01*
X126257897Y-50737412D01*
X126260348Y-50785476D01*
X126260330Y-50785526D01*
X126260333Y-50785582D01*
X126243746Y-50832149D01*
X126227788Y-50877012D01*
X126227751Y-50877052D01*
X126227733Y-50877105D01*
X126195311Y-50912980D01*
X126162677Y-50949121D01*
X126162625Y-50949145D01*
X126162590Y-50949185D01*
X126074927Y-50990823D01*
X126070562Y-50991925D01*
X126009611Y-50999500D01*
X125821454Y-50999500D01*
X125628730Y-51037836D01*
X125575035Y-51042568D01*
X125565788Y-51042377D01*
X125565200Y-51042322D01*
X125564831Y-51042358D01*
X125560391Y-51042267D01*
X125556797Y-51041475D01*
X125556590Y-51041504D01*
X125553234Y-51041185D01*
X125553280Y-51040700D01*
X125515922Y-51032467D01*
X125470651Y-51023544D01*
X125468139Y-51022509D01*
X125466485Y-51021573D01*
X125465512Y-51021359D01*
X125462975Y-51019587D01*
X125430568Y-51001252D01*
X125429731Y-51002579D01*
X125428983Y-51002107D01*
X125420728Y-50995685D01*
X125414511Y-50992168D01*
X125414126Y-50991882D01*
X125414753Y-50991037D01*
X125413775Y-50990276D01*
X125413131Y-50991145D01*
X125403471Y-50983980D01*
X125375739Y-50960058D01*
X117941653Y-43525972D01*
X115237212Y-40821530D01*
X115237209Y-40821528D01*
X115237208Y-40821527D01*
X115157290Y-40775386D01*
X115068144Y-40751500D01*
X113088293Y-40751500D01*
X113039714Y-40746715D01*
X113020812Y-40742955D01*
X112931052Y-40705775D01*
X112862354Y-40637075D01*
X112825175Y-40547316D01*
X112825175Y-40450171D01*
X112828937Y-40431253D01*
X112843100Y-40384565D01*
X112881570Y-40291691D01*
X112920000Y-40098489D01*
X112920000Y-39901510D01*
X112881570Y-39708308D01*
X112881569Y-39708305D01*
X112806200Y-39526347D01*
X112806196Y-39526339D01*
X112806190Y-39526324D01*
X112806189Y-39526322D01*
X112782573Y-39490979D01*
X112782572Y-39490978D01*
X112555690Y-39717859D01*
X112555688Y-39717863D01*
X112474906Y-39771839D01*
X112379618Y-39790793D01*
X112379617Y-39790792D01*
X112379617Y-39790793D01*
X112284329Y-39771839D01*
X112203551Y-39717865D01*
X112202130Y-39716444D01*
X112148157Y-39635666D01*
X112129203Y-39540378D01*
X112148157Y-39445090D01*
X112202128Y-39364314D01*
X112429018Y-39137425D01*
X112393677Y-39113811D01*
X112393675Y-39113810D01*
X112393672Y-39113808D01*
X112390804Y-39112403D01*
X112385510Y-39110428D01*
X112211692Y-39038430D01*
X112211690Y-39038429D01*
X112211689Y-39038429D01*
X112018489Y-39000000D01*
X112018486Y-39000000D01*
X111821513Y-39000000D01*
X111821511Y-39000000D01*
X111691521Y-39025856D01*
X111628307Y-39038430D01*
X111628306Y-39038431D01*
X111446326Y-39113808D01*
X111446318Y-39113812D01*
X111410979Y-39137423D01*
X111410979Y-39137424D01*
X111637867Y-39364312D01*
X111691841Y-39445091D01*
X111710795Y-39540379D01*
X111691841Y-39635667D01*
X111637865Y-39716449D01*
X111636450Y-39717864D01*
X111555668Y-39771840D01*
X111460380Y-39790794D01*
X111365092Y-39771840D01*
X111365091Y-39771839D01*
X111284311Y-39717865D01*
X111246366Y-39679920D01*
X111009040Y-39442594D01*
X111009038Y-39442592D01*
X111009035Y-39442590D01*
X110994288Y-39431653D01*
X110996390Y-39428817D01*
X110984331Y-39418919D01*
X110945811Y-39387307D01*
X110938100Y-39377909D01*
X110895567Y-39302203D01*
X110873559Y-39239308D01*
X110872834Y-39237174D01*
X110872791Y-39237116D01*
X110799215Y-39137423D01*
X110792154Y-39127855D01*
X110792152Y-39127853D01*
X110792150Y-39127850D01*
X110773128Y-39113811D01*
X110682884Y-39047208D01*
X110682877Y-39047204D01*
X110627898Y-39027967D01*
X110569649Y-39007585D01*
X110560538Y-39003731D01*
X110551818Y-39001673D01*
X110543094Y-39001265D01*
X110529605Y-39000000D01*
X110524274Y-38999500D01*
X110524273Y-38999500D01*
X110524266Y-38999500D01*
X109315734Y-38999500D01*
X109315726Y-38999500D01*
X109315718Y-38999500D01*
X109285310Y-39002351D01*
X109285307Y-39002352D01*
X109157121Y-39047205D01*
X109157119Y-39047205D01*
X109157111Y-39047211D01*
X109047856Y-39127844D01*
X109047844Y-39127856D01*
X108967211Y-39237111D01*
X108967205Y-39237119D01*
X108967205Y-39237121D01*
X108922352Y-39365307D01*
X108922351Y-39365310D01*
X108919500Y-39395718D01*
X108919500Y-40477972D01*
X108914714Y-40526557D01*
X108910644Y-40547015D01*
X108873462Y-40636773D01*
X108804761Y-40705470D01*
X108715017Y-40742644D01*
X108694560Y-40746714D01*
X108645973Y-40751500D01*
X98874849Y-40751500D01*
X98826269Y-40746715D01*
X98803607Y-40742207D01*
X98713848Y-40705026D01*
X98694641Y-40692192D01*
X98656910Y-40661228D01*
X92788593Y-34792911D01*
X92757630Y-34755182D01*
X92748245Y-34741137D01*
X92711063Y-34651379D01*
X92711061Y-34554224D01*
X92748239Y-34464463D01*
X92816937Y-34395763D01*
X92906693Y-34358581D01*
X92906698Y-34358580D01*
X92906703Y-34358580D01*
X92923274Y-34355284D01*
X92971849Y-34350500D01*
X109844840Y-34350500D01*
X109893412Y-34355283D01*
G37*
%TD.AperFunction*%
%TD*%
%TA.AperFunction,Conductor*%
%TO.N,/GND_STAR*%
G36*
X69596288Y-12518954D02*
G01*
X69677070Y-12572930D01*
X69731046Y-12653712D01*
X69750000Y-12749000D01*
X69750000Y-14400500D01*
X69731046Y-14495788D01*
X69677070Y-14576570D01*
X69596288Y-14630546D01*
X69501000Y-14649500D01*
X22953853Y-14649500D01*
X22864712Y-14673385D01*
X22784788Y-14719531D01*
X22719531Y-14784788D01*
X22673385Y-14864712D01*
X22649500Y-14953853D01*
X22649500Y-92046146D01*
X22673385Y-92135287D01*
X22673386Y-92135288D01*
X22719531Y-92215212D01*
X22784788Y-92280469D01*
X22864712Y-92326614D01*
X22953853Y-92350500D01*
X22953856Y-92350500D01*
X23046144Y-92350500D01*
X61388837Y-92350500D01*
X61484125Y-92369454D01*
X61564903Y-92423427D01*
X61581985Y-92440509D01*
X61707515Y-92512984D01*
X61847525Y-92550500D01*
X61992474Y-92550500D01*
X61992475Y-92550500D01*
X62132485Y-92512984D01*
X62258015Y-92440509D01*
X62360509Y-92338015D01*
X62432984Y-92212485D01*
X62470500Y-92072475D01*
X62470500Y-91927525D01*
X62432984Y-91787515D01*
X62360509Y-91661985D01*
X62258015Y-91559491D01*
X62258012Y-91559489D01*
X62258011Y-91559488D01*
X62132487Y-91487017D01*
X62132482Y-91487015D01*
X61992475Y-91449500D01*
X61847525Y-91449500D01*
X61707517Y-91487015D01*
X61707512Y-91487017D01*
X61581988Y-91559488D01*
X61581987Y-91559489D01*
X61581985Y-91559490D01*
X61581985Y-91559491D01*
X61564903Y-91576572D01*
X61484125Y-91630546D01*
X61388837Y-91649500D01*
X23599500Y-91649500D01*
X23504212Y-91630546D01*
X23423430Y-91576570D01*
X23369454Y-91495788D01*
X23350500Y-91400500D01*
X23350500Y-35901454D01*
X26419500Y-35901454D01*
X26419500Y-36098545D01*
X26457947Y-36291830D01*
X26457949Y-36291835D01*
X26533365Y-36473908D01*
X26533366Y-36473911D01*
X26533368Y-36473914D01*
X26642861Y-36637782D01*
X26782218Y-36777139D01*
X26946086Y-36886632D01*
X27128165Y-36962051D01*
X27175892Y-36971544D01*
X27265648Y-37008723D01*
X27273673Y-37014316D01*
X27289810Y-37026040D01*
X27290801Y-37026760D01*
X27459168Y-37112547D01*
X27638882Y-37170940D01*
X27825519Y-37200500D01*
X27825523Y-37200500D01*
X28014477Y-37200500D01*
X28014481Y-37200500D01*
X28201118Y-37170940D01*
X28380832Y-37112547D01*
X28549199Y-37026760D01*
X28566323Y-37014317D01*
X28654548Y-36973641D01*
X28664081Y-36971549D01*
X28711835Y-36962051D01*
X28893914Y-36886632D01*
X29057782Y-36777139D01*
X29197139Y-36637782D01*
X29306632Y-36473914D01*
X29382051Y-36291835D01*
X29420500Y-36098541D01*
X29420500Y-35901459D01*
X29420499Y-35901454D01*
X34019500Y-35901454D01*
X34019500Y-36098545D01*
X34057947Y-36291830D01*
X34057949Y-36291835D01*
X34133365Y-36473908D01*
X34133366Y-36473911D01*
X34133368Y-36473914D01*
X34242861Y-36637782D01*
X34382218Y-36777139D01*
X34546086Y-36886632D01*
X34728165Y-36962051D01*
X34775892Y-36971544D01*
X34865648Y-37008723D01*
X34873673Y-37014316D01*
X34889810Y-37026040D01*
X34890801Y-37026760D01*
X35059168Y-37112547D01*
X35238882Y-37170940D01*
X35425519Y-37200500D01*
X46873649Y-37200500D01*
X46968937Y-37219454D01*
X47049719Y-37273430D01*
X47103695Y-37354212D01*
X47121561Y-37426250D01*
X47122353Y-37434696D01*
X47122353Y-37434698D01*
X47122354Y-37434699D01*
X47167207Y-37562882D01*
X47247850Y-37672150D01*
X47357118Y-37752793D01*
X47485301Y-37797646D01*
X47515727Y-37800499D01*
X47515729Y-37800500D01*
X47515734Y-37800500D01*
X50324271Y-37800500D01*
X50324272Y-37800499D01*
X50354699Y-37797646D01*
X50482882Y-37752793D01*
X50592150Y-37672150D01*
X50672793Y-37562882D01*
X50717646Y-37434699D01*
X50720500Y-37404266D01*
X50720500Y-34595734D01*
X50717646Y-34565301D01*
X50672793Y-34437118D01*
X50592150Y-34327850D01*
X50482882Y-34247207D01*
X50482880Y-34247206D01*
X50427898Y-34227967D01*
X50354699Y-34202354D01*
X50354697Y-34202353D01*
X50354695Y-34202353D01*
X50324273Y-34199500D01*
X50324266Y-34199500D01*
X47515734Y-34199500D01*
X47515726Y-34199500D01*
X47485304Y-34202353D01*
X47357119Y-34247206D01*
X47357116Y-34247208D01*
X47247853Y-34327847D01*
X47247847Y-34327853D01*
X47167208Y-34437116D01*
X47167206Y-34437119D01*
X47122353Y-34565303D01*
X47121561Y-34573750D01*
X47093793Y-34666852D01*
X47032509Y-34742241D01*
X46947041Y-34788438D01*
X46873649Y-34799500D01*
X35425519Y-34799500D01*
X35425516Y-34799500D01*
X35425507Y-34799501D01*
X35238885Y-34829059D01*
X35059172Y-34887451D01*
X35059168Y-34887452D01*
X35059168Y-34887453D01*
X34890801Y-34973240D01*
X34890799Y-34973241D01*
X34890794Y-34973244D01*
X34873665Y-34985689D01*
X34785434Y-35026362D01*
X34775891Y-35028455D01*
X34728166Y-35037948D01*
X34546087Y-35113367D01*
X34546084Y-35113369D01*
X34382221Y-35222858D01*
X34242858Y-35362221D01*
X34133369Y-35526084D01*
X34133365Y-35526091D01*
X34057949Y-35708164D01*
X34057947Y-35708169D01*
X34019500Y-35901454D01*
X29420499Y-35901454D01*
X29382051Y-35708165D01*
X29306632Y-35526086D01*
X29197139Y-35362218D01*
X29197137Y-35362216D01*
X29197135Y-35362213D01*
X29193423Y-35358501D01*
X29190509Y-35354140D01*
X29189380Y-35352764D01*
X29189515Y-35352652D01*
X29139450Y-35277718D01*
X29120500Y-35182439D01*
X29120500Y-32449500D01*
X29139454Y-32354212D01*
X29193430Y-32273430D01*
X29274212Y-32219454D01*
X29369500Y-32200500D01*
X59094477Y-32200500D01*
X59094481Y-32200500D01*
X59281118Y-32170940D01*
X59460832Y-32112547D01*
X59629199Y-32026760D01*
X59782073Y-31915690D01*
X59915690Y-31782073D01*
X60026760Y-31629199D01*
X60112547Y-31460832D01*
X60170940Y-31281118D01*
X60200500Y-31094481D01*
X60200500Y-23119021D01*
X60209774Y-23060502D01*
X60207671Y-23059998D01*
X60209956Y-23050479D01*
X60240498Y-22857640D01*
X60240500Y-22857629D01*
X60240500Y-21142375D01*
X62839500Y-21142375D01*
X62839500Y-22857624D01*
X62839501Y-22857640D01*
X62870042Y-23050471D01*
X62870044Y-23050479D01*
X62870045Y-23050484D01*
X62930383Y-23236187D01*
X63019029Y-23410164D01*
X63133799Y-23568132D01*
X63271868Y-23706201D01*
X63429836Y-23820971D01*
X63603813Y-23909617D01*
X63789516Y-23969955D01*
X63789527Y-23969956D01*
X63789528Y-23969957D01*
X63885943Y-23985227D01*
X63982371Y-24000500D01*
X63982375Y-24000500D01*
X64177625Y-24000500D01*
X64177629Y-24000500D01*
X64370484Y-23969955D01*
X64556187Y-23909617D01*
X64730164Y-23820971D01*
X64888132Y-23706201D01*
X65026201Y-23568132D01*
X65140971Y-23410164D01*
X65229617Y-23236187D01*
X65289955Y-23050484D01*
X65320500Y-22857629D01*
X65320500Y-21142371D01*
X65295297Y-20983242D01*
X65289957Y-20949528D01*
X65289956Y-20949527D01*
X65289955Y-20949516D01*
X65229617Y-20763813D01*
X65140971Y-20589836D01*
X65026201Y-20431868D01*
X64888132Y-20293799D01*
X64730164Y-20179029D01*
X64556187Y-20090383D01*
X64556176Y-20090379D01*
X64370490Y-20030047D01*
X64370484Y-20030045D01*
X64370479Y-20030044D01*
X64370471Y-20030042D01*
X64177640Y-19999501D01*
X64177631Y-19999500D01*
X64177629Y-19999500D01*
X63982371Y-19999500D01*
X63982368Y-19999500D01*
X63982359Y-19999501D01*
X63789528Y-20030042D01*
X63789517Y-20030044D01*
X63789516Y-20030045D01*
X63789513Y-20030045D01*
X63789509Y-20030047D01*
X63603823Y-20090379D01*
X63603812Y-20090383D01*
X63429836Y-20179029D01*
X63271870Y-20293797D01*
X63133797Y-20431870D01*
X63019029Y-20589836D01*
X62930383Y-20763812D01*
X62930379Y-20763823D01*
X62870047Y-20949509D01*
X62870042Y-20949528D01*
X62839501Y-21142359D01*
X62839500Y-21142375D01*
X60240500Y-21142375D01*
X60240500Y-21142371D01*
X60215297Y-20983242D01*
X60209957Y-20949528D01*
X60209956Y-20949527D01*
X60209955Y-20949516D01*
X60149617Y-20763813D01*
X60060971Y-20589836D01*
X59946201Y-20431868D01*
X59808132Y-20293799D01*
X59650164Y-20179029D01*
X59476187Y-20090383D01*
X59476176Y-20090379D01*
X59290490Y-20030047D01*
X59290484Y-20030045D01*
X59290479Y-20030044D01*
X59290471Y-20030042D01*
X59097640Y-19999501D01*
X59097631Y-19999500D01*
X59097629Y-19999500D01*
X58902371Y-19999500D01*
X58902368Y-19999500D01*
X58902359Y-19999501D01*
X58709528Y-20030042D01*
X58709517Y-20030044D01*
X58709516Y-20030045D01*
X58709513Y-20030045D01*
X58709509Y-20030047D01*
X58523823Y-20090379D01*
X58523812Y-20090383D01*
X58349836Y-20179029D01*
X58191870Y-20293797D01*
X58053797Y-20431870D01*
X57939029Y-20589836D01*
X57850383Y-20763812D01*
X57850379Y-20763823D01*
X57790047Y-20949509D01*
X57790042Y-20949528D01*
X57759501Y-21142359D01*
X57759500Y-21142375D01*
X57759500Y-22857624D01*
X57759501Y-22857640D01*
X57790043Y-23050479D01*
X57792329Y-23059998D01*
X57790225Y-23060502D01*
X57799500Y-23119021D01*
X57799500Y-29550500D01*
X57780546Y-29645788D01*
X57726570Y-29726570D01*
X57645788Y-29780546D01*
X57550500Y-29799500D01*
X28014481Y-29799500D01*
X27825519Y-29799500D01*
X27825516Y-29799500D01*
X27825507Y-29799501D01*
X27638885Y-29829059D01*
X27459172Y-29887451D01*
X27459168Y-29887452D01*
X27459168Y-29887453D01*
X27290801Y-29973240D01*
X27290800Y-29973241D01*
X27137931Y-30084306D01*
X27004306Y-30217931D01*
X26893241Y-30370800D01*
X26807451Y-30539172D01*
X26749059Y-30718885D01*
X26719501Y-30905507D01*
X26719500Y-30905523D01*
X26719500Y-35182439D01*
X26700546Y-35277727D01*
X26650484Y-35352652D01*
X26650620Y-35352764D01*
X26649491Y-35354139D01*
X26646577Y-35358501D01*
X26642864Y-35362213D01*
X26642860Y-35362219D01*
X26533369Y-35526084D01*
X26533365Y-35526091D01*
X26457949Y-35708164D01*
X26457947Y-35708169D01*
X26419500Y-35901454D01*
X23350500Y-35901454D01*
X23350500Y-15599500D01*
X23369454Y-15504212D01*
X23423430Y-15423430D01*
X23504212Y-15369454D01*
X23599500Y-15350500D01*
X26539615Y-15350500D01*
X26634903Y-15369454D01*
X26715685Y-15423430D01*
X26769661Y-15504212D01*
X26788615Y-15599500D01*
X26769661Y-15694788D01*
X26715685Y-15775570D01*
X26634903Y-15829546D01*
X26616560Y-15836313D01*
X26459172Y-15887451D01*
X26459168Y-15887452D01*
X26459168Y-15887453D01*
X26290801Y-15973240D01*
X26290800Y-15973241D01*
X26137931Y-16084306D01*
X26004306Y-16217931D01*
X25893241Y-16370800D01*
X25807451Y-16539172D01*
X25749059Y-16718885D01*
X25719501Y-16905507D01*
X25719500Y-16905523D01*
X25719500Y-20216835D01*
X25705528Y-20299071D01*
X25691989Y-20337764D01*
X25682352Y-20365305D01*
X25679500Y-20395725D01*
X25679500Y-23604260D01*
X25679501Y-23604273D01*
X25682353Y-23634697D01*
X25682354Y-23634700D01*
X25727207Y-23762883D01*
X25807850Y-23872150D01*
X25917117Y-23952793D01*
X26045300Y-23997646D01*
X26075733Y-24000500D01*
X27764266Y-24000499D01*
X27794700Y-23997646D01*
X27922883Y-23952793D01*
X28032150Y-23872150D01*
X28112793Y-23762883D01*
X28157646Y-23634700D01*
X28160500Y-23604267D01*
X28160499Y-21142375D01*
X30759500Y-21142375D01*
X30759500Y-22857624D01*
X30759501Y-22857640D01*
X30790042Y-23050471D01*
X30790044Y-23050479D01*
X30790045Y-23050484D01*
X30850383Y-23236187D01*
X30939029Y-23410164D01*
X31053799Y-23568132D01*
X31191868Y-23706201D01*
X31349836Y-23820971D01*
X31523813Y-23909617D01*
X31709516Y-23969955D01*
X31709527Y-23969956D01*
X31709528Y-23969957D01*
X31805943Y-23985227D01*
X31902371Y-24000500D01*
X31902375Y-24000500D01*
X32097625Y-24000500D01*
X32097629Y-24000500D01*
X32290484Y-23969955D01*
X32476187Y-23909617D01*
X32650164Y-23820971D01*
X32808132Y-23706201D01*
X32946201Y-23568132D01*
X33060971Y-23410164D01*
X33149617Y-23236187D01*
X33209955Y-23050484D01*
X33240500Y-22857629D01*
X33240500Y-21142371D01*
X33215297Y-20983242D01*
X33209957Y-20949528D01*
X33209956Y-20949527D01*
X33209955Y-20949516D01*
X33149617Y-20763813D01*
X33060971Y-20589836D01*
X32946201Y-20431868D01*
X32808132Y-20293799D01*
X32650164Y-20179029D01*
X32476187Y-20090383D01*
X32476176Y-20090379D01*
X32290490Y-20030047D01*
X32290484Y-20030045D01*
X32290479Y-20030044D01*
X32290471Y-20030042D01*
X32097640Y-19999501D01*
X32097631Y-19999500D01*
X32097629Y-19999500D01*
X31902371Y-19999500D01*
X31902368Y-19999500D01*
X31902359Y-19999501D01*
X31709528Y-20030042D01*
X31709517Y-20030044D01*
X31709516Y-20030045D01*
X31709513Y-20030045D01*
X31709509Y-20030047D01*
X31523823Y-20090379D01*
X31523812Y-20090383D01*
X31349836Y-20179029D01*
X31191870Y-20293797D01*
X31053797Y-20431870D01*
X30939029Y-20589836D01*
X30850383Y-20763812D01*
X30850379Y-20763823D01*
X30790047Y-20949509D01*
X30790042Y-20949528D01*
X30759501Y-21142359D01*
X30759500Y-21142375D01*
X28160499Y-21142375D01*
X28160499Y-20395734D01*
X28157646Y-20365300D01*
X28134473Y-20299074D01*
X28120500Y-20216835D01*
X28120500Y-18449500D01*
X28139454Y-18354212D01*
X28193430Y-18273430D01*
X28274212Y-18219454D01*
X28369500Y-18200500D01*
X52470500Y-18200500D01*
X52565788Y-18219454D01*
X52646570Y-18273430D01*
X52700546Y-18354212D01*
X52719500Y-18449500D01*
X52719500Y-20216835D01*
X52705528Y-20299071D01*
X52691989Y-20337764D01*
X52682352Y-20365305D01*
X52679500Y-20395725D01*
X52679500Y-23604260D01*
X52679501Y-23604273D01*
X52682353Y-23634697D01*
X52682354Y-23634700D01*
X52727207Y-23762883D01*
X52807850Y-23872150D01*
X52917117Y-23952793D01*
X53045300Y-23997646D01*
X53075733Y-24000500D01*
X54764266Y-24000499D01*
X54794700Y-23997646D01*
X54922883Y-23952793D01*
X55032150Y-23872150D01*
X55112793Y-23762883D01*
X55157646Y-23634700D01*
X55160500Y-23604267D01*
X55160499Y-20395734D01*
X55157646Y-20365300D01*
X55134473Y-20299074D01*
X55120500Y-20216835D01*
X55120500Y-16905523D01*
X55120498Y-16905507D01*
X55090940Y-16718885D01*
X55090940Y-16718882D01*
X55032547Y-16539168D01*
X54946760Y-16370801D01*
X54835690Y-16217927D01*
X54702073Y-16084310D01*
X54702069Y-16084307D01*
X54702068Y-16084306D01*
X54661005Y-16054472D01*
X54549199Y-15973240D01*
X54380832Y-15887453D01*
X54380829Y-15887452D01*
X54380827Y-15887451D01*
X54223440Y-15836313D01*
X54138673Y-15788841D01*
X54078524Y-15712544D01*
X54052153Y-15619037D01*
X54063572Y-15522555D01*
X54111044Y-15437788D01*
X54187341Y-15377639D01*
X54280848Y-15351268D01*
X54300385Y-15350500D01*
X69501000Y-15350500D01*
X69596288Y-15369454D01*
X69677070Y-15423430D01*
X69731046Y-15504212D01*
X69750000Y-15599500D01*
X69750000Y-19786613D01*
X69731046Y-19881901D01*
X69677070Y-19962683D01*
X69596288Y-20016659D01*
X69501000Y-20035613D01*
X69460231Y-20030787D01*
X69460029Y-20032063D01*
X69410000Y-20024138D01*
X69410000Y-21345879D01*
X69364182Y-21326901D01*
X69228944Y-21300000D01*
X69091056Y-21300000D01*
X68955818Y-21326901D01*
X68910000Y-21345879D01*
X68910000Y-20024139D01*
X68909999Y-20024138D01*
X68869637Y-20030531D01*
X68869634Y-20030532D01*
X68684009Y-20090845D01*
X68683999Y-20090849D01*
X68510107Y-20179452D01*
X68510100Y-20179456D01*
X68352192Y-20294182D01*
X68214182Y-20432192D01*
X68099456Y-20590100D01*
X68099452Y-20590107D01*
X68010849Y-20763999D01*
X68010845Y-20764009D01*
X67950532Y-20949635D01*
X67920000Y-21142400D01*
X67920000Y-21749999D01*
X67920001Y-21750000D01*
X68505879Y-21750000D01*
X68486901Y-21795818D01*
X68460000Y-21931056D01*
X68460000Y-22068944D01*
X68486901Y-22204182D01*
X68505879Y-22250000D01*
X67920001Y-22250000D01*
X67920000Y-22250001D01*
X67920000Y-22857599D01*
X67950532Y-23050364D01*
X68010845Y-23235990D01*
X68010849Y-23236000D01*
X68099452Y-23409892D01*
X68099456Y-23409899D01*
X68214182Y-23567807D01*
X68352192Y-23705817D01*
X68510100Y-23820543D01*
X68510107Y-23820547D01*
X68683999Y-23909150D01*
X68684009Y-23909154D01*
X68869624Y-23969464D01*
X68910000Y-23975859D01*
X68910000Y-22654120D01*
X68955818Y-22673099D01*
X69091056Y-22700000D01*
X69228944Y-22700000D01*
X69364182Y-22673099D01*
X69410000Y-22654120D01*
X69410000Y-23975859D01*
X69460029Y-23967936D01*
X69460447Y-23970575D01*
X69539947Y-23967451D01*
X69631098Y-24001076D01*
X69702442Y-24067024D01*
X69743119Y-24155253D01*
X69750000Y-24213386D01*
X69750000Y-30550500D01*
X69731046Y-30645788D01*
X69677070Y-30726570D01*
X69596288Y-30780546D01*
X69501000Y-30799500D01*
X68014481Y-30799500D01*
X67825519Y-30799500D01*
X67825516Y-30799500D01*
X67825507Y-30799501D01*
X67638885Y-30829059D01*
X67459172Y-30887451D01*
X67459168Y-30887452D01*
X67459168Y-30887453D01*
X67290801Y-30973240D01*
X67290800Y-30973241D01*
X67137931Y-31084306D01*
X67004306Y-31217931D01*
X66893241Y-31370800D01*
X66807451Y-31539172D01*
X66749059Y-31718885D01*
X66719501Y-31905507D01*
X66719500Y-31905523D01*
X66719500Y-34550500D01*
X66700546Y-34645788D01*
X66646570Y-34726570D01*
X66565788Y-34780546D01*
X66470500Y-34799500D01*
X65608931Y-34799500D01*
X65513643Y-34780546D01*
X65432861Y-34726570D01*
X65349702Y-34643411D01*
X65349699Y-34643408D01*
X65162450Y-34499727D01*
X65162440Y-34499721D01*
X64958054Y-34381718D01*
X64958043Y-34381713D01*
X64837222Y-34331667D01*
X64739993Y-34291394D01*
X64512014Y-34230307D01*
X64512007Y-34230306D01*
X64278011Y-34199500D01*
X64041989Y-34199500D01*
X63807992Y-34230306D01*
X63807990Y-34230306D01*
X63807986Y-34230307D01*
X63635640Y-34276487D01*
X63580010Y-34291393D01*
X63580007Y-34291394D01*
X63361956Y-34381713D01*
X63361945Y-34381718D01*
X63157559Y-34499721D01*
X63157549Y-34499727D01*
X62970301Y-34643408D01*
X62970297Y-34643411D01*
X62803411Y-34810297D01*
X62803408Y-34810301D01*
X62659727Y-34997549D01*
X62659721Y-34997559D01*
X62541718Y-35201945D01*
X62541713Y-35201956D01*
X62475330Y-35362221D01*
X62451394Y-35420007D01*
X62390307Y-35647986D01*
X62359500Y-35881989D01*
X62359500Y-36118011D01*
X62390307Y-36352014D01*
X62451394Y-36579993D01*
X62475331Y-36637782D01*
X62541713Y-36798043D01*
X62541718Y-36798054D01*
X62641883Y-36971543D01*
X62659727Y-37002450D01*
X62803408Y-37189699D01*
X62970301Y-37356592D01*
X63157550Y-37500273D01*
X63157559Y-37500278D01*
X63361945Y-37618281D01*
X63361948Y-37618282D01*
X63361951Y-37618284D01*
X63580007Y-37708606D01*
X63807986Y-37769693D01*
X64041989Y-37800500D01*
X64278011Y-37800500D01*
X64512014Y-37769693D01*
X64739993Y-37708606D01*
X64958049Y-37618284D01*
X65162450Y-37500273D01*
X65349699Y-37356592D01*
X65432861Y-37273430D01*
X65513643Y-37219454D01*
X65608931Y-37200500D01*
X66470500Y-37200500D01*
X66565788Y-37219454D01*
X66646570Y-37273430D01*
X66700546Y-37354212D01*
X66719500Y-37449500D01*
X66719500Y-41050500D01*
X66700546Y-41145788D01*
X66646570Y-41226570D01*
X66565788Y-41280546D01*
X66470500Y-41299500D01*
X30014481Y-41299500D01*
X29825519Y-41299500D01*
X29825516Y-41299500D01*
X29825507Y-41299501D01*
X29638885Y-41329059D01*
X29459172Y-41387451D01*
X29459168Y-41387452D01*
X29459168Y-41387453D01*
X29290801Y-41473240D01*
X29290800Y-41473241D01*
X29137931Y-41584306D01*
X29004306Y-41717931D01*
X28893241Y-41870800D01*
X28807451Y-42039172D01*
X28749059Y-42218885D01*
X28719501Y-42405507D01*
X28719500Y-42405523D01*
X28719500Y-52553061D01*
X28700546Y-52648349D01*
X28657944Y-52712107D01*
X28658931Y-52712836D01*
X28567208Y-52837116D01*
X28567206Y-52837119D01*
X28522353Y-52965305D01*
X28519500Y-52995727D01*
X28519500Y-55004258D01*
X28519501Y-55004270D01*
X28522353Y-55034697D01*
X28567206Y-55162880D01*
X28567207Y-55162882D01*
X28647850Y-55272150D01*
X28658931Y-55287164D01*
X28657944Y-55287892D01*
X28700546Y-55351651D01*
X28719500Y-55446939D01*
X28719500Y-66444480D01*
X28700546Y-66539768D01*
X28646570Y-66620550D01*
X28565788Y-66674526D01*
X28470500Y-66693480D01*
X28393558Y-66681294D01*
X28247954Y-66633986D01*
X28247951Y-66633985D01*
X28247948Y-66633984D01*
X28247938Y-66633982D01*
X28030232Y-66599501D01*
X28030225Y-66599500D01*
X28030222Y-66599500D01*
X27809778Y-66599500D01*
X27809775Y-66599500D01*
X27809767Y-66599501D01*
X27592061Y-66633982D01*
X27592054Y-66633984D01*
X27592052Y-66633984D01*
X27592049Y-66633985D01*
X27382394Y-66702105D01*
X27382392Y-66702105D01*
X27382392Y-66702106D01*
X27382383Y-66702109D01*
X27185986Y-66802179D01*
X27185979Y-66802184D01*
X27007633Y-66931759D01*
X26851759Y-67087633D01*
X26722184Y-67265979D01*
X26722179Y-67265986D01*
X26622109Y-67462383D01*
X26622105Y-67462392D01*
X26622105Y-67462394D01*
X26553985Y-67672049D01*
X26553984Y-67672052D01*
X26553984Y-67672054D01*
X26553982Y-67672061D01*
X26519501Y-67889767D01*
X26519500Y-67889782D01*
X26519500Y-68110217D01*
X26519501Y-68110232D01*
X26553982Y-68327938D01*
X26553984Y-68327945D01*
X26553985Y-68327951D01*
X26622105Y-68537606D01*
X26622106Y-68537607D01*
X26622109Y-68537616D01*
X26722179Y-68734013D01*
X26722183Y-68734019D01*
X26722185Y-68734022D01*
X26851758Y-68912365D01*
X27007635Y-69068242D01*
X27185978Y-69197815D01*
X27185981Y-69197816D01*
X27185986Y-69197820D01*
X27382383Y-69297890D01*
X27382386Y-69297891D01*
X27382394Y-69297895D01*
X27592049Y-69366015D01*
X27592060Y-69366016D01*
X27592061Y-69366017D01*
X27606760Y-69368345D01*
X27809778Y-69400500D01*
X27809782Y-69400500D01*
X28030218Y-69400500D01*
X28030222Y-69400500D01*
X28247951Y-69366015D01*
X28457606Y-69297895D01*
X28482912Y-69285001D01*
X28654013Y-69197820D01*
X28654015Y-69197818D01*
X28654022Y-69197815D01*
X28832365Y-69068242D01*
X28898926Y-69001681D01*
X28979707Y-68947704D01*
X29074995Y-68928749D01*
X29170284Y-68947702D01*
X29221352Y-68976302D01*
X29290801Y-69026760D01*
X29459168Y-69112547D01*
X29638882Y-69170940D01*
X29825519Y-69200500D01*
X29825523Y-69200500D01*
X30014477Y-69200500D01*
X30014481Y-69200500D01*
X30201118Y-69170940D01*
X30380832Y-69112547D01*
X30549199Y-69026760D01*
X30702073Y-68915690D01*
X30835690Y-68782073D01*
X30946760Y-68629199D01*
X31032547Y-68460832D01*
X31090940Y-68281118D01*
X31120500Y-68094481D01*
X31120500Y-55446939D01*
X31139454Y-55351651D01*
X31146979Y-55335200D01*
X31170684Y-55287992D01*
X31192150Y-55272150D01*
X31272793Y-55162882D01*
X31317646Y-55034698D01*
X31320500Y-55004265D01*
X31320499Y-53889808D01*
X36020000Y-53889808D01*
X36020000Y-54110191D01*
X36054472Y-54327831D01*
X36122566Y-54537406D01*
X36122569Y-54537413D01*
X36222614Y-54733761D01*
X36222616Y-54733764D01*
X36268931Y-54797513D01*
X36855387Y-54211057D01*
X36860889Y-54231591D01*
X36939881Y-54368408D01*
X37051592Y-54480119D01*
X37188409Y-54559111D01*
X37208940Y-54564612D01*
X36622486Y-55151067D01*
X36686236Y-55197384D01*
X36882586Y-55297430D01*
X36882593Y-55297433D01*
X37092168Y-55365527D01*
X37309808Y-55399999D01*
X37309821Y-55400000D01*
X37530179Y-55400000D01*
X37530191Y-55399999D01*
X37747831Y-55365527D01*
X37957406Y-55297433D01*
X37957413Y-55297430D01*
X38153763Y-55197384D01*
X38217512Y-55151067D01*
X38217512Y-55151066D01*
X37967900Y-54901454D01*
X64919500Y-54901454D01*
X64919500Y-55098545D01*
X64957947Y-55291830D01*
X64957949Y-55291835D01*
X65033365Y-55473908D01*
X65033366Y-55473911D01*
X65033368Y-55473914D01*
X65142861Y-55637782D01*
X65282218Y-55777139D01*
X65446086Y-55886632D01*
X65628165Y-55962051D01*
X65628167Y-55962051D01*
X65628169Y-55962052D01*
X65816453Y-55999504D01*
X65821459Y-56000500D01*
X66018541Y-56000500D01*
X66211835Y-55962051D01*
X66393914Y-55886632D01*
X66557782Y-55777139D01*
X66697139Y-55637782D01*
X66806632Y-55473914D01*
X66882051Y-55291835D01*
X66920500Y-55098541D01*
X66920500Y-54901459D01*
X66899824Y-54797513D01*
X66882052Y-54708169D01*
X66882051Y-54708167D01*
X66882051Y-54708165D01*
X66806632Y-54526086D01*
X66697139Y-54362218D01*
X66557782Y-54222861D01*
X66393914Y-54113368D01*
X66393911Y-54113366D01*
X66393908Y-54113365D01*
X66211835Y-54037949D01*
X66211830Y-54037947D01*
X66018545Y-53999500D01*
X66018541Y-53999500D01*
X65821459Y-53999500D01*
X65821454Y-53999500D01*
X65628169Y-54037947D01*
X65628164Y-54037949D01*
X65446091Y-54113365D01*
X65446084Y-54113369D01*
X65282221Y-54222858D01*
X65142858Y-54362221D01*
X65033369Y-54526084D01*
X65033365Y-54526091D01*
X64957949Y-54708164D01*
X64957947Y-54708169D01*
X64919500Y-54901454D01*
X37967900Y-54901454D01*
X37631059Y-54564612D01*
X37651591Y-54559111D01*
X37788408Y-54480119D01*
X37900119Y-54368408D01*
X37979111Y-54231591D01*
X37984612Y-54211059D01*
X38571066Y-54797512D01*
X38571067Y-54797512D01*
X38610770Y-54742867D01*
X38610771Y-54742865D01*
X38610773Y-54742863D01*
X38617385Y-54733762D01*
X38717430Y-54537413D01*
X38717433Y-54537406D01*
X38785527Y-54327831D01*
X38819999Y-54110191D01*
X38820000Y-54110179D01*
X38820000Y-53889820D01*
X38819999Y-53889808D01*
X38785527Y-53672168D01*
X38717433Y-53462593D01*
X38717430Y-53462586D01*
X38617384Y-53266236D01*
X38571067Y-53202486D01*
X37984612Y-53788940D01*
X37979111Y-53768409D01*
X37900119Y-53631592D01*
X37788408Y-53519881D01*
X37651591Y-53440889D01*
X37631057Y-53435387D01*
X38217513Y-52848931D01*
X38153764Y-52802616D01*
X38153761Y-52802614D01*
X37957413Y-52702569D01*
X37957406Y-52702566D01*
X37747831Y-52634472D01*
X37530191Y-52600000D01*
X37309808Y-52600000D01*
X37092168Y-52634472D01*
X36882593Y-52702566D01*
X36882576Y-52702574D01*
X36686243Y-52802611D01*
X36686232Y-52802617D01*
X36622486Y-52848931D01*
X37208942Y-53435387D01*
X37188409Y-53440889D01*
X37051592Y-53519881D01*
X36939881Y-53631592D01*
X36860889Y-53768409D01*
X36855387Y-53788942D01*
X36268931Y-53202486D01*
X36222617Y-53266232D01*
X36222611Y-53266243D01*
X36122574Y-53462576D01*
X36122566Y-53462593D01*
X36054472Y-53672168D01*
X36020000Y-53889808D01*
X31320499Y-53889808D01*
X31320499Y-52995736D01*
X31317646Y-52965302D01*
X31272793Y-52837118D01*
X31192150Y-52727850D01*
X31170685Y-52712008D01*
X31146979Y-52664799D01*
X31144543Y-52655966D01*
X31139454Y-52648349D01*
X31131709Y-52609413D01*
X31121157Y-52571139D01*
X31122287Y-52562046D01*
X31120500Y-52553061D01*
X31120500Y-49901454D01*
X43919500Y-49901454D01*
X43919500Y-50098545D01*
X43957947Y-50291830D01*
X43957949Y-50291835D01*
X44033365Y-50473908D01*
X44033366Y-50473911D01*
X44033368Y-50473914D01*
X44088490Y-50556410D01*
X44138626Y-50631445D01*
X44142861Y-50637782D01*
X44282218Y-50777139D01*
X44446086Y-50886632D01*
X44628165Y-50962051D01*
X44628167Y-50962051D01*
X44628169Y-50962052D01*
X44816453Y-50999504D01*
X44821459Y-51000500D01*
X45018541Y-51000500D01*
X45211835Y-50962051D01*
X45393914Y-50886632D01*
X45557782Y-50777139D01*
X45697139Y-50637782D01*
X45806632Y-50473914D01*
X45882051Y-50291835D01*
X45920500Y-50098541D01*
X45920500Y-49901510D01*
X48920000Y-49901510D01*
X48920000Y-50098489D01*
X48958429Y-50291689D01*
X49033810Y-50473674D01*
X49033811Y-50473677D01*
X49057425Y-50509019D01*
X49520000Y-50046444D01*
X49520000Y-50052661D01*
X49547259Y-50154394D01*
X49599920Y-50245606D01*
X49674394Y-50320080D01*
X49765606Y-50372741D01*
X49867339Y-50400000D01*
X49873553Y-50400000D01*
X49410979Y-50862573D01*
X49446322Y-50886189D01*
X49446324Y-50886190D01*
X49628308Y-50961570D01*
X49821511Y-51000000D01*
X50018489Y-51000000D01*
X50211691Y-50961570D01*
X50393673Y-50886191D01*
X50393682Y-50886187D01*
X50429019Y-50862574D01*
X49966445Y-50400000D01*
X49972661Y-50400000D01*
X50074394Y-50372741D01*
X50165606Y-50320080D01*
X50240080Y-50245606D01*
X50292741Y-50154394D01*
X50320000Y-50052661D01*
X50320000Y-50046445D01*
X50782574Y-50509019D01*
X50806187Y-50473682D01*
X50806191Y-50473673D01*
X50881570Y-50291691D01*
X50920000Y-50098489D01*
X50920000Y-49901510D01*
X50881570Y-49708308D01*
X50806190Y-49526324D01*
X50806189Y-49526322D01*
X50782573Y-49490979D01*
X50320000Y-49953552D01*
X50320000Y-49947339D01*
X50292741Y-49845606D01*
X50240080Y-49754394D01*
X50165606Y-49679920D01*
X50074394Y-49627259D01*
X49972661Y-49600000D01*
X49966445Y-49600000D01*
X50429019Y-49137425D01*
X50393677Y-49113811D01*
X50393674Y-49113810D01*
X50211689Y-49038429D01*
X50018489Y-49000000D01*
X49821511Y-49000000D01*
X49628313Y-49038429D01*
X49446321Y-49113811D01*
X49410979Y-49137424D01*
X49873555Y-49600000D01*
X49867339Y-49600000D01*
X49765606Y-49627259D01*
X49674394Y-49679920D01*
X49599920Y-49754394D01*
X49547259Y-49845606D01*
X49520000Y-49947339D01*
X49520000Y-49953555D01*
X49057424Y-49490979D01*
X49033811Y-49526321D01*
X48958429Y-49708313D01*
X48920000Y-49901510D01*
X45920500Y-49901510D01*
X45920500Y-49901459D01*
X45891247Y-49754394D01*
X45882052Y-49708169D01*
X45882051Y-49708167D01*
X45882051Y-49708165D01*
X45806632Y-49526086D01*
X45697139Y-49362218D01*
X45557782Y-49222861D01*
X45393914Y-49113368D01*
X45393911Y-49113366D01*
X45393908Y-49113365D01*
X45211835Y-49037949D01*
X45211830Y-49037947D01*
X45018545Y-48999500D01*
X45018541Y-48999500D01*
X44821459Y-48999500D01*
X44821454Y-48999500D01*
X44628169Y-49037947D01*
X44628164Y-49037949D01*
X44446091Y-49113365D01*
X44446084Y-49113369D01*
X44282221Y-49222858D01*
X44142858Y-49362221D01*
X44033369Y-49526084D01*
X44033365Y-49526091D01*
X43957949Y-49708164D01*
X43957947Y-49708169D01*
X43919500Y-49901454D01*
X31120500Y-49901454D01*
X31120500Y-43949500D01*
X31139454Y-43854212D01*
X31193430Y-43773430D01*
X31274212Y-43719454D01*
X31369500Y-43700500D01*
X68014477Y-43700500D01*
X68014481Y-43700500D01*
X68201118Y-43670940D01*
X68380832Y-43612547D01*
X68549199Y-43526760D01*
X68702073Y-43415690D01*
X68835690Y-43282073D01*
X68946760Y-43129199D01*
X69032547Y-42960832D01*
X69090940Y-42781118D01*
X69120500Y-42594481D01*
X69120500Y-37446939D01*
X69139454Y-37351651D01*
X69167306Y-37301616D01*
X69184342Y-37277911D01*
X69192150Y-37272150D01*
X69272793Y-37162882D01*
X69278271Y-37147224D01*
X69298806Y-37118654D01*
X69322064Y-37096931D01*
X69342136Y-37072240D01*
X69357251Y-37064069D01*
X69369810Y-37052340D01*
X69399608Y-37041172D01*
X69427603Y-37026040D01*
X69444697Y-37024275D01*
X69460786Y-37018246D01*
X69492586Y-37019332D01*
X69524245Y-37016064D01*
X69540713Y-37020975D01*
X69557884Y-37021562D01*
X69586849Y-37034735D01*
X69617348Y-37043831D01*
X69630681Y-37054669D01*
X69646323Y-37061783D01*
X69668045Y-37085041D01*
X69692737Y-37105113D01*
X69700907Y-37120228D01*
X69712637Y-37132787D01*
X69723804Y-37162585D01*
X69738937Y-37190580D01*
X69742059Y-37211298D01*
X69746731Y-37223763D01*
X69746215Y-37238866D01*
X69750000Y-37263977D01*
X69750000Y-47175732D01*
X69731046Y-47271020D01*
X69677070Y-47351802D01*
X69596288Y-47405778D01*
X69501000Y-47424732D01*
X69481465Y-47423964D01*
X69396290Y-47417260D01*
X68902137Y-47911413D01*
X68879333Y-47826306D01*
X68820090Y-47723694D01*
X68736306Y-47639910D01*
X68633694Y-47580667D01*
X68548582Y-47557861D01*
X69042736Y-47063708D01*
X69036520Y-47059193D01*
X68882258Y-46980592D01*
X68882245Y-46980586D01*
X68717583Y-46927085D01*
X68546581Y-46900000D01*
X68373418Y-46900000D01*
X68202416Y-46927085D01*
X68202415Y-46927085D01*
X68037754Y-46980586D01*
X68037741Y-46980592D01*
X67883480Y-47059192D01*
X67883473Y-47059196D01*
X67877261Y-47063708D01*
X68371415Y-47557861D01*
X68286306Y-47580667D01*
X68183694Y-47639910D01*
X68099910Y-47723694D01*
X68040667Y-47826306D01*
X68017861Y-47911414D01*
X67523708Y-47417261D01*
X67519196Y-47423473D01*
X67519195Y-47423476D01*
X67491360Y-47478105D01*
X67467229Y-47508713D01*
X67445570Y-47541130D01*
X67437337Y-47546630D01*
X67431211Y-47554402D01*
X67397203Y-47573446D01*
X67364788Y-47595106D01*
X67355080Y-47597037D01*
X67346443Y-47601874D01*
X67307731Y-47606455D01*
X67269500Y-47614060D01*
X67259791Y-47612128D01*
X67249962Y-47613292D01*
X67212445Y-47602711D01*
X67174212Y-47595106D01*
X67165981Y-47589606D01*
X67156455Y-47586920D01*
X67125846Y-47562789D01*
X67093430Y-47541130D01*
X67087929Y-47532897D01*
X67080158Y-47526771D01*
X67061113Y-47492763D01*
X67039454Y-47460348D01*
X67037522Y-47450640D01*
X67032686Y-47442003D01*
X67020500Y-47365060D01*
X67020500Y-47080254D01*
X67017209Y-47063708D01*
X67008867Y-47021769D01*
X66964552Y-46955448D01*
X66964548Y-46955445D01*
X66898232Y-46911133D01*
X66883610Y-46908224D01*
X66839748Y-46899500D01*
X65000252Y-46899500D01*
X64965162Y-46906479D01*
X64941767Y-46911133D01*
X64875451Y-46955445D01*
X64875445Y-46955451D01*
X64831133Y-47021767D01*
X64831133Y-47021769D01*
X64819500Y-47080252D01*
X64819500Y-48919748D01*
X64823689Y-48940805D01*
X64831133Y-48978232D01*
X64875445Y-49044548D01*
X64875448Y-49044552D01*
X64875451Y-49044554D01*
X64941767Y-49088866D01*
X64941769Y-49088867D01*
X65000252Y-49100500D01*
X65000255Y-49100500D01*
X66839745Y-49100500D01*
X66839748Y-49100500D01*
X66898231Y-49088867D01*
X66964552Y-49044552D01*
X67008867Y-48978231D01*
X67020500Y-48919748D01*
X67020500Y-48634939D01*
X67039454Y-48539651D01*
X67093430Y-48458869D01*
X67174212Y-48404893D01*
X67269500Y-48385939D01*
X67364788Y-48404893D01*
X67445570Y-48458869D01*
X67491360Y-48521895D01*
X67519193Y-48576520D01*
X67523708Y-48582736D01*
X68017861Y-48088583D01*
X68040667Y-48173694D01*
X68099910Y-48276306D01*
X68183694Y-48360090D01*
X68286306Y-48419333D01*
X68371413Y-48442137D01*
X67877261Y-48936289D01*
X67877261Y-48936290D01*
X67883475Y-48940804D01*
X68037741Y-49019407D01*
X68037754Y-49019413D01*
X68202416Y-49072914D01*
X68373418Y-49099999D01*
X68373431Y-49100000D01*
X68546569Y-49100000D01*
X68546581Y-49099999D01*
X68717583Y-49072914D01*
X68717584Y-49072914D01*
X68882245Y-49019413D01*
X68882258Y-49019407D01*
X69036523Y-48940805D01*
X69042736Y-48936290D01*
X68548584Y-48442138D01*
X68633694Y-48419333D01*
X68736306Y-48360090D01*
X68820090Y-48276306D01*
X68879333Y-48173694D01*
X68902138Y-48088584D01*
X69396290Y-48582736D01*
X69481472Y-48576036D01*
X69577953Y-48587459D01*
X69662719Y-48634934D01*
X69722865Y-48711233D01*
X69749233Y-48804741D01*
X69750000Y-48824269D01*
X69750000Y-67400500D01*
X69731046Y-67495788D01*
X69677070Y-67576570D01*
X69596288Y-67630546D01*
X69501000Y-67649500D01*
X44699598Y-67649500D01*
X44604310Y-67630546D01*
X44523528Y-67576570D01*
X44469552Y-67495788D01*
X44462784Y-67477442D01*
X44457895Y-67462394D01*
X44457891Y-67462387D01*
X44457890Y-67462383D01*
X44357820Y-67265986D01*
X44357816Y-67265981D01*
X44357815Y-67265978D01*
X44228242Y-67087635D01*
X44072365Y-66931758D01*
X43894022Y-66802185D01*
X43894019Y-66802183D01*
X43894013Y-66802179D01*
X43697616Y-66702109D01*
X43697609Y-66702106D01*
X43697606Y-66702105D01*
X43487951Y-66633985D01*
X43487945Y-66633984D01*
X43487938Y-66633982D01*
X43270232Y-66599501D01*
X43270225Y-66599500D01*
X43270222Y-66599500D01*
X43049778Y-66599500D01*
X43049775Y-66599500D01*
X43049767Y-66599501D01*
X42832061Y-66633982D01*
X42832054Y-66633984D01*
X42832052Y-66633984D01*
X42832049Y-66633985D01*
X42622394Y-66702105D01*
X42622392Y-66702105D01*
X42622392Y-66702106D01*
X42622383Y-66702109D01*
X42425986Y-66802179D01*
X42425968Y-66802191D01*
X42403855Y-66818257D01*
X42315624Y-66858931D01*
X42218544Y-66862744D01*
X42127395Y-66829115D01*
X42056053Y-66763165D01*
X42015379Y-66674934D01*
X42008500Y-66616810D01*
X42008500Y-59010322D01*
X42027454Y-58915034D01*
X42081430Y-58834252D01*
X42368894Y-58546788D01*
X44412837Y-56502844D01*
X44493616Y-56448871D01*
X44513448Y-56442138D01*
X45331415Y-56442138D01*
X45360756Y-56450000D01*
X45479244Y-56450000D01*
X45508583Y-56442138D01*
X45420000Y-56353553D01*
X45331415Y-56442138D01*
X44513448Y-56442138D01*
X44524444Y-56438405D01*
X44593886Y-56419799D01*
X44696613Y-56360489D01*
X44780489Y-56276613D01*
X44805415Y-56233439D01*
X44869473Y-56160397D01*
X44941630Y-56124813D01*
X45066445Y-56000000D01*
X45773553Y-56000000D01*
X45862138Y-56088583D01*
X45870000Y-56059243D01*
X45870000Y-55940755D01*
X45862138Y-55911415D01*
X45773553Y-56000000D01*
X45066445Y-56000000D01*
X44941631Y-55875186D01*
X44927397Y-55868166D01*
X44896554Y-55857697D01*
X44884202Y-55846865D01*
X44869470Y-55839600D01*
X44847995Y-55815112D01*
X44843293Y-55810989D01*
X44839336Y-55808345D01*
X44837397Y-55805818D01*
X44823508Y-55793638D01*
X44805412Y-55766555D01*
X44799765Y-55756774D01*
X44780488Y-55723386D01*
X44696613Y-55639511D01*
X44693611Y-55637778D01*
X44593886Y-55580201D01*
X44510512Y-55557861D01*
X45331416Y-55557861D01*
X45420000Y-55646445D01*
X45508583Y-55557861D01*
X45479242Y-55550000D01*
X45360758Y-55550000D01*
X45331416Y-55557861D01*
X44510512Y-55557861D01*
X44479309Y-55549500D01*
X44360691Y-55549500D01*
X44246114Y-55580201D01*
X44246112Y-55580201D01*
X44246112Y-55580202D01*
X44143386Y-55639511D01*
X44059511Y-55723386D01*
X44000201Y-55826114D01*
X43981597Y-55895543D01*
X43938626Y-55982678D01*
X43917152Y-56007165D01*
X41377528Y-58546790D01*
X41377527Y-58546791D01*
X41331386Y-58626709D01*
X41307500Y-58715855D01*
X41307500Y-68668296D01*
X41318512Y-68709394D01*
X41318513Y-68709394D01*
X41331386Y-68757439D01*
X41377527Y-68837357D01*
X41377528Y-68837358D01*
X41377530Y-68837361D01*
X42322639Y-69782470D01*
X42322641Y-69782471D01*
X42322642Y-69782472D01*
X42402560Y-69828613D01*
X42402562Y-69828613D01*
X42402563Y-69828614D01*
X42491707Y-69852500D01*
X43828293Y-69852500D01*
X43917437Y-69828614D01*
X43997361Y-69782470D01*
X44529185Y-69250646D01*
X44734253Y-69045579D01*
X44815034Y-68991603D01*
X44910322Y-68972649D01*
X48937316Y-68972649D01*
X49032604Y-68991603D01*
X49113386Y-69045579D01*
X49167362Y-69126361D01*
X49186316Y-69221649D01*
X49167362Y-69316937D01*
X49144352Y-69359986D01*
X49033369Y-69526084D01*
X49033365Y-69526091D01*
X48957949Y-69708164D01*
X48957947Y-69708169D01*
X48919500Y-69901454D01*
X48919500Y-70098545D01*
X48957947Y-70291830D01*
X48957949Y-70291835D01*
X49033365Y-70473908D01*
X49033366Y-70473911D01*
X49033368Y-70473914D01*
X49142861Y-70637782D01*
X49282218Y-70777139D01*
X49446086Y-70886632D01*
X49628165Y-70962051D01*
X49628167Y-70962051D01*
X49628169Y-70962052D01*
X49816453Y-70999504D01*
X49821459Y-71000500D01*
X50018541Y-71000500D01*
X50211835Y-70962051D01*
X50393914Y-70886632D01*
X50557782Y-70777139D01*
X50697139Y-70637782D01*
X50806632Y-70473914D01*
X50882051Y-70291835D01*
X50920500Y-70098541D01*
X50920500Y-69901459D01*
X50882051Y-69708165D01*
X50806632Y-69526086D01*
X50701233Y-69368345D01*
X50695648Y-69359986D01*
X50658468Y-69270226D01*
X50658469Y-69173071D01*
X50695648Y-69083312D01*
X50764347Y-69014613D01*
X50854107Y-68977433D01*
X50902684Y-68972649D01*
X59097316Y-68972649D01*
X59192604Y-68991603D01*
X59273386Y-69045579D01*
X59327362Y-69126361D01*
X59346316Y-69221649D01*
X59327362Y-69316937D01*
X59304352Y-69359986D01*
X59193369Y-69526084D01*
X59193365Y-69526091D01*
X59117949Y-69708164D01*
X59117947Y-69708169D01*
X59079500Y-69901454D01*
X59079500Y-70098545D01*
X59117947Y-70291830D01*
X59117949Y-70291835D01*
X59193365Y-70473908D01*
X59193366Y-70473911D01*
X59193368Y-70473914D01*
X59302861Y-70637782D01*
X59442218Y-70777139D01*
X59606086Y-70886632D01*
X59788165Y-70962051D01*
X59788167Y-70962051D01*
X59788169Y-70962052D01*
X59976453Y-70999504D01*
X59981459Y-71000500D01*
X60178541Y-71000500D01*
X60371835Y-70962051D01*
X60553914Y-70886632D01*
X60717782Y-70777139D01*
X60857139Y-70637782D01*
X60966632Y-70473914D01*
X60966632Y-70473913D01*
X60973428Y-70463743D01*
X60975947Y-70465426D01*
X61023877Y-70407022D01*
X61109559Y-70361223D01*
X61181843Y-70350500D01*
X64914027Y-70350500D01*
X65009315Y-70369454D01*
X65090097Y-70423430D01*
X65121063Y-70461163D01*
X65205001Y-70586785D01*
X65333215Y-70714999D01*
X65483980Y-70815737D01*
X65483982Y-70815737D01*
X65483984Y-70815739D01*
X65651497Y-70885125D01*
X65651498Y-70885125D01*
X65651500Y-70885126D01*
X65829339Y-70920500D01*
X65829341Y-70920500D01*
X66010659Y-70920500D01*
X66010661Y-70920500D01*
X66188500Y-70885126D01*
X66356020Y-70815737D01*
X66506785Y-70714999D01*
X66634999Y-70586785D01*
X66735737Y-70436020D01*
X66805126Y-70268500D01*
X66840500Y-70090661D01*
X66840500Y-69909339D01*
X66805126Y-69731500D01*
X66795462Y-69708169D01*
X66735739Y-69563984D01*
X66735736Y-69563979D01*
X66710415Y-69526084D01*
X66634999Y-69413215D01*
X66619499Y-69397715D01*
X66565526Y-69316937D01*
X66546572Y-69221649D01*
X66565526Y-69126361D01*
X66619502Y-69045579D01*
X66700284Y-68991603D01*
X66795572Y-68972649D01*
X67584428Y-68972649D01*
X67679716Y-68991603D01*
X67760498Y-69045579D01*
X67814474Y-69126361D01*
X67833428Y-69221649D01*
X67814474Y-69316937D01*
X67760500Y-69397715D01*
X67745001Y-69413215D01*
X67744998Y-69413218D01*
X67644263Y-69563979D01*
X67644260Y-69563984D01*
X67574874Y-69731497D01*
X67564735Y-69782472D01*
X67539500Y-69909339D01*
X67539500Y-70090661D01*
X67557187Y-70179580D01*
X67574874Y-70268502D01*
X67644260Y-70436015D01*
X67644263Y-70436020D01*
X67745001Y-70586785D01*
X67873215Y-70714999D01*
X67998839Y-70798938D01*
X68067535Y-70867634D01*
X68104715Y-70957393D01*
X68109500Y-71005972D01*
X68109500Y-73400500D01*
X68090546Y-73495788D01*
X68036570Y-73576570D01*
X67955788Y-73630546D01*
X67860500Y-73649500D01*
X47873853Y-73649500D01*
X47784712Y-73673385D01*
X47704788Y-73719531D01*
X47639531Y-73784788D01*
X47593385Y-73864712D01*
X47569500Y-73953853D01*
X47569500Y-76650500D01*
X47550546Y-76745788D01*
X47496570Y-76826570D01*
X47415788Y-76880546D01*
X47320500Y-76899500D01*
X47000252Y-76899500D01*
X46965162Y-76906479D01*
X46941767Y-76911133D01*
X46875451Y-76955445D01*
X46875445Y-76955451D01*
X46831133Y-77021767D01*
X46831133Y-77021769D01*
X46819500Y-77080252D01*
X46819500Y-78919748D01*
X46828224Y-78963610D01*
X46831133Y-78978232D01*
X46858959Y-79019875D01*
X46875448Y-79044552D01*
X46875451Y-79044554D01*
X46941767Y-79088866D01*
X46941769Y-79088867D01*
X47000252Y-79100500D01*
X47000255Y-79100500D01*
X48839745Y-79100500D01*
X48839748Y-79100500D01*
X48898231Y-79088867D01*
X48964552Y-79044552D01*
X49008867Y-78978231D01*
X49020500Y-78919748D01*
X49020500Y-78636040D01*
X49039454Y-78540752D01*
X49093430Y-78459970D01*
X49174212Y-78405994D01*
X49269500Y-78387040D01*
X49364788Y-78405994D01*
X49445570Y-78459970D01*
X49491361Y-78522998D01*
X49518768Y-78576788D01*
X49518770Y-78576791D01*
X49620581Y-78716922D01*
X49620583Y-78716924D01*
X49620586Y-78716928D01*
X49743072Y-78839414D01*
X49743075Y-78839416D01*
X49743077Y-78839418D01*
X49883207Y-78941229D01*
X49883209Y-78941230D01*
X49883212Y-78941232D01*
X50037555Y-79019873D01*
X50202299Y-79073402D01*
X50373389Y-79100500D01*
X50373393Y-79100500D01*
X50546607Y-79100500D01*
X50546611Y-79100500D01*
X50717701Y-79073402D01*
X50882445Y-79019873D01*
X51036788Y-78941232D01*
X51176928Y-78839414D01*
X51299414Y-78716928D01*
X51401232Y-78576788D01*
X51447258Y-78486455D01*
X51507405Y-78410160D01*
X51592172Y-78362687D01*
X51669118Y-78350500D01*
X60570500Y-78350500D01*
X60665788Y-78369454D01*
X60746570Y-78423430D01*
X60800546Y-78504212D01*
X60819500Y-78599500D01*
X60819500Y-78919748D01*
X60828224Y-78963610D01*
X60831133Y-78978232D01*
X60858959Y-79019875D01*
X60875448Y-79044552D01*
X60875451Y-79044554D01*
X60941767Y-79088866D01*
X60941769Y-79088867D01*
X61000252Y-79100500D01*
X61000255Y-79100500D01*
X62839745Y-79100500D01*
X62839748Y-79100500D01*
X62898231Y-79088867D01*
X62964552Y-79044552D01*
X63008867Y-78978231D01*
X63020500Y-78919748D01*
X63020500Y-78634939D01*
X63039454Y-78539651D01*
X63093430Y-78458869D01*
X63174212Y-78404893D01*
X63269500Y-78385939D01*
X63364788Y-78404893D01*
X63445570Y-78458869D01*
X63491360Y-78521895D01*
X63519193Y-78576520D01*
X63523708Y-78582736D01*
X64017861Y-78088583D01*
X64040667Y-78173694D01*
X64099910Y-78276306D01*
X64183694Y-78360090D01*
X64286306Y-78419333D01*
X64371413Y-78442137D01*
X63877261Y-78936289D01*
X63877261Y-78936290D01*
X63883475Y-78940804D01*
X64037741Y-79019407D01*
X64037754Y-79019413D01*
X64202416Y-79072914D01*
X64373418Y-79099999D01*
X64373431Y-79100000D01*
X64546569Y-79100000D01*
X64546581Y-79099999D01*
X64717583Y-79072914D01*
X64717584Y-79072914D01*
X64882245Y-79019413D01*
X64882258Y-79019407D01*
X65036523Y-78940805D01*
X65042736Y-78936290D01*
X64548584Y-78442138D01*
X64633694Y-78419333D01*
X64736306Y-78360090D01*
X64820090Y-78276306D01*
X64879333Y-78173694D01*
X64902138Y-78088584D01*
X65396290Y-78582736D01*
X65400805Y-78576523D01*
X65479407Y-78422258D01*
X65479413Y-78422245D01*
X65532914Y-78257584D01*
X65532914Y-78257583D01*
X65559999Y-78086581D01*
X65560000Y-78086569D01*
X65560000Y-77913430D01*
X65559999Y-77913418D01*
X65532914Y-77742416D01*
X65532914Y-77742415D01*
X65479413Y-77577754D01*
X65479407Y-77577741D01*
X65400804Y-77423475D01*
X65396289Y-77417261D01*
X64902137Y-77911413D01*
X64879333Y-77826306D01*
X64820090Y-77723694D01*
X64736306Y-77639910D01*
X64633694Y-77580667D01*
X64548582Y-77557861D01*
X65042736Y-77063708D01*
X65036520Y-77059193D01*
X64882258Y-76980592D01*
X64882245Y-76980586D01*
X64717583Y-76927085D01*
X64546581Y-76900000D01*
X64373418Y-76900000D01*
X64202416Y-76927085D01*
X64202415Y-76927085D01*
X64037754Y-76980586D01*
X64037741Y-76980592D01*
X63883480Y-77059192D01*
X63883473Y-77059196D01*
X63877261Y-77063708D01*
X64371415Y-77557861D01*
X64286306Y-77580667D01*
X64183694Y-77639910D01*
X64099910Y-77723694D01*
X64040667Y-77826306D01*
X64017861Y-77911414D01*
X63523708Y-77417261D01*
X63519196Y-77423473D01*
X63519195Y-77423476D01*
X63491360Y-77478105D01*
X63467229Y-77508713D01*
X63445570Y-77541130D01*
X63437337Y-77546630D01*
X63431211Y-77554402D01*
X63397203Y-77573446D01*
X63364788Y-77595106D01*
X63355080Y-77597037D01*
X63346443Y-77601874D01*
X63307731Y-77606455D01*
X63269500Y-77614060D01*
X63259791Y-77612128D01*
X63249962Y-77613292D01*
X63212445Y-77602711D01*
X63174212Y-77595106D01*
X63165981Y-77589606D01*
X63156455Y-77586920D01*
X63125846Y-77562789D01*
X63093430Y-77541130D01*
X63087929Y-77532897D01*
X63080158Y-77526771D01*
X63061113Y-77492763D01*
X63039454Y-77460348D01*
X63037522Y-77450640D01*
X63032686Y-77442003D01*
X63020500Y-77365060D01*
X63020500Y-77080254D01*
X63017209Y-77063708D01*
X63008867Y-77021769D01*
X62964552Y-76955448D01*
X62964548Y-76955445D01*
X62898232Y-76911133D01*
X62883610Y-76908224D01*
X62839748Y-76899500D01*
X61000252Y-76899500D01*
X60965162Y-76906479D01*
X60941767Y-76911133D01*
X60875451Y-76955445D01*
X60875445Y-76955451D01*
X60831133Y-77021767D01*
X60831133Y-77021769D01*
X60823774Y-77058768D01*
X60819500Y-77080254D01*
X60819500Y-77400500D01*
X60800546Y-77495788D01*
X60746570Y-77576570D01*
X60665788Y-77630546D01*
X60570500Y-77649500D01*
X51669118Y-77649500D01*
X51573830Y-77630546D01*
X51493048Y-77576570D01*
X51447258Y-77513545D01*
X51401232Y-77423212D01*
X51401230Y-77423209D01*
X51401229Y-77423207D01*
X51299418Y-77283077D01*
X51299416Y-77283075D01*
X51299414Y-77283072D01*
X51176928Y-77160586D01*
X51176924Y-77160583D01*
X51176922Y-77160581D01*
X51036792Y-77058770D01*
X50882443Y-76980126D01*
X50882437Y-76980124D01*
X50788195Y-76949503D01*
X50717701Y-76926598D01*
X50717699Y-76926597D01*
X50717697Y-76926597D01*
X50546621Y-76899501D01*
X50546614Y-76899500D01*
X50546611Y-76899500D01*
X50373389Y-76899500D01*
X50373386Y-76899500D01*
X50373378Y-76899501D01*
X50202302Y-76926597D01*
X50037562Y-76980124D01*
X50037556Y-76980126D01*
X49883207Y-77058770D01*
X49743077Y-77160581D01*
X49620581Y-77283077D01*
X49518770Y-77423208D01*
X49518767Y-77423212D01*
X49491360Y-77477003D01*
X49431212Y-77553300D01*
X49346445Y-77600772D01*
X49249963Y-77612191D01*
X49156456Y-77585819D01*
X49080159Y-77525671D01*
X49032687Y-77440904D01*
X49020500Y-77363959D01*
X49020500Y-77080254D01*
X49017209Y-77063708D01*
X49008867Y-77021769D01*
X48964552Y-76955448D01*
X48964548Y-76955445D01*
X48898232Y-76911133D01*
X48883610Y-76908224D01*
X48839748Y-76899500D01*
X48839745Y-76899500D01*
X48519500Y-76899500D01*
X48424212Y-76880546D01*
X48343430Y-76826570D01*
X48289454Y-76745788D01*
X48270500Y-76650500D01*
X48270500Y-74599500D01*
X48289454Y-74504212D01*
X48343430Y-74423430D01*
X48424212Y-74369454D01*
X48519500Y-74350500D01*
X68506147Y-74350500D01*
X68573002Y-74332585D01*
X68595288Y-74326614D01*
X68675212Y-74280469D01*
X68740469Y-74215212D01*
X68786614Y-74135288D01*
X68794576Y-74105573D01*
X68810500Y-74046146D01*
X68810500Y-71005972D01*
X68829454Y-70910684D01*
X68883430Y-70829902D01*
X68921155Y-70798942D01*
X69046785Y-70714999D01*
X69174999Y-70586785D01*
X69258937Y-70461163D01*
X69276277Y-70443822D01*
X69289903Y-70423430D01*
X69310295Y-70409804D01*
X69327636Y-70392464D01*
X69350293Y-70383078D01*
X69370685Y-70369454D01*
X69394736Y-70364669D01*
X69417396Y-70355284D01*
X69465973Y-70350500D01*
X69501000Y-70350500D01*
X69596288Y-70369454D01*
X69677070Y-70423430D01*
X69731046Y-70504212D01*
X69750000Y-70599500D01*
X69750000Y-85571178D01*
X69731046Y-85666466D01*
X69677070Y-85747248D01*
X59847748Y-95576570D01*
X59766966Y-95630546D01*
X59671678Y-95649500D01*
X31873853Y-95649500D01*
X31784712Y-95673385D01*
X31704788Y-95719531D01*
X31639531Y-95784788D01*
X31593385Y-95864712D01*
X31569500Y-95953853D01*
X31569500Y-97716753D01*
X31550546Y-97812041D01*
X31496570Y-97892823D01*
X31431956Y-97935997D01*
X31433185Y-97938296D01*
X31422394Y-97944063D01*
X31250350Y-98059018D01*
X31104018Y-98205350D01*
X30989062Y-98377396D01*
X30989056Y-98377406D01*
X30909870Y-98568577D01*
X30908278Y-98573829D01*
X30905691Y-98578668D01*
X30905189Y-98579881D01*
X30905069Y-98579831D01*
X30862479Y-98659512D01*
X30787377Y-98721146D01*
X30694405Y-98749348D01*
X30597718Y-98739825D01*
X30512035Y-98694026D01*
X30450401Y-98618924D01*
X30431722Y-98573829D01*
X30430129Y-98568577D01*
X30350943Y-98377406D01*
X30350937Y-98377396D01*
X30235981Y-98205350D01*
X30235979Y-98205348D01*
X30235977Y-98205345D01*
X30089655Y-98059023D01*
X30089651Y-98059020D01*
X30089649Y-98059018D01*
X29917603Y-97944062D01*
X29917593Y-97944056D01*
X29726421Y-97864870D01*
X29658768Y-97851413D01*
X29523465Y-97824500D01*
X29316535Y-97824500D01*
X29216153Y-97844467D01*
X29113578Y-97864870D01*
X28922406Y-97944056D01*
X28922396Y-97944062D01*
X28750350Y-98059018D01*
X28604018Y-98205350D01*
X28489062Y-98377396D01*
X28489058Y-98377403D01*
X28449546Y-98472794D01*
X28395569Y-98553575D01*
X28314788Y-98607551D01*
X28219499Y-98626505D01*
X28124211Y-98607551D01*
X28043430Y-98553574D01*
X27989454Y-98472793D01*
X27970500Y-98377505D01*
X27970500Y-98220729D01*
X27970499Y-98220726D01*
X27967646Y-98190304D01*
X27967646Y-98190301D01*
X27922793Y-98062118D01*
X27842150Y-97952850D01*
X27830234Y-97944056D01*
X27819315Y-97935997D01*
X27732882Y-97872207D01*
X27732880Y-97872206D01*
X27653605Y-97844467D01*
X27604699Y-97827354D01*
X27604697Y-97827353D01*
X27604695Y-97827353D01*
X27574273Y-97824500D01*
X27574266Y-97824500D01*
X26265734Y-97824500D01*
X26265726Y-97824500D01*
X26235304Y-97827353D01*
X26107119Y-97872206D01*
X26107116Y-97872208D01*
X25997853Y-97952847D01*
X25997847Y-97952853D01*
X25917208Y-98062116D01*
X25917206Y-98062119D01*
X25872353Y-98190304D01*
X25869500Y-98220726D01*
X25869500Y-99779273D01*
X25872353Y-99809695D01*
X25872353Y-99809697D01*
X25872354Y-99809699D01*
X25917207Y-99937882D01*
X25997850Y-100047150D01*
X26107118Y-100127793D01*
X26235301Y-100172646D01*
X26265727Y-100175499D01*
X26265729Y-100175500D01*
X26265734Y-100175500D01*
X26320500Y-100175500D01*
X26415788Y-100194454D01*
X26496570Y-100248430D01*
X26550546Y-100329212D01*
X26569500Y-100424500D01*
X26569500Y-102046146D01*
X26593385Y-102135287D01*
X26593386Y-102135288D01*
X26639531Y-102215212D01*
X26704788Y-102280469D01*
X26784712Y-102326614D01*
X26873853Y-102350500D01*
X69501000Y-102350500D01*
X69596288Y-102369454D01*
X69677070Y-102423430D01*
X69731046Y-102504212D01*
X69750000Y-102599500D01*
X69750000Y-106251000D01*
X69731046Y-106346288D01*
X69677070Y-106427070D01*
X69596288Y-106481046D01*
X69501000Y-106500000D01*
X12669000Y-106500000D01*
X12573712Y-106481046D01*
X12492930Y-106427070D01*
X12438954Y-106346288D01*
X12420000Y-106251000D01*
X12420000Y-100874028D01*
X15899500Y-100874028D01*
X15899500Y-101125971D01*
X15938909Y-101374782D01*
X15938910Y-101374785D01*
X16016759Y-101614379D01*
X16131130Y-101838845D01*
X16279207Y-102042656D01*
X16457344Y-102220793D01*
X16661155Y-102368870D01*
X16885621Y-102483241D01*
X17125215Y-102561090D01*
X17212729Y-102574951D01*
X17374028Y-102600499D01*
X17374035Y-102600499D01*
X17374038Y-102600500D01*
X17374041Y-102600500D01*
X17625959Y-102600500D01*
X17625962Y-102600500D01*
X17625965Y-102600499D01*
X17625971Y-102600499D01*
X17743513Y-102581881D01*
X17874785Y-102561090D01*
X18114379Y-102483241D01*
X18338845Y-102368870D01*
X18542656Y-102220793D01*
X18720793Y-102042656D01*
X18868870Y-101838845D01*
X18983241Y-101614379D01*
X19061090Y-101374785D01*
X19100500Y-101125962D01*
X19100500Y-100874038D01*
X19100499Y-100874035D01*
X19100499Y-100874028D01*
X19061090Y-100625217D01*
X19061090Y-100625215D01*
X18983241Y-100385621D01*
X18868870Y-100161155D01*
X18720793Y-99957344D01*
X18542656Y-99779207D01*
X18338845Y-99631130D01*
X18114379Y-99516759D01*
X18114376Y-99516758D01*
X18114374Y-99516757D01*
X17874782Y-99438909D01*
X17625971Y-99399500D01*
X17625962Y-99399500D01*
X17374038Y-99399500D01*
X17374028Y-99399500D01*
X17125217Y-99438909D01*
X16885625Y-99516757D01*
X16885621Y-99516758D01*
X16885621Y-99516759D01*
X16661155Y-99631130D01*
X16661153Y-99631131D01*
X16661148Y-99631134D01*
X16457347Y-99779204D01*
X16279204Y-99957347D01*
X16131134Y-100161148D01*
X16131131Y-100161153D01*
X16131130Y-100161155D01*
X16045501Y-100329212D01*
X16016757Y-100385625D01*
X15938909Y-100625217D01*
X15899500Y-100874028D01*
X12420000Y-100874028D01*
X12420000Y-19374028D01*
X15899500Y-19374028D01*
X15899500Y-19625971D01*
X15938909Y-19874782D01*
X16009113Y-20090849D01*
X16016759Y-20114379D01*
X16131130Y-20338845D01*
X16131133Y-20338849D01*
X16131134Y-20338851D01*
X16172457Y-20395727D01*
X16279207Y-20542656D01*
X16457344Y-20720793D01*
X16661155Y-20868870D01*
X16885621Y-20983241D01*
X17125215Y-21061090D01*
X17212729Y-21074951D01*
X17374028Y-21100499D01*
X17374035Y-21100499D01*
X17374038Y-21100500D01*
X17374041Y-21100500D01*
X17625959Y-21100500D01*
X17625962Y-21100500D01*
X17625965Y-21100499D01*
X17625971Y-21100499D01*
X17743513Y-21081881D01*
X17874785Y-21061090D01*
X18114379Y-20983241D01*
X18338845Y-20868870D01*
X18542656Y-20720793D01*
X18720793Y-20542656D01*
X18868870Y-20338845D01*
X18983241Y-20114379D01*
X19061090Y-19874785D01*
X19100500Y-19625962D01*
X19100500Y-19374038D01*
X19100499Y-19374035D01*
X19100499Y-19374028D01*
X19061090Y-19125217D01*
X19061090Y-19125215D01*
X18983241Y-18885621D01*
X18868870Y-18661155D01*
X18720793Y-18457344D01*
X18542656Y-18279207D01*
X18338845Y-18131130D01*
X18114379Y-18016759D01*
X18114376Y-18016758D01*
X18114374Y-18016757D01*
X17874782Y-17938909D01*
X17625971Y-17899500D01*
X17625962Y-17899500D01*
X17374038Y-17899500D01*
X17374028Y-17899500D01*
X17125217Y-17938909D01*
X16885625Y-18016757D01*
X16885621Y-18016758D01*
X16885621Y-18016759D01*
X16661155Y-18131130D01*
X16661153Y-18131131D01*
X16661148Y-18131134D01*
X16457347Y-18279204D01*
X16279204Y-18457347D01*
X16131134Y-18661148D01*
X16016757Y-18885625D01*
X15938909Y-19125217D01*
X15899500Y-19374028D01*
X12420000Y-19374028D01*
X12420000Y-12749000D01*
X12438954Y-12653712D01*
X12492930Y-12572930D01*
X12573712Y-12518954D01*
X12669000Y-12500000D01*
X69501000Y-12500000D01*
X69596288Y-12518954D01*
G37*
%TD.AperFunction*%
%TD*%
M02*
