M48
; DRILL file KiCad 10.0.3 date 2026-06-18T13:36:22
; FORMAT={-:-/ absolute / metric / decimal}
; #@! TF.CreationDate,2026-06-18T13:36:22+02:00
; #@! TF.GenerationSoftware,Kicad,Pcbnew,10.0.3
; #@! TF.FileFunction,MixedPlating,1,2
FMAT,2
METRIC
; #@! TA.AperFunction,Plated,PTH,ViaDrill
T1C0.300
; #@! TA.AperFunction,Plated,PTH,ComponentDrill
T2C0.750
; #@! TA.AperFunction,Plated,PTH,ComponentDrill
T3C0.800
; #@! TA.AperFunction,Plated,PTH,ComponentDrill
T4C0.900
; #@! TA.AperFunction,Plated,PTH,ComponentDrill
T5C0.950
; #@! TA.AperFunction,Plated,PTH,ComponentDrill
T6C1.000
; #@! TA.AperFunction,Plated,PTH,ComponentDrill
T7C1.200
; #@! TA.AperFunction,Plated,PTH,ComponentDrill
T8C1.400
; #@! TA.AperFunction,Plated,PTH,ComponentDrill
T9C1.600
; #@! TA.AperFunction,NonPlated,NPTH,ComponentDrill
T10C3.200
%
G90
G05
T1
X17.42Y-29.5
X17.42Y-41.5
X17.42Y-53.5
X17.42Y-65.5
X17.42Y-77.5
X17.42Y-89.5
X29.42Y-77.5
X29.42Y-89.5
X41.42Y-53.5
X41.42Y-77.5
X41.42Y-89.5
X53.42Y-53.5
X53.42Y-89.5
X61.92Y-92.0
X75.25Y-77.5
X75.25Y-89.5
X87.25Y-77.5
X87.25Y-101.5
X99.25Y-17.5
X99.25Y-29.5
X99.25Y-53.5
X99.25Y-65.5
X99.25Y-101.5
X108.5Y-62.5
X111.0Y-62.54
X111.25Y-17.5
X111.25Y-29.5
X111.25Y-53.5
X111.25Y-101.5
X114.006Y-48.152
X120.5Y-62.0
X123.25Y-17.5
X123.25Y-29.5
X123.25Y-41.5
X123.25Y-65.5
X123.25Y-101.5
T2
X85.92Y-70.0
X89.92Y-78.0
X90.92Y-70.0
X94.92Y-78.0
X111.92Y-49.0
X113.19Y-49.0
X114.46Y-49.0
T3
X44.92Y-50.0
X49.92Y-50.0
X49.92Y-70.0
X60.08Y-70.0
X65.92Y-55.0
X65.92Y-70.0
X68.46Y-70.0
X71.0Y-70.0
X76.08Y-55.0
X83.92Y-92.0
X93.92Y-61.0
X94.08Y-92.0
X97.92Y-70.0
X98.92Y-61.0
X102.92Y-70.0
X103.42Y-91.5
X103.5Y-80.5
X103.5Y-86.0
X109.92Y-40.0
X111.92Y-40.0
X111.92Y-60.0
X111.92Y-62.54
X111.92Y-65.08
X111.92Y-67.62
X111.92Y-72.0
X113.58Y-91.5
X113.66Y-80.5
X113.66Y-86.0
X116.92Y-72.0
X119.54Y-60.0
X119.54Y-62.54
X119.54Y-65.08
X119.54Y-67.62
X121.0Y-75.0
X121.0Y-80.5
X121.0Y-86.0
X121.0Y-91.5
X123.92Y-52.0
X125.92Y-52.0
X131.16Y-75.0
X131.16Y-80.5
X131.16Y-86.0
X131.16Y-91.5
T4
X47.92Y-78.0
X50.46Y-78.0
X61.92Y-78.0
X64.46Y-78.0
X65.92Y-48.0
X68.46Y-48.0
T5
X26.92Y-99.0
X29.42Y-99.0
X31.92Y-99.0
X51.92Y-99.0
X54.42Y-99.0
X56.92Y-99.0
X59.42Y-99.0
X61.92Y-99.0
X64.42Y-99.0
X77.92Y-99.0
X80.42Y-99.0
X82.92Y-99.0
X85.42Y-99.0
X87.92Y-99.0
X90.42Y-99.0
X107.92Y-18.0
X107.92Y-20.5
X107.92Y-23.0
X126.475Y-61.5
X126.475Y-64.0
X126.475Y-66.5
T6
X77.92Y-82.0
X81.92Y-58.0
X82.92Y-82.0
X86.92Y-58.0
X97.92Y-50.0
X102.92Y-50.0
T7
X27.92Y-68.0
X29.92Y-54.0
X37.42Y-54.0
X43.16Y-68.0
X67.92Y-36.0
X78.08Y-36.0
T8
X28.92Y-22.0
X34.0Y-22.0
X44.76Y-22.0
X49.84Y-22.0
X54.92Y-22.0
X60.0Y-22.0
X78.84Y-23.0
X83.92Y-23.0
T9
X48.92Y-36.0
X64.16Y-36.0
T10
X17.5Y-19.5
X17.5Y-101.0
X130.0Y-19.5
X130.0Y-101.0
T3
X27.42Y-36.0G85X28.42Y-36.0
G05
X35.02Y-36.0G85X36.02Y-36.0
G05
M30
