%TF.GenerationSoftware,KiCad,Pcbnew,10.0.3*%
%TF.CreationDate,2026-06-16T17:48:51+02:00*%
%TF.ProjectId,suboli_control,7375626f-6c69-45f6-936f-6e74726f6c2e,rev?*%
%TF.SameCoordinates,Original*%
%TF.FileFunction,Soldermask,Top*%
%TF.FilePolarity,Negative*%
%FSLAX46Y46*%
G04 Gerber Fmt 4.6, Leading zero omitted, Abs format (unit mm)*
G04 Created by KiCad (PCBNEW 10.0.3) date 2026-06-16 17:48:51*
%MOMM*%
%LPD*%
G01*
G04 APERTURE LIST*
G04 APERTURE END LIST*
G36*
X17831654Y-99332665D02*
G01*
X18046447Y-99390219D01*
X18251891Y-99475316D01*
X18444469Y-99586502D01*
X18620888Y-99721872D01*
X18778128Y-99879112D01*
X18913498Y-100055531D01*
X19024684Y-100248109D01*
X19109781Y-100453553D01*
X19167335Y-100668346D01*
X19196360Y-100888815D01*
X19196360Y-101111185D01*
X19167335Y-101331654D01*
X19109781Y-101546447D01*
X19024684Y-101751891D01*
X18913498Y-101944469D01*
X18778128Y-102120888D01*
X18620888Y-102278128D01*
X18444469Y-102413498D01*
X18251891Y-102524684D01*
X18046447Y-102609781D01*
X17831654Y-102667335D01*
X17611185Y-102696360D01*
X17388815Y-102696360D01*
X17168346Y-102667335D01*
X16953553Y-102609781D01*
X16748109Y-102524684D01*
X16555531Y-102413498D01*
X16379112Y-102278128D01*
X16221872Y-102120888D01*
X16086502Y-101944469D01*
X15975316Y-101751891D01*
X15890219Y-101546447D01*
X15832665Y-101331654D01*
X15803640Y-101111185D01*
X15803640Y-100888815D01*
X15832665Y-100668346D01*
X15890219Y-100453553D01*
X15975316Y-100248109D01*
X16086502Y-100055531D01*
X16221872Y-99879112D01*
X16379112Y-99721872D01*
X16555531Y-99586502D01*
X16748109Y-99475316D01*
X16953553Y-99390219D01*
X17168346Y-99332665D01*
X17388815Y-99303640D01*
X17611185Y-99303640D01*
X17831654Y-99332665D01*
G37*
G36*
X130331654Y-99332665D02*
G01*
X130546447Y-99390219D01*
X130751891Y-99475316D01*
X130944469Y-99586502D01*
X131120888Y-99721872D01*
X131278128Y-99879112D01*
X131413498Y-100055531D01*
X131524684Y-100248109D01*
X131609781Y-100453553D01*
X131667335Y-100668346D01*
X131696360Y-100888815D01*
X131696360Y-101111185D01*
X131667335Y-101331654D01*
X131609781Y-101546447D01*
X131524684Y-101751891D01*
X131413498Y-101944469D01*
X131278128Y-102120888D01*
X131120888Y-102278128D01*
X130944469Y-102413498D01*
X130751891Y-102524684D01*
X130546447Y-102609781D01*
X130331654Y-102667335D01*
X130111185Y-102696360D01*
X129888815Y-102696360D01*
X129668346Y-102667335D01*
X129453553Y-102609781D01*
X129248109Y-102524684D01*
X129055531Y-102413498D01*
X128879112Y-102278128D01*
X128721872Y-102120888D01*
X128586502Y-101944469D01*
X128475316Y-101751891D01*
X128390219Y-101546447D01*
X128332665Y-101331654D01*
X128303640Y-101111185D01*
X128303640Y-100888815D01*
X128332665Y-100668346D01*
X128390219Y-100453553D01*
X128475316Y-100248109D01*
X128586502Y-100055531D01*
X128721872Y-99879112D01*
X128879112Y-99721872D01*
X129055531Y-99586502D01*
X129248109Y-99475316D01*
X129453553Y-99390219D01*
X129668346Y-99332665D01*
X129888815Y-99303640D01*
X130111185Y-99303640D01*
X130331654Y-99332665D01*
G37*
G36*
X27619868Y-97939550D02*
G01*
X27625586Y-97942345D01*
X27627962Y-97942722D01*
X27665987Y-97962096D01*
X27723377Y-97990153D01*
X27804847Y-98071623D01*
X27832907Y-98129020D01*
X27852276Y-98167034D01*
X27852652Y-98169408D01*
X27855450Y-98175132D01*
X27870000Y-98275000D01*
X27870000Y-99725000D01*
X27855450Y-99824868D01*
X27852652Y-99830589D01*
X27852277Y-99832962D01*
X27832926Y-99870939D01*
X27804847Y-99928377D01*
X27723377Y-100009847D01*
X27665955Y-100037919D01*
X27627965Y-100057276D01*
X27625591Y-100057651D01*
X27619868Y-100060450D01*
X27520000Y-100075000D01*
X26320000Y-100075000D01*
X26220132Y-100060450D01*
X26214410Y-100057652D01*
X26212037Y-100057277D01*
X26174035Y-100037914D01*
X26116623Y-100009847D01*
X26035153Y-99928377D01*
X26007104Y-99871003D01*
X25987723Y-99832965D01*
X25987346Y-99830588D01*
X25984550Y-99824868D01*
X25970000Y-99725000D01*
X25970000Y-98275000D01*
X25984550Y-98175132D01*
X25987345Y-98169413D01*
X25987722Y-98167037D01*
X26007108Y-98128987D01*
X26035153Y-98071623D01*
X26116623Y-97990153D01*
X26173971Y-97962116D01*
X26212034Y-97942723D01*
X26214411Y-97942346D01*
X26220132Y-97939550D01*
X26320000Y-97925000D01*
X27520000Y-97925000D01*
X27619868Y-97939550D01*
G37*
G36*
X52619868Y-97939550D02*
G01*
X52625586Y-97942345D01*
X52627962Y-97942722D01*
X52665987Y-97962096D01*
X52723377Y-97990153D01*
X52804847Y-98071623D01*
X52832907Y-98129020D01*
X52852276Y-98167034D01*
X52852652Y-98169408D01*
X52855450Y-98175132D01*
X52870000Y-98275000D01*
X52870000Y-99725000D01*
X52855450Y-99824868D01*
X52852652Y-99830589D01*
X52852277Y-99832962D01*
X52832926Y-99870939D01*
X52804847Y-99928377D01*
X52723377Y-100009847D01*
X52665955Y-100037919D01*
X52627965Y-100057276D01*
X52625591Y-100057651D01*
X52619868Y-100060450D01*
X52520000Y-100075000D01*
X51320000Y-100075000D01*
X51220132Y-100060450D01*
X51214410Y-100057652D01*
X51212037Y-100057277D01*
X51174035Y-100037914D01*
X51116623Y-100009847D01*
X51035153Y-99928377D01*
X51007104Y-99871003D01*
X50987723Y-99832965D01*
X50987346Y-99830588D01*
X50984550Y-99824868D01*
X50970000Y-99725000D01*
X50970000Y-98275000D01*
X50984550Y-98175132D01*
X50987345Y-98169413D01*
X50987722Y-98167037D01*
X51007108Y-98128987D01*
X51035153Y-98071623D01*
X51116623Y-97990153D01*
X51173971Y-97962116D01*
X51212034Y-97942723D01*
X51214411Y-97942346D01*
X51220132Y-97939550D01*
X51320000Y-97925000D01*
X52520000Y-97925000D01*
X52619868Y-97939550D01*
G37*
G36*
X78619868Y-97939550D02*
G01*
X78625586Y-97942345D01*
X78627962Y-97942722D01*
X78665987Y-97962096D01*
X78723377Y-97990153D01*
X78804847Y-98071623D01*
X78832907Y-98129020D01*
X78852276Y-98167034D01*
X78852652Y-98169408D01*
X78855450Y-98175132D01*
X78870000Y-98275000D01*
X78870000Y-99725000D01*
X78855450Y-99824868D01*
X78852652Y-99830589D01*
X78852277Y-99832962D01*
X78832926Y-99870939D01*
X78804847Y-99928377D01*
X78723377Y-100009847D01*
X78665955Y-100037919D01*
X78627965Y-100057276D01*
X78625591Y-100057651D01*
X78619868Y-100060450D01*
X78520000Y-100075000D01*
X77320000Y-100075000D01*
X77220132Y-100060450D01*
X77214410Y-100057652D01*
X77212037Y-100057277D01*
X77174035Y-100037914D01*
X77116623Y-100009847D01*
X77035153Y-99928377D01*
X77007104Y-99871003D01*
X76987723Y-99832965D01*
X76987346Y-99830588D01*
X76984550Y-99824868D01*
X76970000Y-99725000D01*
X76970000Y-98275000D01*
X76984550Y-98175132D01*
X76987345Y-98169413D01*
X76987722Y-98167037D01*
X77007108Y-98128987D01*
X77035153Y-98071623D01*
X77116623Y-97990153D01*
X77173971Y-97962116D01*
X77212034Y-97942723D01*
X77214411Y-97942346D01*
X77220132Y-97939550D01*
X77320000Y-97925000D01*
X78520000Y-97925000D01*
X78619868Y-97939550D01*
G37*
G36*
X29695770Y-97965907D02*
G01*
X29867827Y-98037175D01*
X30022674Y-98140640D01*
X30154360Y-98272326D01*
X30257825Y-98427173D01*
X30329093Y-98599230D01*
X30365425Y-98781884D01*
X30370000Y-98875000D01*
X30370000Y-99125000D01*
X30365425Y-99218116D01*
X30329093Y-99400770D01*
X30257825Y-99572827D01*
X30154360Y-99727674D01*
X30022674Y-99859360D01*
X29867827Y-99962825D01*
X29695770Y-100034093D01*
X29513116Y-100070425D01*
X29326884Y-100070425D01*
X29144230Y-100034093D01*
X28972173Y-99962825D01*
X28817326Y-99859360D01*
X28685640Y-99727674D01*
X28582175Y-99572827D01*
X28510907Y-99400770D01*
X28474575Y-99218116D01*
X28470000Y-99125000D01*
X28470000Y-98875000D01*
X28474575Y-98781884D01*
X28510907Y-98599230D01*
X28582175Y-98427173D01*
X28685640Y-98272326D01*
X28817326Y-98140640D01*
X28972173Y-98037175D01*
X29144230Y-97965907D01*
X29326884Y-97929575D01*
X29513116Y-97929575D01*
X29695770Y-97965907D01*
G37*
G36*
X32195770Y-97965907D02*
G01*
X32367827Y-98037175D01*
X32522674Y-98140640D01*
X32654360Y-98272326D01*
X32757825Y-98427173D01*
X32829093Y-98599230D01*
X32865425Y-98781884D01*
X32870000Y-98875000D01*
X32870000Y-99125000D01*
X32865425Y-99218116D01*
X32829093Y-99400770D01*
X32757825Y-99572827D01*
X32654360Y-99727674D01*
X32522674Y-99859360D01*
X32367827Y-99962825D01*
X32195770Y-100034093D01*
X32013116Y-100070425D01*
X31826884Y-100070425D01*
X31644230Y-100034093D01*
X31472173Y-99962825D01*
X31317326Y-99859360D01*
X31185640Y-99727674D01*
X31082175Y-99572827D01*
X31010907Y-99400770D01*
X30974575Y-99218116D01*
X30970000Y-99125000D01*
X30970000Y-98875000D01*
X30974575Y-98781884D01*
X31010907Y-98599230D01*
X31082175Y-98427173D01*
X31185640Y-98272326D01*
X31317326Y-98140640D01*
X31472173Y-98037175D01*
X31644230Y-97965907D01*
X31826884Y-97929575D01*
X32013116Y-97929575D01*
X32195770Y-97965907D01*
G37*
G36*
X54695770Y-97965907D02*
G01*
X54867827Y-98037175D01*
X55022674Y-98140640D01*
X55154360Y-98272326D01*
X55257825Y-98427173D01*
X55329093Y-98599230D01*
X55365425Y-98781884D01*
X55370000Y-98875000D01*
X55370000Y-99125000D01*
X55365425Y-99218116D01*
X55329093Y-99400770D01*
X55257825Y-99572827D01*
X55154360Y-99727674D01*
X55022674Y-99859360D01*
X54867827Y-99962825D01*
X54695770Y-100034093D01*
X54513116Y-100070425D01*
X54326884Y-100070425D01*
X54144230Y-100034093D01*
X53972173Y-99962825D01*
X53817326Y-99859360D01*
X53685640Y-99727674D01*
X53582175Y-99572827D01*
X53510907Y-99400770D01*
X53474575Y-99218116D01*
X53470000Y-99125000D01*
X53470000Y-98875000D01*
X53474575Y-98781884D01*
X53510907Y-98599230D01*
X53582175Y-98427173D01*
X53685640Y-98272326D01*
X53817326Y-98140640D01*
X53972173Y-98037175D01*
X54144230Y-97965907D01*
X54326884Y-97929575D01*
X54513116Y-97929575D01*
X54695770Y-97965907D01*
G37*
G36*
X57195770Y-97965907D02*
G01*
X57367827Y-98037175D01*
X57522674Y-98140640D01*
X57654360Y-98272326D01*
X57757825Y-98427173D01*
X57829093Y-98599230D01*
X57865425Y-98781884D01*
X57870000Y-98875000D01*
X57870000Y-99125000D01*
X57865425Y-99218116D01*
X57829093Y-99400770D01*
X57757825Y-99572827D01*
X57654360Y-99727674D01*
X57522674Y-99859360D01*
X57367827Y-99962825D01*
X57195770Y-100034093D01*
X57013116Y-100070425D01*
X56826884Y-100070425D01*
X56644230Y-100034093D01*
X56472173Y-99962825D01*
X56317326Y-99859360D01*
X56185640Y-99727674D01*
X56082175Y-99572827D01*
X56010907Y-99400770D01*
X55974575Y-99218116D01*
X55970000Y-99125000D01*
X55970000Y-98875000D01*
X55974575Y-98781884D01*
X56010907Y-98599230D01*
X56082175Y-98427173D01*
X56185640Y-98272326D01*
X56317326Y-98140640D01*
X56472173Y-98037175D01*
X56644230Y-97965907D01*
X56826884Y-97929575D01*
X57013116Y-97929575D01*
X57195770Y-97965907D01*
G37*
G36*
X59695770Y-97965907D02*
G01*
X59867827Y-98037175D01*
X60022674Y-98140640D01*
X60154360Y-98272326D01*
X60257825Y-98427173D01*
X60329093Y-98599230D01*
X60365425Y-98781884D01*
X60370000Y-98875000D01*
X60370000Y-99125000D01*
X60365425Y-99218116D01*
X60329093Y-99400770D01*
X60257825Y-99572827D01*
X60154360Y-99727674D01*
X60022674Y-99859360D01*
X59867827Y-99962825D01*
X59695770Y-100034093D01*
X59513116Y-100070425D01*
X59326884Y-100070425D01*
X59144230Y-100034093D01*
X58972173Y-99962825D01*
X58817326Y-99859360D01*
X58685640Y-99727674D01*
X58582175Y-99572827D01*
X58510907Y-99400770D01*
X58474575Y-99218116D01*
X58470000Y-99125000D01*
X58470000Y-98875000D01*
X58474575Y-98781884D01*
X58510907Y-98599230D01*
X58582175Y-98427173D01*
X58685640Y-98272326D01*
X58817326Y-98140640D01*
X58972173Y-98037175D01*
X59144230Y-97965907D01*
X59326884Y-97929575D01*
X59513116Y-97929575D01*
X59695770Y-97965907D01*
G37*
G36*
X62195770Y-97965907D02*
G01*
X62367827Y-98037175D01*
X62522674Y-98140640D01*
X62654360Y-98272326D01*
X62757825Y-98427173D01*
X62829093Y-98599230D01*
X62865425Y-98781884D01*
X62870000Y-98875000D01*
X62870000Y-99125000D01*
X62865425Y-99218116D01*
X62829093Y-99400770D01*
X62757825Y-99572827D01*
X62654360Y-99727674D01*
X62522674Y-99859360D01*
X62367827Y-99962825D01*
X62195770Y-100034093D01*
X62013116Y-100070425D01*
X61826884Y-100070425D01*
X61644230Y-100034093D01*
X61472173Y-99962825D01*
X61317326Y-99859360D01*
X61185640Y-99727674D01*
X61082175Y-99572827D01*
X61010907Y-99400770D01*
X60974575Y-99218116D01*
X60970000Y-99125000D01*
X60970000Y-98875000D01*
X60974575Y-98781884D01*
X61010907Y-98599230D01*
X61082175Y-98427173D01*
X61185640Y-98272326D01*
X61317326Y-98140640D01*
X61472173Y-98037175D01*
X61644230Y-97965907D01*
X61826884Y-97929575D01*
X62013116Y-97929575D01*
X62195770Y-97965907D01*
G37*
G36*
X64695770Y-97965907D02*
G01*
X64867827Y-98037175D01*
X65022674Y-98140640D01*
X65154360Y-98272326D01*
X65257825Y-98427173D01*
X65329093Y-98599230D01*
X65365425Y-98781884D01*
X65370000Y-98875000D01*
X65370000Y-99125000D01*
X65365425Y-99218116D01*
X65329093Y-99400770D01*
X65257825Y-99572827D01*
X65154360Y-99727674D01*
X65022674Y-99859360D01*
X64867827Y-99962825D01*
X64695770Y-100034093D01*
X64513116Y-100070425D01*
X64326884Y-100070425D01*
X64144230Y-100034093D01*
X63972173Y-99962825D01*
X63817326Y-99859360D01*
X63685640Y-99727674D01*
X63582175Y-99572827D01*
X63510907Y-99400770D01*
X63474575Y-99218116D01*
X63470000Y-99125000D01*
X63470000Y-98875000D01*
X63474575Y-98781884D01*
X63510907Y-98599230D01*
X63582175Y-98427173D01*
X63685640Y-98272326D01*
X63817326Y-98140640D01*
X63972173Y-98037175D01*
X64144230Y-97965907D01*
X64326884Y-97929575D01*
X64513116Y-97929575D01*
X64695770Y-97965907D01*
G37*
G36*
X80695770Y-97965907D02*
G01*
X80867827Y-98037175D01*
X81022674Y-98140640D01*
X81154360Y-98272326D01*
X81257825Y-98427173D01*
X81329093Y-98599230D01*
X81365425Y-98781884D01*
X81370000Y-98875000D01*
X81370000Y-99125000D01*
X81365425Y-99218116D01*
X81329093Y-99400770D01*
X81257825Y-99572827D01*
X81154360Y-99727674D01*
X81022674Y-99859360D01*
X80867827Y-99962825D01*
X80695770Y-100034093D01*
X80513116Y-100070425D01*
X80326884Y-100070425D01*
X80144230Y-100034093D01*
X79972173Y-99962825D01*
X79817326Y-99859360D01*
X79685640Y-99727674D01*
X79582175Y-99572827D01*
X79510907Y-99400770D01*
X79474575Y-99218116D01*
X79470000Y-99125000D01*
X79470000Y-98875000D01*
X79474575Y-98781884D01*
X79510907Y-98599230D01*
X79582175Y-98427173D01*
X79685640Y-98272326D01*
X79817326Y-98140640D01*
X79972173Y-98037175D01*
X80144230Y-97965907D01*
X80326884Y-97929575D01*
X80513116Y-97929575D01*
X80695770Y-97965907D01*
G37*
G36*
X83195770Y-97965907D02*
G01*
X83367827Y-98037175D01*
X83522674Y-98140640D01*
X83654360Y-98272326D01*
X83757825Y-98427173D01*
X83829093Y-98599230D01*
X83865425Y-98781884D01*
X83870000Y-98875000D01*
X83870000Y-99125000D01*
X83865425Y-99218116D01*
X83829093Y-99400770D01*
X83757825Y-99572827D01*
X83654360Y-99727674D01*
X83522674Y-99859360D01*
X83367827Y-99962825D01*
X83195770Y-100034093D01*
X83013116Y-100070425D01*
X82826884Y-100070425D01*
X82644230Y-100034093D01*
X82472173Y-99962825D01*
X82317326Y-99859360D01*
X82185640Y-99727674D01*
X82082175Y-99572827D01*
X82010907Y-99400770D01*
X81974575Y-99218116D01*
X81970000Y-99125000D01*
X81970000Y-98875000D01*
X81974575Y-98781884D01*
X82010907Y-98599230D01*
X82082175Y-98427173D01*
X82185640Y-98272326D01*
X82317326Y-98140640D01*
X82472173Y-98037175D01*
X82644230Y-97965907D01*
X82826884Y-97929575D01*
X83013116Y-97929575D01*
X83195770Y-97965907D01*
G37*
G36*
X85695770Y-97965907D02*
G01*
X85867827Y-98037175D01*
X86022674Y-98140640D01*
X86154360Y-98272326D01*
X86257825Y-98427173D01*
X86329093Y-98599230D01*
X86365425Y-98781884D01*
X86370000Y-98875000D01*
X86370000Y-99125000D01*
X86365425Y-99218116D01*
X86329093Y-99400770D01*
X86257825Y-99572827D01*
X86154360Y-99727674D01*
X86022674Y-99859360D01*
X85867827Y-99962825D01*
X85695770Y-100034093D01*
X85513116Y-100070425D01*
X85326884Y-100070425D01*
X85144230Y-100034093D01*
X84972173Y-99962825D01*
X84817326Y-99859360D01*
X84685640Y-99727674D01*
X84582175Y-99572827D01*
X84510907Y-99400770D01*
X84474575Y-99218116D01*
X84470000Y-99125000D01*
X84470000Y-98875000D01*
X84474575Y-98781884D01*
X84510907Y-98599230D01*
X84582175Y-98427173D01*
X84685640Y-98272326D01*
X84817326Y-98140640D01*
X84972173Y-98037175D01*
X85144230Y-97965907D01*
X85326884Y-97929575D01*
X85513116Y-97929575D01*
X85695770Y-97965907D01*
G37*
G36*
X88195770Y-97965907D02*
G01*
X88367827Y-98037175D01*
X88522674Y-98140640D01*
X88654360Y-98272326D01*
X88757825Y-98427173D01*
X88829093Y-98599230D01*
X88865425Y-98781884D01*
X88870000Y-98875000D01*
X88870000Y-99125000D01*
X88865425Y-99218116D01*
X88829093Y-99400770D01*
X88757825Y-99572827D01*
X88654360Y-99727674D01*
X88522674Y-99859360D01*
X88367827Y-99962825D01*
X88195770Y-100034093D01*
X88013116Y-100070425D01*
X87826884Y-100070425D01*
X87644230Y-100034093D01*
X87472173Y-99962825D01*
X87317326Y-99859360D01*
X87185640Y-99727674D01*
X87082175Y-99572827D01*
X87010907Y-99400770D01*
X86974575Y-99218116D01*
X86970000Y-99125000D01*
X86970000Y-98875000D01*
X86974575Y-98781884D01*
X87010907Y-98599230D01*
X87082175Y-98427173D01*
X87185640Y-98272326D01*
X87317326Y-98140640D01*
X87472173Y-98037175D01*
X87644230Y-97965907D01*
X87826884Y-97929575D01*
X88013116Y-97929575D01*
X88195770Y-97965907D01*
G37*
G36*
X90695770Y-97965907D02*
G01*
X90867827Y-98037175D01*
X91022674Y-98140640D01*
X91154360Y-98272326D01*
X91257825Y-98427173D01*
X91329093Y-98599230D01*
X91365425Y-98781884D01*
X91370000Y-98875000D01*
X91370000Y-99125000D01*
X91365425Y-99218116D01*
X91329093Y-99400770D01*
X91257825Y-99572827D01*
X91154360Y-99727674D01*
X91022674Y-99859360D01*
X90867827Y-99962825D01*
X90695770Y-100034093D01*
X90513116Y-100070425D01*
X90326884Y-100070425D01*
X90144230Y-100034093D01*
X89972173Y-99962825D01*
X89817326Y-99859360D01*
X89685640Y-99727674D01*
X89582175Y-99572827D01*
X89510907Y-99400770D01*
X89474575Y-99218116D01*
X89470000Y-99125000D01*
X89470000Y-98875000D01*
X89474575Y-98781884D01*
X89510907Y-98599230D01*
X89582175Y-98427173D01*
X89685640Y-98272326D01*
X89817326Y-98140640D01*
X89972173Y-98037175D01*
X90144230Y-97965907D01*
X90326884Y-97929575D01*
X90513116Y-97929575D01*
X90695770Y-97965907D01*
G37*
G36*
X84181256Y-91138754D02*
G01*
X84344257Y-91206271D01*
X84490954Y-91304291D01*
X84615709Y-91429046D01*
X84713729Y-91575743D01*
X84781246Y-91738744D01*
X84815666Y-91911785D01*
X84815666Y-92088215D01*
X84781246Y-92261256D01*
X84713729Y-92424257D01*
X84615709Y-92570954D01*
X84490954Y-92695709D01*
X84344257Y-92793729D01*
X84181256Y-92861246D01*
X84008215Y-92895666D01*
X83831785Y-92895666D01*
X83658744Y-92861246D01*
X83495743Y-92793729D01*
X83349046Y-92695709D01*
X83224291Y-92570954D01*
X83126271Y-92424257D01*
X83058754Y-92261256D01*
X83024334Y-92088215D01*
X83024334Y-91911785D01*
X83058754Y-91738744D01*
X83126271Y-91575743D01*
X83224291Y-91429046D01*
X83349046Y-91304291D01*
X83495743Y-91206271D01*
X83658744Y-91138754D01*
X83831785Y-91104334D01*
X84008215Y-91104334D01*
X84181256Y-91138754D01*
G37*
G36*
X94341256Y-91138754D02*
G01*
X94504257Y-91206271D01*
X94650954Y-91304291D01*
X94775709Y-91429046D01*
X94873729Y-91575743D01*
X94941246Y-91738744D01*
X94975666Y-91911785D01*
X94975666Y-92088215D01*
X94941246Y-92261256D01*
X94873729Y-92424257D01*
X94775709Y-92570954D01*
X94650954Y-92695709D01*
X94504257Y-92793729D01*
X94341256Y-92861246D01*
X94168215Y-92895666D01*
X93991785Y-92895666D01*
X93818744Y-92861246D01*
X93655743Y-92793729D01*
X93509046Y-92695709D01*
X93384291Y-92570954D01*
X93286271Y-92424257D01*
X93218754Y-92261256D01*
X93184334Y-92088215D01*
X93184334Y-91911785D01*
X93218754Y-91738744D01*
X93286271Y-91575743D01*
X93384291Y-91429046D01*
X93509046Y-91304291D01*
X93655743Y-91206271D01*
X93818744Y-91138754D01*
X93991785Y-91104334D01*
X94168215Y-91104334D01*
X94341256Y-91138754D01*
G37*
G36*
X103681256Y-90638754D02*
G01*
X103844257Y-90706271D01*
X103990954Y-90804291D01*
X104115709Y-90929046D01*
X104213729Y-91075743D01*
X104281246Y-91238744D01*
X104315666Y-91411785D01*
X104315666Y-91588215D01*
X104281246Y-91761256D01*
X104213729Y-91924257D01*
X104115709Y-92070954D01*
X103990954Y-92195709D01*
X103844257Y-92293729D01*
X103681256Y-92361246D01*
X103508215Y-92395666D01*
X103331785Y-92395666D01*
X103158744Y-92361246D01*
X102995743Y-92293729D01*
X102849046Y-92195709D01*
X102724291Y-92070954D01*
X102626271Y-91924257D01*
X102558754Y-91761256D01*
X102524334Y-91588215D01*
X102524334Y-91411785D01*
X102558754Y-91238744D01*
X102626271Y-91075743D01*
X102724291Y-90929046D01*
X102849046Y-90804291D01*
X102995743Y-90706271D01*
X103158744Y-90638754D01*
X103331785Y-90604334D01*
X103508215Y-90604334D01*
X103681256Y-90638754D01*
G37*
G36*
X113841256Y-90638754D02*
G01*
X114004257Y-90706271D01*
X114150954Y-90804291D01*
X114275709Y-90929046D01*
X114373729Y-91075743D01*
X114441246Y-91238744D01*
X114475666Y-91411785D01*
X114475666Y-91588215D01*
X114441246Y-91761256D01*
X114373729Y-91924257D01*
X114275709Y-92070954D01*
X114150954Y-92195709D01*
X114004257Y-92293729D01*
X113841256Y-92361246D01*
X113668215Y-92395666D01*
X113491785Y-92395666D01*
X113318744Y-92361246D01*
X113155743Y-92293729D01*
X113009046Y-92195709D01*
X112884291Y-92070954D01*
X112786271Y-91924257D01*
X112718754Y-91761256D01*
X112684334Y-91588215D01*
X112684334Y-91411785D01*
X112718754Y-91238744D01*
X112786271Y-91075743D01*
X112884291Y-90929046D01*
X113009046Y-90804291D01*
X113155743Y-90706271D01*
X113318744Y-90638754D01*
X113491785Y-90604334D01*
X113668215Y-90604334D01*
X113841256Y-90638754D01*
G37*
G36*
X121261256Y-90638754D02*
G01*
X121424257Y-90706271D01*
X121570954Y-90804291D01*
X121695709Y-90929046D01*
X121793729Y-91075743D01*
X121861246Y-91238744D01*
X121895666Y-91411785D01*
X121895666Y-91588215D01*
X121861246Y-91761256D01*
X121793729Y-91924257D01*
X121695709Y-92070954D01*
X121570954Y-92195709D01*
X121424257Y-92293729D01*
X121261256Y-92361246D01*
X121088215Y-92395666D01*
X120911785Y-92395666D01*
X120738744Y-92361246D01*
X120575743Y-92293729D01*
X120429046Y-92195709D01*
X120304291Y-92070954D01*
X120206271Y-91924257D01*
X120138754Y-91761256D01*
X120104334Y-91588215D01*
X120104334Y-91411785D01*
X120138754Y-91238744D01*
X120206271Y-91075743D01*
X120304291Y-90929046D01*
X120429046Y-90804291D01*
X120575743Y-90706271D01*
X120738744Y-90638754D01*
X120911785Y-90604334D01*
X121088215Y-90604334D01*
X121261256Y-90638754D01*
G37*
G36*
X131421256Y-90638754D02*
G01*
X131584257Y-90706271D01*
X131730954Y-90804291D01*
X131855709Y-90929046D01*
X131953729Y-91075743D01*
X132021246Y-91238744D01*
X132055666Y-91411785D01*
X132055666Y-91588215D01*
X132021246Y-91761256D01*
X131953729Y-91924257D01*
X131855709Y-92070954D01*
X131730954Y-92195709D01*
X131584257Y-92293729D01*
X131421256Y-92361246D01*
X131248215Y-92395666D01*
X131071785Y-92395666D01*
X130898744Y-92361246D01*
X130735743Y-92293729D01*
X130589046Y-92195709D01*
X130464291Y-92070954D01*
X130366271Y-91924257D01*
X130298754Y-91761256D01*
X130264334Y-91588215D01*
X130264334Y-91411785D01*
X130298754Y-91238744D01*
X130366271Y-91075743D01*
X130464291Y-90929046D01*
X130589046Y-90804291D01*
X130735743Y-90706271D01*
X130898744Y-90638754D01*
X131071785Y-90604334D01*
X131248215Y-90604334D01*
X131421256Y-90638754D01*
G37*
G36*
X103761256Y-85138754D02*
G01*
X103924257Y-85206271D01*
X104070954Y-85304291D01*
X104195709Y-85429046D01*
X104293729Y-85575743D01*
X104361246Y-85738744D01*
X104395666Y-85911785D01*
X104395666Y-86088215D01*
X104361246Y-86261256D01*
X104293729Y-86424257D01*
X104195709Y-86570954D01*
X104070954Y-86695709D01*
X103924257Y-86793729D01*
X103761256Y-86861246D01*
X103588215Y-86895666D01*
X103411785Y-86895666D01*
X103238744Y-86861246D01*
X103075743Y-86793729D01*
X102929046Y-86695709D01*
X102804291Y-86570954D01*
X102706271Y-86424257D01*
X102638754Y-86261256D01*
X102604334Y-86088215D01*
X102604334Y-85911785D01*
X102638754Y-85738744D01*
X102706271Y-85575743D01*
X102804291Y-85429046D01*
X102929046Y-85304291D01*
X103075743Y-85206271D01*
X103238744Y-85138754D01*
X103411785Y-85104334D01*
X103588215Y-85104334D01*
X103761256Y-85138754D01*
G37*
G36*
X113921256Y-85138754D02*
G01*
X114084257Y-85206271D01*
X114230954Y-85304291D01*
X114355709Y-85429046D01*
X114453729Y-85575743D01*
X114521246Y-85738744D01*
X114555666Y-85911785D01*
X114555666Y-86088215D01*
X114521246Y-86261256D01*
X114453729Y-86424257D01*
X114355709Y-86570954D01*
X114230954Y-86695709D01*
X114084257Y-86793729D01*
X113921256Y-86861246D01*
X113748215Y-86895666D01*
X113571785Y-86895666D01*
X113398744Y-86861246D01*
X113235743Y-86793729D01*
X113089046Y-86695709D01*
X112964291Y-86570954D01*
X112866271Y-86424257D01*
X112798754Y-86261256D01*
X112764334Y-86088215D01*
X112764334Y-85911785D01*
X112798754Y-85738744D01*
X112866271Y-85575743D01*
X112964291Y-85429046D01*
X113089046Y-85304291D01*
X113235743Y-85206271D01*
X113398744Y-85138754D01*
X113571785Y-85104334D01*
X113748215Y-85104334D01*
X113921256Y-85138754D01*
G37*
G36*
X121261256Y-85138754D02*
G01*
X121424257Y-85206271D01*
X121570954Y-85304291D01*
X121695709Y-85429046D01*
X121793729Y-85575743D01*
X121861246Y-85738744D01*
X121895666Y-85911785D01*
X121895666Y-86088215D01*
X121861246Y-86261256D01*
X121793729Y-86424257D01*
X121695709Y-86570954D01*
X121570954Y-86695709D01*
X121424257Y-86793729D01*
X121261256Y-86861246D01*
X121088215Y-86895666D01*
X120911785Y-86895666D01*
X120738744Y-86861246D01*
X120575743Y-86793729D01*
X120429046Y-86695709D01*
X120304291Y-86570954D01*
X120206271Y-86424257D01*
X120138754Y-86261256D01*
X120104334Y-86088215D01*
X120104334Y-85911785D01*
X120138754Y-85738744D01*
X120206271Y-85575743D01*
X120304291Y-85429046D01*
X120429046Y-85304291D01*
X120575743Y-85206271D01*
X120738744Y-85138754D01*
X120911785Y-85104334D01*
X121088215Y-85104334D01*
X121261256Y-85138754D01*
G37*
G36*
X131421256Y-85138754D02*
G01*
X131584257Y-85206271D01*
X131730954Y-85304291D01*
X131855709Y-85429046D01*
X131953729Y-85575743D01*
X132021246Y-85738744D01*
X132055666Y-85911785D01*
X132055666Y-86088215D01*
X132021246Y-86261256D01*
X131953729Y-86424257D01*
X131855709Y-86570954D01*
X131730954Y-86695709D01*
X131584257Y-86793729D01*
X131421256Y-86861246D01*
X131248215Y-86895666D01*
X131071785Y-86895666D01*
X130898744Y-86861246D01*
X130735743Y-86793729D01*
X130589046Y-86695709D01*
X130464291Y-86570954D01*
X130366271Y-86424257D01*
X130298754Y-86261256D01*
X130264334Y-86088215D01*
X130264334Y-85911785D01*
X130298754Y-85738744D01*
X130366271Y-85575743D01*
X130464291Y-85429046D01*
X130589046Y-85304291D01*
X130735743Y-85206271D01*
X130898744Y-85138754D01*
X131071785Y-85104334D01*
X131248215Y-85104334D01*
X131421256Y-85138754D01*
G37*
G36*
X78769868Y-80914550D02*
G01*
X78775586Y-80917345D01*
X78777962Y-80917722D01*
X78815987Y-80937096D01*
X78873377Y-80965153D01*
X78954847Y-81046623D01*
X78982907Y-81104020D01*
X79002276Y-81142034D01*
X79002652Y-81144408D01*
X79005450Y-81150132D01*
X79020000Y-81250000D01*
X79020000Y-82750000D01*
X79005450Y-82849868D01*
X79002652Y-82855589D01*
X79002277Y-82857962D01*
X78982926Y-82895939D01*
X78954847Y-82953377D01*
X78873377Y-83034847D01*
X78815955Y-83062919D01*
X78777965Y-83082276D01*
X78775591Y-83082651D01*
X78769868Y-83085450D01*
X78670000Y-83100000D01*
X77170000Y-83100000D01*
X77070132Y-83085450D01*
X77064410Y-83082652D01*
X77062037Y-83082277D01*
X77024035Y-83062914D01*
X76966623Y-83034847D01*
X76885153Y-82953377D01*
X76857104Y-82896003D01*
X76837723Y-82857965D01*
X76837346Y-82855588D01*
X76834550Y-82849868D01*
X76820000Y-82750000D01*
X76820000Y-81250000D01*
X76834550Y-81150132D01*
X76837345Y-81144413D01*
X76837722Y-81142037D01*
X76857108Y-81103987D01*
X76885153Y-81046623D01*
X76966623Y-80965153D01*
X77023971Y-80937116D01*
X77062034Y-80917723D01*
X77064411Y-80917346D01*
X77070132Y-80914550D01*
X77170000Y-80900000D01*
X78670000Y-80900000D01*
X78769868Y-80914550D01*
G37*
G36*
X83176790Y-80930393D02*
G01*
X83340952Y-80983733D01*
X83494748Y-81062096D01*
X83634393Y-81163553D01*
X83756447Y-81285607D01*
X83857904Y-81425252D01*
X83936267Y-81579048D01*
X83989607Y-81743210D01*
X84016609Y-81913695D01*
X84016609Y-82086305D01*
X83989607Y-82256790D01*
X83936267Y-82420952D01*
X83857904Y-82574748D01*
X83756447Y-82714393D01*
X83634393Y-82836447D01*
X83494748Y-82937904D01*
X83340952Y-83016267D01*
X83176790Y-83069607D01*
X83006305Y-83096609D01*
X82833695Y-83096609D01*
X82663210Y-83069607D01*
X82499048Y-83016267D01*
X82345252Y-82937904D01*
X82205607Y-82836447D01*
X82083553Y-82714393D01*
X81982096Y-82574748D01*
X81903733Y-82420952D01*
X81850393Y-82256790D01*
X81823391Y-82086305D01*
X81823391Y-81913695D01*
X81850393Y-81743210D01*
X81903733Y-81579048D01*
X81982096Y-81425252D01*
X82083553Y-81285607D01*
X82205607Y-81163553D01*
X82345252Y-81062096D01*
X82499048Y-80983733D01*
X82663210Y-80930393D01*
X82833695Y-80903391D01*
X83006305Y-80903391D01*
X83176790Y-80930393D01*
G37*
G36*
X103761256Y-79638754D02*
G01*
X103924257Y-79706271D01*
X104070954Y-79804291D01*
X104195709Y-79929046D01*
X104293729Y-80075743D01*
X104361246Y-80238744D01*
X104395666Y-80411785D01*
X104395666Y-80588215D01*
X104361246Y-80761256D01*
X104293729Y-80924257D01*
X104195709Y-81070954D01*
X104070954Y-81195709D01*
X103924257Y-81293729D01*
X103761256Y-81361246D01*
X103588215Y-81395666D01*
X103411785Y-81395666D01*
X103238744Y-81361246D01*
X103075743Y-81293729D01*
X102929046Y-81195709D01*
X102804291Y-81070954D01*
X102706271Y-80924257D01*
X102638754Y-80761256D01*
X102604334Y-80588215D01*
X102604334Y-80411785D01*
X102638754Y-80238744D01*
X102706271Y-80075743D01*
X102804291Y-79929046D01*
X102929046Y-79804291D01*
X103075743Y-79706271D01*
X103238744Y-79638754D01*
X103411785Y-79604334D01*
X103588215Y-79604334D01*
X103761256Y-79638754D01*
G37*
G36*
X113921256Y-79638754D02*
G01*
X114084257Y-79706271D01*
X114230954Y-79804291D01*
X114355709Y-79929046D01*
X114453729Y-80075743D01*
X114521246Y-80238744D01*
X114555666Y-80411785D01*
X114555666Y-80588215D01*
X114521246Y-80761256D01*
X114453729Y-80924257D01*
X114355709Y-81070954D01*
X114230954Y-81195709D01*
X114084257Y-81293729D01*
X113921256Y-81361246D01*
X113748215Y-81395666D01*
X113571785Y-81395666D01*
X113398744Y-81361246D01*
X113235743Y-81293729D01*
X113089046Y-81195709D01*
X112964291Y-81070954D01*
X112866271Y-80924257D01*
X112798754Y-80761256D01*
X112764334Y-80588215D01*
X112764334Y-80411785D01*
X112798754Y-80238744D01*
X112866271Y-80075743D01*
X112964291Y-79929046D01*
X113089046Y-79804291D01*
X113235743Y-79706271D01*
X113398744Y-79638754D01*
X113571785Y-79604334D01*
X113748215Y-79604334D01*
X113921256Y-79638754D01*
G37*
G36*
X121261256Y-79638754D02*
G01*
X121424257Y-79706271D01*
X121570954Y-79804291D01*
X121695709Y-79929046D01*
X121793729Y-80075743D01*
X121861246Y-80238744D01*
X121895666Y-80411785D01*
X121895666Y-80588215D01*
X121861246Y-80761256D01*
X121793729Y-80924257D01*
X121695709Y-81070954D01*
X121570954Y-81195709D01*
X121424257Y-81293729D01*
X121261256Y-81361246D01*
X121088215Y-81395666D01*
X120911785Y-81395666D01*
X120738744Y-81361246D01*
X120575743Y-81293729D01*
X120429046Y-81195709D01*
X120304291Y-81070954D01*
X120206271Y-80924257D01*
X120138754Y-80761256D01*
X120104334Y-80588215D01*
X120104334Y-80411785D01*
X120138754Y-80238744D01*
X120206271Y-80075743D01*
X120304291Y-79929046D01*
X120429046Y-79804291D01*
X120575743Y-79706271D01*
X120738744Y-79638754D01*
X120911785Y-79604334D01*
X121088215Y-79604334D01*
X121261256Y-79638754D01*
G37*
G36*
X131421256Y-79638754D02*
G01*
X131584257Y-79706271D01*
X131730954Y-79804291D01*
X131855709Y-79929046D01*
X131953729Y-80075743D01*
X132021246Y-80238744D01*
X132055666Y-80411785D01*
X132055666Y-80588215D01*
X132021246Y-80761256D01*
X131953729Y-80924257D01*
X131855709Y-81070954D01*
X131730954Y-81195709D01*
X131584257Y-81293729D01*
X131421256Y-81361246D01*
X131248215Y-81395666D01*
X131071785Y-81395666D01*
X130898744Y-81361246D01*
X130735743Y-81293729D01*
X130589046Y-81195709D01*
X130464291Y-81070954D01*
X130366271Y-80924257D01*
X130298754Y-80761256D01*
X130264334Y-80588215D01*
X130264334Y-80411785D01*
X130298754Y-80238744D01*
X130366271Y-80075743D01*
X130464291Y-79929046D01*
X130589046Y-79804291D01*
X130735743Y-79706271D01*
X130898744Y-79638754D01*
X131071785Y-79604334D01*
X131248215Y-79604334D01*
X131421256Y-79638754D01*
G37*
G36*
X48858268Y-77007612D02*
G01*
X48890711Y-77029289D01*
X48912388Y-77061732D01*
X48920000Y-77100000D01*
X48920000Y-78900000D01*
X48912388Y-78938268D01*
X48890711Y-78970711D01*
X48858268Y-78992388D01*
X48820000Y-79000000D01*
X47020000Y-79000000D01*
X46981732Y-78992388D01*
X46949289Y-78970711D01*
X46927612Y-78938268D01*
X46920000Y-78900000D01*
X46920000Y-77100000D01*
X46927612Y-77061732D01*
X46949289Y-77029289D01*
X46981732Y-77007612D01*
X47020000Y-77000000D01*
X48820000Y-77000000D01*
X48858268Y-77007612D01*
G37*
G36*
X62858268Y-77007612D02*
G01*
X62890711Y-77029289D01*
X62912388Y-77061732D01*
X62920000Y-77100000D01*
X62920000Y-78900000D01*
X62912388Y-78938268D01*
X62890711Y-78970711D01*
X62858268Y-78992388D01*
X62820000Y-79000000D01*
X61020000Y-79000000D01*
X60981732Y-78992388D01*
X60949289Y-78970711D01*
X60927612Y-78938268D01*
X60920000Y-78900000D01*
X60920000Y-77100000D01*
X60927612Y-77061732D01*
X60949289Y-77029289D01*
X60981732Y-77007612D01*
X61020000Y-77000000D01*
X62820000Y-77000000D01*
X62858268Y-77007612D01*
G37*
G36*
X50750285Y-77043060D02*
G01*
X50931397Y-77118079D01*
X51094393Y-77226990D01*
X51233010Y-77365607D01*
X51341921Y-77528603D01*
X51416940Y-77709715D01*
X51455185Y-77901983D01*
X51455185Y-78098017D01*
X51416940Y-78290285D01*
X51341921Y-78471397D01*
X51233010Y-78634393D01*
X51094393Y-78773010D01*
X50931397Y-78881921D01*
X50750285Y-78956940D01*
X50558017Y-78995185D01*
X50361983Y-78995185D01*
X50169715Y-78956940D01*
X49988603Y-78881921D01*
X49825607Y-78773010D01*
X49686990Y-78634393D01*
X49578079Y-78471397D01*
X49503060Y-78290285D01*
X49464815Y-78098017D01*
X49464815Y-77901983D01*
X49503060Y-77709715D01*
X49578079Y-77528603D01*
X49686990Y-77365607D01*
X49825607Y-77226990D01*
X49988603Y-77118079D01*
X50169715Y-77043060D01*
X50361983Y-77004815D01*
X50558017Y-77004815D01*
X50750285Y-77043060D01*
G37*
G36*
X64750285Y-77043060D02*
G01*
X64931397Y-77118079D01*
X65094393Y-77226990D01*
X65233010Y-77365607D01*
X65341921Y-77528603D01*
X65416940Y-77709715D01*
X65455185Y-77901983D01*
X65455185Y-78098017D01*
X65416940Y-78290285D01*
X65341921Y-78471397D01*
X65233010Y-78634393D01*
X65094393Y-78773010D01*
X64931397Y-78881921D01*
X64750285Y-78956940D01*
X64558017Y-78995185D01*
X64361983Y-78995185D01*
X64169715Y-78956940D01*
X63988603Y-78881921D01*
X63825607Y-78773010D01*
X63686990Y-78634393D01*
X63578079Y-78471397D01*
X63503060Y-78290285D01*
X63464815Y-78098017D01*
X63464815Y-77901983D01*
X63503060Y-77709715D01*
X63578079Y-77528603D01*
X63686990Y-77365607D01*
X63825607Y-77226990D01*
X63988603Y-77118079D01*
X64169715Y-77043060D01*
X64361983Y-77004815D01*
X64558017Y-77004815D01*
X64750285Y-77043060D01*
G37*
G36*
X90166742Y-77186601D02*
G01*
X90320687Y-77250367D01*
X90459234Y-77342941D01*
X90577059Y-77460766D01*
X90669633Y-77599313D01*
X90733399Y-77753258D01*
X90765907Y-77916685D01*
X90765907Y-78083315D01*
X90733399Y-78246742D01*
X90669633Y-78400687D01*
X90577059Y-78539234D01*
X90459234Y-78657059D01*
X90320687Y-78749633D01*
X90166742Y-78813399D01*
X90003315Y-78845907D01*
X89836685Y-78845907D01*
X89673258Y-78813399D01*
X89519313Y-78749633D01*
X89380766Y-78657059D01*
X89262941Y-78539234D01*
X89170367Y-78400687D01*
X89106601Y-78246742D01*
X89074093Y-78083315D01*
X89074093Y-77916685D01*
X89106601Y-77753258D01*
X89170367Y-77599313D01*
X89262941Y-77460766D01*
X89380766Y-77342941D01*
X89519313Y-77250367D01*
X89673258Y-77186601D01*
X89836685Y-77154093D01*
X90003315Y-77154093D01*
X90166742Y-77186601D01*
G37*
G36*
X95166742Y-77186601D02*
G01*
X95320687Y-77250367D01*
X95459234Y-77342941D01*
X95577059Y-77460766D01*
X95669633Y-77599313D01*
X95733399Y-77753258D01*
X95765907Y-77916685D01*
X95765907Y-78083315D01*
X95733399Y-78246742D01*
X95669633Y-78400687D01*
X95577059Y-78539234D01*
X95459234Y-78657059D01*
X95320687Y-78749633D01*
X95166742Y-78813399D01*
X95003315Y-78845907D01*
X94836685Y-78845907D01*
X94673258Y-78813399D01*
X94519313Y-78749633D01*
X94380766Y-78657059D01*
X94262941Y-78539234D01*
X94170367Y-78400687D01*
X94106601Y-78246742D01*
X94074093Y-78083315D01*
X94074093Y-77916685D01*
X94106601Y-77753258D01*
X94170367Y-77599313D01*
X94262941Y-77460766D01*
X94380766Y-77342941D01*
X94519313Y-77250367D01*
X94673258Y-77186601D01*
X94836685Y-77154093D01*
X95003315Y-77154093D01*
X95166742Y-77186601D01*
G37*
G36*
X121261256Y-74138754D02*
G01*
X121424257Y-74206271D01*
X121570954Y-74304291D01*
X121695709Y-74429046D01*
X121793729Y-74575743D01*
X121861246Y-74738744D01*
X121895666Y-74911785D01*
X121895666Y-75088215D01*
X121861246Y-75261256D01*
X121793729Y-75424257D01*
X121695709Y-75570954D01*
X121570954Y-75695709D01*
X121424257Y-75793729D01*
X121261256Y-75861246D01*
X121088215Y-75895666D01*
X120911785Y-75895666D01*
X120738744Y-75861246D01*
X120575743Y-75793729D01*
X120429046Y-75695709D01*
X120304291Y-75570954D01*
X120206271Y-75424257D01*
X120138754Y-75261256D01*
X120104334Y-75088215D01*
X120104334Y-74911785D01*
X120138754Y-74738744D01*
X120206271Y-74575743D01*
X120304291Y-74429046D01*
X120429046Y-74304291D01*
X120575743Y-74206271D01*
X120738744Y-74138754D01*
X120911785Y-74104334D01*
X121088215Y-74104334D01*
X121261256Y-74138754D01*
G37*
G36*
X131421256Y-74138754D02*
G01*
X131584257Y-74206271D01*
X131730954Y-74304291D01*
X131855709Y-74429046D01*
X131953729Y-74575743D01*
X132021246Y-74738744D01*
X132055666Y-74911785D01*
X132055666Y-75088215D01*
X132021246Y-75261256D01*
X131953729Y-75424257D01*
X131855709Y-75570954D01*
X131730954Y-75695709D01*
X131584257Y-75793729D01*
X131421256Y-75861246D01*
X131248215Y-75895666D01*
X131071785Y-75895666D01*
X130898744Y-75861246D01*
X130735743Y-75793729D01*
X130589046Y-75695709D01*
X130464291Y-75570954D01*
X130366271Y-75424257D01*
X130298754Y-75261256D01*
X130264334Y-75088215D01*
X130264334Y-74911785D01*
X130298754Y-74738744D01*
X130366271Y-74575743D01*
X130464291Y-74429046D01*
X130589046Y-74304291D01*
X130735743Y-74206271D01*
X130898744Y-74138754D01*
X131071785Y-74104334D01*
X131248215Y-74104334D01*
X131421256Y-74138754D01*
G37*
G36*
X112181256Y-71138754D02*
G01*
X112344257Y-71206271D01*
X112490954Y-71304291D01*
X112615709Y-71429046D01*
X112713729Y-71575743D01*
X112781246Y-71738744D01*
X112815666Y-71911785D01*
X112815666Y-72088215D01*
X112781246Y-72261256D01*
X112713729Y-72424257D01*
X112615709Y-72570954D01*
X112490954Y-72695709D01*
X112344257Y-72793729D01*
X112181256Y-72861246D01*
X112008215Y-72895666D01*
X111831785Y-72895666D01*
X111658744Y-72861246D01*
X111495743Y-72793729D01*
X111349046Y-72695709D01*
X111224291Y-72570954D01*
X111126271Y-72424257D01*
X111058754Y-72261256D01*
X111024334Y-72088215D01*
X111024334Y-71911785D01*
X111058754Y-71738744D01*
X111126271Y-71575743D01*
X111224291Y-71429046D01*
X111349046Y-71304291D01*
X111495743Y-71206271D01*
X111658744Y-71138754D01*
X111831785Y-71104334D01*
X112008215Y-71104334D01*
X112181256Y-71138754D01*
G37*
G36*
X117181256Y-71138754D02*
G01*
X117344257Y-71206271D01*
X117490954Y-71304291D01*
X117615709Y-71429046D01*
X117713729Y-71575743D01*
X117781246Y-71738744D01*
X117815666Y-71911785D01*
X117815666Y-72088215D01*
X117781246Y-72261256D01*
X117713729Y-72424257D01*
X117615709Y-72570954D01*
X117490954Y-72695709D01*
X117344257Y-72793729D01*
X117181256Y-72861246D01*
X117008215Y-72895666D01*
X116831785Y-72895666D01*
X116658744Y-72861246D01*
X116495743Y-72793729D01*
X116349046Y-72695709D01*
X116224291Y-72570954D01*
X116126271Y-72424257D01*
X116058754Y-72261256D01*
X116024334Y-72088215D01*
X116024334Y-71911785D01*
X116058754Y-71738744D01*
X116126271Y-71575743D01*
X116224291Y-71429046D01*
X116349046Y-71304291D01*
X116495743Y-71206271D01*
X116658744Y-71138754D01*
X116831785Y-71104334D01*
X117008215Y-71104334D01*
X117181256Y-71138754D01*
G37*
G36*
X50181256Y-69138754D02*
G01*
X50344257Y-69206271D01*
X50490954Y-69304291D01*
X50615709Y-69429046D01*
X50713729Y-69575743D01*
X50781246Y-69738744D01*
X50815666Y-69911785D01*
X50815666Y-70088215D01*
X50781246Y-70261256D01*
X50713729Y-70424257D01*
X50615709Y-70570954D01*
X50490954Y-70695709D01*
X50344257Y-70793729D01*
X50181256Y-70861246D01*
X50008215Y-70895666D01*
X49831785Y-70895666D01*
X49658744Y-70861246D01*
X49495743Y-70793729D01*
X49349046Y-70695709D01*
X49224291Y-70570954D01*
X49126271Y-70424257D01*
X49058754Y-70261256D01*
X49024334Y-70088215D01*
X49024334Y-69911785D01*
X49058754Y-69738744D01*
X49126271Y-69575743D01*
X49224291Y-69429046D01*
X49349046Y-69304291D01*
X49495743Y-69206271D01*
X49658744Y-69138754D01*
X49831785Y-69104334D01*
X50008215Y-69104334D01*
X50181256Y-69138754D01*
G37*
G36*
X60341256Y-69138754D02*
G01*
X60504257Y-69206271D01*
X60650954Y-69304291D01*
X60775709Y-69429046D01*
X60873729Y-69575743D01*
X60941246Y-69738744D01*
X60975666Y-69911785D01*
X60975666Y-70088215D01*
X60941246Y-70261256D01*
X60873729Y-70424257D01*
X60775709Y-70570954D01*
X60650954Y-70695709D01*
X60504257Y-70793729D01*
X60341256Y-70861246D01*
X60168215Y-70895666D01*
X59991785Y-70895666D01*
X59818744Y-70861246D01*
X59655743Y-70793729D01*
X59509046Y-70695709D01*
X59384291Y-70570954D01*
X59286271Y-70424257D01*
X59218754Y-70261256D01*
X59184334Y-70088215D01*
X59184334Y-69911785D01*
X59218754Y-69738744D01*
X59286271Y-69575743D01*
X59384291Y-69429046D01*
X59509046Y-69304291D01*
X59655743Y-69206271D01*
X59818744Y-69138754D01*
X59991785Y-69104334D01*
X60168215Y-69104334D01*
X60341256Y-69138754D01*
G37*
G36*
X98181256Y-69138754D02*
G01*
X98344257Y-69206271D01*
X98490954Y-69304291D01*
X98615709Y-69429046D01*
X98713729Y-69575743D01*
X98781246Y-69738744D01*
X98815666Y-69911785D01*
X98815666Y-70088215D01*
X98781246Y-70261256D01*
X98713729Y-70424257D01*
X98615709Y-70570954D01*
X98490954Y-70695709D01*
X98344257Y-70793729D01*
X98181256Y-70861246D01*
X98008215Y-70895666D01*
X97831785Y-70895666D01*
X97658744Y-70861246D01*
X97495743Y-70793729D01*
X97349046Y-70695709D01*
X97224291Y-70570954D01*
X97126271Y-70424257D01*
X97058754Y-70261256D01*
X97024334Y-70088215D01*
X97024334Y-69911785D01*
X97058754Y-69738744D01*
X97126271Y-69575743D01*
X97224291Y-69429046D01*
X97349046Y-69304291D01*
X97495743Y-69206271D01*
X97658744Y-69138754D01*
X97831785Y-69104334D01*
X98008215Y-69104334D01*
X98181256Y-69138754D01*
G37*
G36*
X103181256Y-69138754D02*
G01*
X103344257Y-69206271D01*
X103490954Y-69304291D01*
X103615709Y-69429046D01*
X103713729Y-69575743D01*
X103781246Y-69738744D01*
X103815666Y-69911785D01*
X103815666Y-70088215D01*
X103781246Y-70261256D01*
X103713729Y-70424257D01*
X103615709Y-70570954D01*
X103490954Y-70695709D01*
X103344257Y-70793729D01*
X103181256Y-70861246D01*
X103008215Y-70895666D01*
X102831785Y-70895666D01*
X102658744Y-70861246D01*
X102495743Y-70793729D01*
X102349046Y-70695709D01*
X102224291Y-70570954D01*
X102126271Y-70424257D01*
X102058754Y-70261256D01*
X102024334Y-70088215D01*
X102024334Y-69911785D01*
X102058754Y-69738744D01*
X102126271Y-69575743D01*
X102224291Y-69429046D01*
X102349046Y-69304291D01*
X102495743Y-69206271D01*
X102658744Y-69138754D01*
X102831785Y-69104334D01*
X103008215Y-69104334D01*
X103181256Y-69138754D01*
G37*
G36*
X86166742Y-69186601D02*
G01*
X86320687Y-69250367D01*
X86459234Y-69342941D01*
X86577059Y-69460766D01*
X86669633Y-69599313D01*
X86733399Y-69753258D01*
X86765907Y-69916685D01*
X86765907Y-70083315D01*
X86733399Y-70246742D01*
X86669633Y-70400687D01*
X86577059Y-70539234D01*
X86459234Y-70657059D01*
X86320687Y-70749633D01*
X86166742Y-70813399D01*
X86003315Y-70845907D01*
X85836685Y-70845907D01*
X85673258Y-70813399D01*
X85519313Y-70749633D01*
X85380766Y-70657059D01*
X85262941Y-70539234D01*
X85170367Y-70400687D01*
X85106601Y-70246742D01*
X85074093Y-70083315D01*
X85074093Y-69916685D01*
X85106601Y-69753258D01*
X85170367Y-69599313D01*
X85262941Y-69460766D01*
X85380766Y-69342941D01*
X85519313Y-69250367D01*
X85673258Y-69186601D01*
X85836685Y-69154093D01*
X86003315Y-69154093D01*
X86166742Y-69186601D01*
G37*
G36*
X91166742Y-69186601D02*
G01*
X91320687Y-69250367D01*
X91459234Y-69342941D01*
X91577059Y-69460766D01*
X91669633Y-69599313D01*
X91733399Y-69753258D01*
X91765907Y-69916685D01*
X91765907Y-70083315D01*
X91733399Y-70246742D01*
X91669633Y-70400687D01*
X91577059Y-70539234D01*
X91459234Y-70657059D01*
X91320687Y-70749633D01*
X91166742Y-70813399D01*
X91003315Y-70845907D01*
X90836685Y-70845907D01*
X90673258Y-70813399D01*
X90519313Y-70749633D01*
X90380766Y-70657059D01*
X90262941Y-70539234D01*
X90170367Y-70400687D01*
X90106601Y-70246742D01*
X90074093Y-70083315D01*
X90074093Y-69916685D01*
X90106601Y-69753258D01*
X90170367Y-69599313D01*
X90262941Y-69460766D01*
X90380766Y-69342941D01*
X90519313Y-69250367D01*
X90673258Y-69186601D01*
X90836685Y-69154093D01*
X91003315Y-69154093D01*
X91166742Y-69186601D01*
G37*
G36*
X66158033Y-69215309D02*
G01*
X66306545Y-69276825D01*
X66440202Y-69366131D01*
X66553869Y-69479798D01*
X66643175Y-69613455D01*
X66704691Y-69761967D01*
X66736051Y-69919626D01*
X66736051Y-70080374D01*
X66704691Y-70238033D01*
X66643175Y-70386545D01*
X66553869Y-70520202D01*
X66440202Y-70633869D01*
X66306545Y-70723175D01*
X66158033Y-70784691D01*
X66000374Y-70816051D01*
X65839626Y-70816051D01*
X65681967Y-70784691D01*
X65533455Y-70723175D01*
X65399798Y-70633869D01*
X65286131Y-70520202D01*
X65196825Y-70386545D01*
X65135309Y-70238033D01*
X65103949Y-70080374D01*
X65103949Y-69919626D01*
X65135309Y-69761967D01*
X65196825Y-69613455D01*
X65286131Y-69479798D01*
X65399798Y-69366131D01*
X65533455Y-69276825D01*
X65681967Y-69215309D01*
X65839626Y-69183949D01*
X66000374Y-69183949D01*
X66158033Y-69215309D01*
G37*
G36*
X68698033Y-69215309D02*
G01*
X68846545Y-69276825D01*
X68980202Y-69366131D01*
X69093869Y-69479798D01*
X69183175Y-69613455D01*
X69244691Y-69761967D01*
X69276051Y-69919626D01*
X69276051Y-70080374D01*
X69244691Y-70238033D01*
X69183175Y-70386545D01*
X69093869Y-70520202D01*
X68980202Y-70633869D01*
X68846545Y-70723175D01*
X68698033Y-70784691D01*
X68540374Y-70816051D01*
X68379626Y-70816051D01*
X68221967Y-70784691D01*
X68073455Y-70723175D01*
X67939798Y-70633869D01*
X67826131Y-70520202D01*
X67736825Y-70386545D01*
X67675309Y-70238033D01*
X67643949Y-70080374D01*
X67643949Y-69919626D01*
X67675309Y-69761967D01*
X67736825Y-69613455D01*
X67826131Y-69479798D01*
X67939798Y-69366131D01*
X68073455Y-69276825D01*
X68221967Y-69215309D01*
X68379626Y-69183949D01*
X68540374Y-69183949D01*
X68698033Y-69215309D01*
G37*
G36*
X71238033Y-69215309D02*
G01*
X71386545Y-69276825D01*
X71520202Y-69366131D01*
X71633869Y-69479798D01*
X71723175Y-69613455D01*
X71784691Y-69761967D01*
X71816051Y-69919626D01*
X71816051Y-70080374D01*
X71784691Y-70238033D01*
X71723175Y-70386545D01*
X71633869Y-70520202D01*
X71520202Y-70633869D01*
X71386545Y-70723175D01*
X71238033Y-70784691D01*
X71080374Y-70816051D01*
X70919626Y-70816051D01*
X70761967Y-70784691D01*
X70613455Y-70723175D01*
X70479798Y-70633869D01*
X70366131Y-70520202D01*
X70276825Y-70386545D01*
X70215309Y-70238033D01*
X70183949Y-70080374D01*
X70183949Y-69919626D01*
X70215309Y-69761967D01*
X70276825Y-69613455D01*
X70366131Y-69479798D01*
X70479798Y-69366131D01*
X70613455Y-69276825D01*
X70761967Y-69215309D01*
X70919626Y-69183949D01*
X71080374Y-69183949D01*
X71238033Y-69215309D01*
G37*
G36*
X28223479Y-66735919D02*
G01*
X28417488Y-66798957D01*
X28599248Y-66891568D01*
X28764282Y-67011472D01*
X28908528Y-67155718D01*
X29028432Y-67320752D01*
X29121043Y-67502512D01*
X29184081Y-67696521D01*
X29215993Y-67898003D01*
X29215993Y-68101997D01*
X29184081Y-68303479D01*
X29121043Y-68497488D01*
X29028432Y-68679248D01*
X28908528Y-68844282D01*
X28764282Y-68988528D01*
X28599248Y-69108432D01*
X28417488Y-69201043D01*
X28223479Y-69264081D01*
X28021997Y-69295993D01*
X27818003Y-69295993D01*
X27616521Y-69264081D01*
X27422512Y-69201043D01*
X27240752Y-69108432D01*
X27075718Y-68988528D01*
X26931472Y-68844282D01*
X26811568Y-68679248D01*
X26718957Y-68497488D01*
X26655919Y-68303479D01*
X26624007Y-68101997D01*
X26624007Y-67898003D01*
X26655919Y-67696521D01*
X26718957Y-67502512D01*
X26811568Y-67320752D01*
X26931472Y-67155718D01*
X27075718Y-67011472D01*
X27240752Y-66891568D01*
X27422512Y-66798957D01*
X27616521Y-66735919D01*
X27818003Y-66704007D01*
X28021997Y-66704007D01*
X28223479Y-66735919D01*
G37*
G36*
X43463479Y-66735919D02*
G01*
X43657488Y-66798957D01*
X43839248Y-66891568D01*
X44004282Y-67011472D01*
X44148528Y-67155718D01*
X44268432Y-67320752D01*
X44361043Y-67502512D01*
X44424081Y-67696521D01*
X44455993Y-67898003D01*
X44455993Y-68101997D01*
X44424081Y-68303479D01*
X44361043Y-68497488D01*
X44268432Y-68679248D01*
X44148528Y-68844282D01*
X44004282Y-68988528D01*
X43839248Y-69108432D01*
X43657488Y-69201043D01*
X43463479Y-69264081D01*
X43261997Y-69295993D01*
X43058003Y-69295993D01*
X42856521Y-69264081D01*
X42662512Y-69201043D01*
X42480752Y-69108432D01*
X42315718Y-68988528D01*
X42171472Y-68844282D01*
X42051568Y-68679248D01*
X41958957Y-68497488D01*
X41895919Y-68303479D01*
X41864007Y-68101997D01*
X41864007Y-67898003D01*
X41895919Y-67696521D01*
X41958957Y-67502512D01*
X42051568Y-67320752D01*
X42171472Y-67155718D01*
X42315718Y-67011472D01*
X42480752Y-66891568D01*
X42662512Y-66798957D01*
X42856521Y-66735919D01*
X43058003Y-66704007D01*
X43261997Y-66704007D01*
X43463479Y-66735919D01*
G37*
G36*
X112181256Y-66758754D02*
G01*
X112344257Y-66826271D01*
X112490954Y-66924291D01*
X112615709Y-67049046D01*
X112713729Y-67195743D01*
X112781246Y-67358744D01*
X112815666Y-67531785D01*
X112815666Y-67708215D01*
X112781246Y-67881256D01*
X112713729Y-68044257D01*
X112615709Y-68190954D01*
X112490954Y-68315709D01*
X112344257Y-68413729D01*
X112181256Y-68481246D01*
X112008215Y-68515666D01*
X111831785Y-68515666D01*
X111658744Y-68481246D01*
X111495743Y-68413729D01*
X111349046Y-68315709D01*
X111224291Y-68190954D01*
X111126271Y-68044257D01*
X111058754Y-67881256D01*
X111024334Y-67708215D01*
X111024334Y-67531785D01*
X111058754Y-67358744D01*
X111126271Y-67195743D01*
X111224291Y-67049046D01*
X111349046Y-66924291D01*
X111495743Y-66826271D01*
X111658744Y-66758754D01*
X111831785Y-66724334D01*
X112008215Y-66724334D01*
X112181256Y-66758754D01*
G37*
G36*
X119801256Y-66758754D02*
G01*
X119964257Y-66826271D01*
X120110954Y-66924291D01*
X120235709Y-67049046D01*
X120333729Y-67195743D01*
X120401246Y-67358744D01*
X120435666Y-67531785D01*
X120435666Y-67708215D01*
X120401246Y-67881256D01*
X120333729Y-68044257D01*
X120235709Y-68190954D01*
X120110954Y-68315709D01*
X119964257Y-68413729D01*
X119801256Y-68481246D01*
X119628215Y-68515666D01*
X119451785Y-68515666D01*
X119278744Y-68481246D01*
X119115743Y-68413729D01*
X118969046Y-68315709D01*
X118844291Y-68190954D01*
X118746271Y-68044257D01*
X118678754Y-67881256D01*
X118644334Y-67708215D01*
X118644334Y-67531785D01*
X118678754Y-67358744D01*
X118746271Y-67195743D01*
X118844291Y-67049046D01*
X118969046Y-66924291D01*
X119115743Y-66826271D01*
X119278744Y-66758754D01*
X119451785Y-66724334D01*
X119628215Y-66724334D01*
X119801256Y-66758754D01*
G37*
G36*
X127299868Y-65564550D02*
G01*
X127305586Y-65567345D01*
X127307962Y-65567722D01*
X127345987Y-65587096D01*
X127403377Y-65615153D01*
X127484847Y-65696623D01*
X127512907Y-65754020D01*
X127532276Y-65792034D01*
X127532652Y-65794408D01*
X127535450Y-65800132D01*
X127550000Y-65900000D01*
X127550000Y-67100000D01*
X127535450Y-67199868D01*
X127532652Y-67205589D01*
X127532277Y-67207962D01*
X127512926Y-67245939D01*
X127484847Y-67303377D01*
X127403377Y-67384847D01*
X127345955Y-67412919D01*
X127307965Y-67432276D01*
X127305591Y-67432651D01*
X127299868Y-67435450D01*
X127200000Y-67450000D01*
X125750000Y-67450000D01*
X125650132Y-67435450D01*
X125644410Y-67432652D01*
X125642037Y-67432277D01*
X125604035Y-67412914D01*
X125546623Y-67384847D01*
X125465153Y-67303377D01*
X125437104Y-67246003D01*
X125417723Y-67207965D01*
X125417346Y-67205588D01*
X125414550Y-67199868D01*
X125400000Y-67100000D01*
X125400000Y-65900000D01*
X125414550Y-65800132D01*
X125417345Y-65794413D01*
X125417722Y-65792037D01*
X125437108Y-65753987D01*
X125465153Y-65696623D01*
X125546623Y-65615153D01*
X125603971Y-65587116D01*
X125642034Y-65567723D01*
X125644411Y-65567346D01*
X125650132Y-65564550D01*
X125750000Y-65550000D01*
X127200000Y-65550000D01*
X127299868Y-65564550D01*
G37*
G36*
X112181256Y-64218754D02*
G01*
X112344257Y-64286271D01*
X112490954Y-64384291D01*
X112615709Y-64509046D01*
X112713729Y-64655743D01*
X112781246Y-64818744D01*
X112815666Y-64991785D01*
X112815666Y-65168215D01*
X112781246Y-65341256D01*
X112713729Y-65504257D01*
X112615709Y-65650954D01*
X112490954Y-65775709D01*
X112344257Y-65873729D01*
X112181256Y-65941246D01*
X112008215Y-65975666D01*
X111831785Y-65975666D01*
X111658744Y-65941246D01*
X111495743Y-65873729D01*
X111349046Y-65775709D01*
X111224291Y-65650954D01*
X111126271Y-65504257D01*
X111058754Y-65341256D01*
X111024334Y-65168215D01*
X111024334Y-64991785D01*
X111058754Y-64818744D01*
X111126271Y-64655743D01*
X111224291Y-64509046D01*
X111349046Y-64384291D01*
X111495743Y-64286271D01*
X111658744Y-64218754D01*
X111831785Y-64184334D01*
X112008215Y-64184334D01*
X112181256Y-64218754D01*
G37*
G36*
X119801256Y-64218754D02*
G01*
X119964257Y-64286271D01*
X120110954Y-64384291D01*
X120235709Y-64509046D01*
X120333729Y-64655743D01*
X120401246Y-64818744D01*
X120435666Y-64991785D01*
X120435666Y-65168215D01*
X120401246Y-65341256D01*
X120333729Y-65504257D01*
X120235709Y-65650954D01*
X120110954Y-65775709D01*
X119964257Y-65873729D01*
X119801256Y-65941246D01*
X119628215Y-65975666D01*
X119451785Y-65975666D01*
X119278744Y-65941246D01*
X119115743Y-65873729D01*
X118969046Y-65775709D01*
X118844291Y-65650954D01*
X118746271Y-65504257D01*
X118678754Y-65341256D01*
X118644334Y-65168215D01*
X118644334Y-64991785D01*
X118678754Y-64818744D01*
X118746271Y-64655743D01*
X118844291Y-64509046D01*
X118969046Y-64384291D01*
X119115743Y-64286271D01*
X119278744Y-64218754D01*
X119451785Y-64184334D01*
X119628215Y-64184334D01*
X119801256Y-64218754D01*
G37*
G36*
X126693116Y-63054575D02*
G01*
X126875770Y-63090907D01*
X127047827Y-63162175D01*
X127202674Y-63265640D01*
X127334360Y-63397326D01*
X127437825Y-63552173D01*
X127509093Y-63724230D01*
X127545425Y-63906884D01*
X127545425Y-64093116D01*
X127509093Y-64275770D01*
X127437825Y-64447827D01*
X127334360Y-64602674D01*
X127202674Y-64734360D01*
X127047827Y-64837825D01*
X126875770Y-64909093D01*
X126693116Y-64945425D01*
X126600000Y-64950000D01*
X126598768Y-64950000D01*
X126351232Y-64950000D01*
X126350000Y-64950000D01*
X126256884Y-64945425D01*
X126074230Y-64909093D01*
X125902173Y-64837825D01*
X125747326Y-64734360D01*
X125615640Y-64602674D01*
X125512175Y-64447827D01*
X125440907Y-64275770D01*
X125404575Y-64093116D01*
X125404575Y-63906884D01*
X125440907Y-63724230D01*
X125512175Y-63552173D01*
X125615640Y-63397326D01*
X125747326Y-63265640D01*
X125902173Y-63162175D01*
X126074230Y-63090907D01*
X126256884Y-63054575D01*
X126350000Y-63050000D01*
X126600000Y-63050000D01*
X126693116Y-63054575D01*
G37*
G36*
X112181256Y-61678754D02*
G01*
X112344257Y-61746271D01*
X112490954Y-61844291D01*
X112615709Y-61969046D01*
X112713729Y-62115743D01*
X112781246Y-62278744D01*
X112815666Y-62451785D01*
X112815666Y-62628215D01*
X112781246Y-62801256D01*
X112713729Y-62964257D01*
X112615709Y-63110954D01*
X112490954Y-63235709D01*
X112344257Y-63333729D01*
X112181256Y-63401246D01*
X112008215Y-63435666D01*
X111831785Y-63435666D01*
X111658744Y-63401246D01*
X111495743Y-63333729D01*
X111349046Y-63235709D01*
X111224291Y-63110954D01*
X111126271Y-62964257D01*
X111058754Y-62801256D01*
X111024334Y-62628215D01*
X111024334Y-62451785D01*
X111058754Y-62278744D01*
X111126271Y-62115743D01*
X111224291Y-61969046D01*
X111349046Y-61844291D01*
X111495743Y-61746271D01*
X111658744Y-61678754D01*
X111831785Y-61644334D01*
X112008215Y-61644334D01*
X112181256Y-61678754D01*
G37*
G36*
X119801256Y-61678754D02*
G01*
X119964257Y-61746271D01*
X120110954Y-61844291D01*
X120235709Y-61969046D01*
X120333729Y-62115743D01*
X120401246Y-62278744D01*
X120435666Y-62451785D01*
X120435666Y-62628215D01*
X120401246Y-62801256D01*
X120333729Y-62964257D01*
X120235709Y-63110954D01*
X120110954Y-63235709D01*
X119964257Y-63333729D01*
X119801256Y-63401246D01*
X119628215Y-63435666D01*
X119451785Y-63435666D01*
X119278744Y-63401246D01*
X119115743Y-63333729D01*
X118969046Y-63235709D01*
X118844291Y-63110954D01*
X118746271Y-62964257D01*
X118678754Y-62801256D01*
X118644334Y-62628215D01*
X118644334Y-62451785D01*
X118678754Y-62278744D01*
X118746271Y-62115743D01*
X118844291Y-61969046D01*
X118969046Y-61844291D01*
X119115743Y-61746271D01*
X119278744Y-61678754D01*
X119451785Y-61644334D01*
X119628215Y-61644334D01*
X119801256Y-61678754D01*
G37*
G36*
X126693116Y-60554575D02*
G01*
X126875770Y-60590907D01*
X127047827Y-60662175D01*
X127202674Y-60765640D01*
X127334360Y-60897326D01*
X127437825Y-61052173D01*
X127509093Y-61224230D01*
X127545425Y-61406884D01*
X127545425Y-61593116D01*
X127509093Y-61775770D01*
X127437825Y-61947827D01*
X127334360Y-62102674D01*
X127202674Y-62234360D01*
X127047827Y-62337825D01*
X126875770Y-62409093D01*
X126693116Y-62445425D01*
X126600000Y-62450000D01*
X126598768Y-62450000D01*
X126351232Y-62450000D01*
X126350000Y-62450000D01*
X126256884Y-62445425D01*
X126074230Y-62409093D01*
X125902173Y-62337825D01*
X125747326Y-62234360D01*
X125615640Y-62102674D01*
X125512175Y-61947827D01*
X125440907Y-61775770D01*
X125404575Y-61593116D01*
X125404575Y-61406884D01*
X125440907Y-61224230D01*
X125512175Y-61052173D01*
X125615640Y-60897326D01*
X125747326Y-60765640D01*
X125902173Y-60662175D01*
X126074230Y-60590907D01*
X126256884Y-60554575D01*
X126350000Y-60550000D01*
X126600000Y-60550000D01*
X126693116Y-60554575D01*
G37*
G36*
X94181256Y-60138754D02*
G01*
X94344257Y-60206271D01*
X94490954Y-60304291D01*
X94615709Y-60429046D01*
X94713729Y-60575743D01*
X94781246Y-60738744D01*
X94815666Y-60911785D01*
X94815666Y-61088215D01*
X94781246Y-61261256D01*
X94713729Y-61424257D01*
X94615709Y-61570954D01*
X94490954Y-61695709D01*
X94344257Y-61793729D01*
X94181256Y-61861246D01*
X94008215Y-61895666D01*
X93831785Y-61895666D01*
X93658744Y-61861246D01*
X93495743Y-61793729D01*
X93349046Y-61695709D01*
X93224291Y-61570954D01*
X93126271Y-61424257D01*
X93058754Y-61261256D01*
X93024334Y-61088215D01*
X93024334Y-60911785D01*
X93058754Y-60738744D01*
X93126271Y-60575743D01*
X93224291Y-60429046D01*
X93349046Y-60304291D01*
X93495743Y-60206271D01*
X93658744Y-60138754D01*
X93831785Y-60104334D01*
X94008215Y-60104334D01*
X94181256Y-60138754D01*
G37*
G36*
X99181256Y-60138754D02*
G01*
X99344257Y-60206271D01*
X99490954Y-60304291D01*
X99615709Y-60429046D01*
X99713729Y-60575743D01*
X99781246Y-60738744D01*
X99815666Y-60911785D01*
X99815666Y-61088215D01*
X99781246Y-61261256D01*
X99713729Y-61424257D01*
X99615709Y-61570954D01*
X99490954Y-61695709D01*
X99344257Y-61793729D01*
X99181256Y-61861246D01*
X99008215Y-61895666D01*
X98831785Y-61895666D01*
X98658744Y-61861246D01*
X98495743Y-61793729D01*
X98349046Y-61695709D01*
X98224291Y-61570954D01*
X98126271Y-61424257D01*
X98058754Y-61261256D01*
X98024334Y-61088215D01*
X98024334Y-60911785D01*
X98058754Y-60738744D01*
X98126271Y-60575743D01*
X98224291Y-60429046D01*
X98349046Y-60304291D01*
X98495743Y-60206271D01*
X98658744Y-60138754D01*
X98831785Y-60104334D01*
X99008215Y-60104334D01*
X99181256Y-60138754D01*
G37*
G36*
X112569868Y-59114550D02*
G01*
X112575586Y-59117345D01*
X112577962Y-59117722D01*
X112615987Y-59137096D01*
X112673377Y-59165153D01*
X112754847Y-59246623D01*
X112782907Y-59304020D01*
X112802276Y-59342034D01*
X112802652Y-59344408D01*
X112805450Y-59350132D01*
X112820000Y-59450000D01*
X112820000Y-60550000D01*
X112805450Y-60649868D01*
X112802652Y-60655589D01*
X112802277Y-60657962D01*
X112782926Y-60695939D01*
X112754847Y-60753377D01*
X112673377Y-60834847D01*
X112615955Y-60862919D01*
X112577965Y-60882276D01*
X112575591Y-60882651D01*
X112569868Y-60885450D01*
X112470000Y-60900000D01*
X111370000Y-60900000D01*
X111270132Y-60885450D01*
X111264410Y-60882652D01*
X111262037Y-60882277D01*
X111224035Y-60862914D01*
X111166623Y-60834847D01*
X111085153Y-60753377D01*
X111057104Y-60696003D01*
X111037723Y-60657965D01*
X111037346Y-60655588D01*
X111034550Y-60649868D01*
X111020000Y-60550000D01*
X111020000Y-59450000D01*
X111034550Y-59350132D01*
X111037345Y-59344413D01*
X111037722Y-59342037D01*
X111057108Y-59303987D01*
X111085153Y-59246623D01*
X111166623Y-59165153D01*
X111223971Y-59137116D01*
X111262034Y-59117723D01*
X111264411Y-59117346D01*
X111270132Y-59114550D01*
X111370000Y-59100000D01*
X112470000Y-59100000D01*
X112569868Y-59114550D01*
G37*
G36*
X119801256Y-59138754D02*
G01*
X119964257Y-59206271D01*
X120110954Y-59304291D01*
X120235709Y-59429046D01*
X120333729Y-59575743D01*
X120401246Y-59738744D01*
X120435666Y-59911785D01*
X120435666Y-60088215D01*
X120401246Y-60261256D01*
X120333729Y-60424257D01*
X120235709Y-60570954D01*
X120110954Y-60695709D01*
X119964257Y-60793729D01*
X119801256Y-60861246D01*
X119628215Y-60895666D01*
X119451785Y-60895666D01*
X119278744Y-60861246D01*
X119115743Y-60793729D01*
X118969046Y-60695709D01*
X118844291Y-60570954D01*
X118746271Y-60424257D01*
X118678754Y-60261256D01*
X118644334Y-60088215D01*
X118644334Y-59911785D01*
X118678754Y-59738744D01*
X118746271Y-59575743D01*
X118844291Y-59429046D01*
X118969046Y-59304291D01*
X119115743Y-59206271D01*
X119278744Y-59138754D01*
X119451785Y-59104334D01*
X119628215Y-59104334D01*
X119801256Y-59138754D01*
G37*
G36*
X82769868Y-56914550D02*
G01*
X82775586Y-56917345D01*
X82777962Y-56917722D01*
X82815987Y-56937096D01*
X82873377Y-56965153D01*
X82954847Y-57046623D01*
X82982907Y-57104020D01*
X83002276Y-57142034D01*
X83002652Y-57144408D01*
X83005450Y-57150132D01*
X83020000Y-57250000D01*
X83020000Y-58750000D01*
X83005450Y-58849868D01*
X83002652Y-58855589D01*
X83002277Y-58857962D01*
X82982926Y-58895939D01*
X82954847Y-58953377D01*
X82873377Y-59034847D01*
X82815955Y-59062919D01*
X82777965Y-59082276D01*
X82775591Y-59082651D01*
X82769868Y-59085450D01*
X82670000Y-59100000D01*
X81170000Y-59100000D01*
X81070132Y-59085450D01*
X81064410Y-59082652D01*
X81062037Y-59082277D01*
X81024035Y-59062914D01*
X80966623Y-59034847D01*
X80885153Y-58953377D01*
X80857104Y-58896003D01*
X80837723Y-58857965D01*
X80837346Y-58855588D01*
X80834550Y-58849868D01*
X80820000Y-58750000D01*
X80820000Y-57250000D01*
X80834550Y-57150132D01*
X80837345Y-57144413D01*
X80837722Y-57142037D01*
X80857108Y-57103987D01*
X80885153Y-57046623D01*
X80966623Y-56965153D01*
X81023971Y-56937116D01*
X81062034Y-56917723D01*
X81064411Y-56917346D01*
X81070132Y-56914550D01*
X81170000Y-56900000D01*
X82670000Y-56900000D01*
X82769868Y-56914550D01*
G37*
G36*
X87176790Y-56930393D02*
G01*
X87340952Y-56983733D01*
X87494748Y-57062096D01*
X87634393Y-57163553D01*
X87756447Y-57285607D01*
X87857904Y-57425252D01*
X87936267Y-57579048D01*
X87989607Y-57743210D01*
X88016609Y-57913695D01*
X88016609Y-58086305D01*
X87989607Y-58256790D01*
X87936267Y-58420952D01*
X87857904Y-58574748D01*
X87756447Y-58714393D01*
X87634393Y-58836447D01*
X87494748Y-58937904D01*
X87340952Y-59016267D01*
X87176790Y-59069607D01*
X87006305Y-59096609D01*
X86833695Y-59096609D01*
X86663210Y-59069607D01*
X86499048Y-59016267D01*
X86345252Y-58937904D01*
X86205607Y-58836447D01*
X86083553Y-58714393D01*
X85982096Y-58574748D01*
X85903733Y-58420952D01*
X85850393Y-58256790D01*
X85823391Y-58086305D01*
X85823391Y-57913695D01*
X85850393Y-57743210D01*
X85903733Y-57579048D01*
X85982096Y-57425252D01*
X86083553Y-57285607D01*
X86205607Y-57163553D01*
X86345252Y-57062096D01*
X86499048Y-56983733D01*
X86663210Y-56930393D01*
X86833695Y-56903391D01*
X87006305Y-56903391D01*
X87176790Y-56930393D01*
G37*
G36*
X66181256Y-54138754D02*
G01*
X66344257Y-54206271D01*
X66490954Y-54304291D01*
X66615709Y-54429046D01*
X66713729Y-54575743D01*
X66781246Y-54738744D01*
X66815666Y-54911785D01*
X66815666Y-55088215D01*
X66781246Y-55261256D01*
X66713729Y-55424257D01*
X66615709Y-55570954D01*
X66490954Y-55695709D01*
X66344257Y-55793729D01*
X66181256Y-55861246D01*
X66008215Y-55895666D01*
X65831785Y-55895666D01*
X65658744Y-55861246D01*
X65495743Y-55793729D01*
X65349046Y-55695709D01*
X65224291Y-55570954D01*
X65126271Y-55424257D01*
X65058754Y-55261256D01*
X65024334Y-55088215D01*
X65024334Y-54911785D01*
X65058754Y-54738744D01*
X65126271Y-54575743D01*
X65224291Y-54429046D01*
X65349046Y-54304291D01*
X65495743Y-54206271D01*
X65658744Y-54138754D01*
X65831785Y-54104334D01*
X66008215Y-54104334D01*
X66181256Y-54138754D01*
G37*
G36*
X76341256Y-54138754D02*
G01*
X76504257Y-54206271D01*
X76650954Y-54304291D01*
X76775709Y-54429046D01*
X76873729Y-54575743D01*
X76941246Y-54738744D01*
X76975666Y-54911785D01*
X76975666Y-55088215D01*
X76941246Y-55261256D01*
X76873729Y-55424257D01*
X76775709Y-55570954D01*
X76650954Y-55695709D01*
X76504257Y-55793729D01*
X76341256Y-55861246D01*
X76168215Y-55895666D01*
X75991785Y-55895666D01*
X75818744Y-55861246D01*
X75655743Y-55793729D01*
X75509046Y-55695709D01*
X75384291Y-55570954D01*
X75286271Y-55424257D01*
X75218754Y-55261256D01*
X75184334Y-55088215D01*
X75184334Y-54911785D01*
X75218754Y-54738744D01*
X75286271Y-54575743D01*
X75384291Y-54429046D01*
X75509046Y-54304291D01*
X75655743Y-54206271D01*
X75818744Y-54138754D01*
X75991785Y-54104334D01*
X76168215Y-54104334D01*
X76341256Y-54138754D01*
G37*
G36*
X30969867Y-52714550D02*
G01*
X30975585Y-52717345D01*
X30977962Y-52717722D01*
X31016001Y-52737104D01*
X31073376Y-52765153D01*
X31154847Y-52846624D01*
X31182907Y-52904021D01*
X31202277Y-52942037D01*
X31202653Y-52944412D01*
X31205450Y-52950133D01*
X31219999Y-53050002D01*
X31219999Y-53053925D01*
X31220000Y-53053932D01*
X31220000Y-54101987D01*
X31220000Y-54949999D01*
X31205450Y-55049867D01*
X31202652Y-55055588D01*
X31202277Y-55057962D01*
X31182919Y-55095953D01*
X31154847Y-55153376D01*
X31073376Y-55234847D01*
X31015953Y-55262919D01*
X30977962Y-55282277D01*
X30975588Y-55282652D01*
X30969867Y-55285450D01*
X30869998Y-55299999D01*
X30866073Y-55299999D01*
X30866067Y-55300000D01*
X28973933Y-55300000D01*
X28973932Y-55299999D01*
X28970001Y-55300000D01*
X28870133Y-55285450D01*
X28864412Y-55282653D01*
X28862037Y-55282277D01*
X28824021Y-55262907D01*
X28766624Y-55234847D01*
X28685153Y-55153376D01*
X28657104Y-55096001D01*
X28637722Y-55057962D01*
X28637345Y-55055585D01*
X28634550Y-55049867D01*
X28620001Y-54949998D01*
X28620000Y-54946073D01*
X28620000Y-54946067D01*
X28620000Y-53053932D01*
X28620000Y-53053931D01*
X28620000Y-53050001D01*
X28634550Y-52950133D01*
X28637345Y-52944415D01*
X28637722Y-52942037D01*
X28657116Y-52903973D01*
X28685153Y-52846624D01*
X28766624Y-52765153D01*
X28823973Y-52737116D01*
X28862037Y-52717722D01*
X28864415Y-52717345D01*
X28870133Y-52714550D01*
X28970002Y-52700001D01*
X28973926Y-52700000D01*
X28973933Y-52700000D01*
X30866067Y-52700000D01*
X30869999Y-52700000D01*
X30969867Y-52714550D01*
G37*
G36*
X37723479Y-52735919D02*
G01*
X37917488Y-52798957D01*
X38099248Y-52891568D01*
X38264282Y-53011472D01*
X38408528Y-53155718D01*
X38528432Y-53320752D01*
X38621043Y-53502512D01*
X38684081Y-53696521D01*
X38715993Y-53898003D01*
X38715993Y-54101997D01*
X38684081Y-54303479D01*
X38621043Y-54497488D01*
X38528432Y-54679248D01*
X38408528Y-54844282D01*
X38264282Y-54988528D01*
X38099248Y-55108432D01*
X37917488Y-55201043D01*
X37723479Y-55264081D01*
X37521997Y-55295993D01*
X37318003Y-55295993D01*
X37116521Y-55264081D01*
X36922512Y-55201043D01*
X36740752Y-55108432D01*
X36575718Y-54988528D01*
X36431472Y-54844282D01*
X36311568Y-54679248D01*
X36218957Y-54497488D01*
X36155919Y-54303479D01*
X36124007Y-54101997D01*
X36124007Y-53898003D01*
X36155919Y-53696521D01*
X36218957Y-53502512D01*
X36311568Y-53320752D01*
X36431472Y-53155718D01*
X36575718Y-53011472D01*
X36740752Y-52891568D01*
X36922512Y-52798957D01*
X37116521Y-52735919D01*
X37318003Y-52704007D01*
X37521997Y-52704007D01*
X37723479Y-52735919D01*
G37*
G36*
X124569868Y-51114550D02*
G01*
X124575586Y-51117345D01*
X124577962Y-51117722D01*
X124615987Y-51137096D01*
X124673377Y-51165153D01*
X124754847Y-51246623D01*
X124782907Y-51304020D01*
X124802276Y-51342034D01*
X124802652Y-51344408D01*
X124805450Y-51350132D01*
X124820000Y-51450000D01*
X124820000Y-52550000D01*
X124805450Y-52649868D01*
X124802652Y-52655589D01*
X124802277Y-52657962D01*
X124782926Y-52695939D01*
X124754847Y-52753377D01*
X124673377Y-52834847D01*
X124615955Y-52862919D01*
X124577965Y-52882276D01*
X124575591Y-52882651D01*
X124569868Y-52885450D01*
X124470000Y-52900000D01*
X123370000Y-52900000D01*
X123270132Y-52885450D01*
X123264410Y-52882652D01*
X123262037Y-52882277D01*
X123224035Y-52862914D01*
X123166623Y-52834847D01*
X123085153Y-52753377D01*
X123057104Y-52696003D01*
X123037723Y-52657965D01*
X123037346Y-52655588D01*
X123034550Y-52649868D01*
X123020000Y-52550000D01*
X123020000Y-51450000D01*
X123034550Y-51350132D01*
X123037345Y-51344413D01*
X123037722Y-51342037D01*
X123057108Y-51303987D01*
X123085153Y-51246623D01*
X123166623Y-51165153D01*
X123223971Y-51137116D01*
X123262034Y-51117723D01*
X123264411Y-51117346D01*
X123270132Y-51114550D01*
X123370000Y-51100000D01*
X124470000Y-51100000D01*
X124569868Y-51114550D01*
G37*
G36*
X126181256Y-51138754D02*
G01*
X126344257Y-51206271D01*
X126490954Y-51304291D01*
X126615709Y-51429046D01*
X126713729Y-51575743D01*
X126781246Y-51738744D01*
X126815666Y-51911785D01*
X126815666Y-52088215D01*
X126781246Y-52261256D01*
X126713729Y-52424257D01*
X126615709Y-52570954D01*
X126490954Y-52695709D01*
X126344257Y-52793729D01*
X126181256Y-52861246D01*
X126008215Y-52895666D01*
X125831785Y-52895666D01*
X125658744Y-52861246D01*
X125495743Y-52793729D01*
X125349046Y-52695709D01*
X125224291Y-52570954D01*
X125126271Y-52424257D01*
X125058754Y-52261256D01*
X125024334Y-52088215D01*
X125024334Y-51911785D01*
X125058754Y-51738744D01*
X125126271Y-51575743D01*
X125224291Y-51429046D01*
X125349046Y-51304291D01*
X125495743Y-51206271D01*
X125658744Y-51138754D01*
X125831785Y-51104334D01*
X126008215Y-51104334D01*
X126181256Y-51138754D01*
G37*
G36*
X98769868Y-48914550D02*
G01*
X98775586Y-48917345D01*
X98777962Y-48917722D01*
X98815987Y-48937096D01*
X98873377Y-48965153D01*
X98954847Y-49046623D01*
X98982907Y-49104020D01*
X99002276Y-49142034D01*
X99002652Y-49144408D01*
X99005450Y-49150132D01*
X99020000Y-49250000D01*
X99020000Y-50750000D01*
X99005450Y-50849868D01*
X99002652Y-50855589D01*
X99002277Y-50857962D01*
X98982926Y-50895939D01*
X98954847Y-50953377D01*
X98873377Y-51034847D01*
X98815955Y-51062919D01*
X98777965Y-51082276D01*
X98775591Y-51082651D01*
X98769868Y-51085450D01*
X98670000Y-51100000D01*
X97170000Y-51100000D01*
X97070132Y-51085450D01*
X97064410Y-51082652D01*
X97062037Y-51082277D01*
X97024035Y-51062914D01*
X96966623Y-51034847D01*
X96885153Y-50953377D01*
X96857104Y-50896003D01*
X96837723Y-50857965D01*
X96837346Y-50855588D01*
X96834550Y-50849868D01*
X96820000Y-50750000D01*
X96820000Y-49250000D01*
X96834550Y-49150132D01*
X96837345Y-49144413D01*
X96837722Y-49142037D01*
X96857108Y-49103987D01*
X96885153Y-49046623D01*
X96966623Y-48965153D01*
X97023971Y-48937116D01*
X97062034Y-48917723D01*
X97064411Y-48917346D01*
X97070132Y-48914550D01*
X97170000Y-48900000D01*
X98670000Y-48900000D01*
X98769868Y-48914550D01*
G37*
G36*
X103176790Y-48930393D02*
G01*
X103340952Y-48983733D01*
X103494748Y-49062096D01*
X103634393Y-49163553D01*
X103756447Y-49285607D01*
X103857904Y-49425252D01*
X103936267Y-49579048D01*
X103989607Y-49743210D01*
X104016609Y-49913695D01*
X104016609Y-50086305D01*
X103989607Y-50256790D01*
X103936267Y-50420952D01*
X103857904Y-50574748D01*
X103756447Y-50714393D01*
X103634393Y-50836447D01*
X103494748Y-50937904D01*
X103340952Y-51016267D01*
X103176790Y-51069607D01*
X103006305Y-51096609D01*
X102833695Y-51096609D01*
X102663210Y-51069607D01*
X102499048Y-51016267D01*
X102345252Y-50937904D01*
X102205607Y-50836447D01*
X102083553Y-50714393D01*
X101982096Y-50574748D01*
X101903733Y-50420952D01*
X101850393Y-50256790D01*
X101823391Y-50086305D01*
X101823391Y-49913695D01*
X101850393Y-49743210D01*
X101903733Y-49579048D01*
X101982096Y-49425252D01*
X102083553Y-49285607D01*
X102205607Y-49163553D01*
X102345252Y-49062096D01*
X102499048Y-48983733D01*
X102663210Y-48930393D01*
X102833695Y-48903391D01*
X103006305Y-48903391D01*
X103176790Y-48930393D01*
G37*
G36*
X45181256Y-49138754D02*
G01*
X45344257Y-49206271D01*
X45490954Y-49304291D01*
X45615709Y-49429046D01*
X45713729Y-49575743D01*
X45781246Y-49738744D01*
X45815666Y-49911785D01*
X45815666Y-50088215D01*
X45781246Y-50261256D01*
X45713729Y-50424257D01*
X45615709Y-50570954D01*
X45490954Y-50695709D01*
X45344257Y-50793729D01*
X45181256Y-50861246D01*
X45008215Y-50895666D01*
X44831785Y-50895666D01*
X44658744Y-50861246D01*
X44495743Y-50793729D01*
X44349046Y-50695709D01*
X44224291Y-50570954D01*
X44126271Y-50424257D01*
X44058754Y-50261256D01*
X44024334Y-50088215D01*
X44024334Y-49911785D01*
X44058754Y-49738744D01*
X44126271Y-49575743D01*
X44224291Y-49429046D01*
X44349046Y-49304291D01*
X44495743Y-49206271D01*
X44658744Y-49138754D01*
X44831785Y-49104334D01*
X45008215Y-49104334D01*
X45181256Y-49138754D01*
G37*
G36*
X50181256Y-49138754D02*
G01*
X50344257Y-49206271D01*
X50490954Y-49304291D01*
X50615709Y-49429046D01*
X50713729Y-49575743D01*
X50781246Y-49738744D01*
X50815666Y-49911785D01*
X50815666Y-50088215D01*
X50781246Y-50261256D01*
X50713729Y-50424257D01*
X50615709Y-50570954D01*
X50490954Y-50695709D01*
X50344257Y-50793729D01*
X50181256Y-50861246D01*
X50008215Y-50895666D01*
X49831785Y-50895666D01*
X49658744Y-50861246D01*
X49495743Y-50793729D01*
X49349046Y-50695709D01*
X49224291Y-50570954D01*
X49126271Y-50424257D01*
X49058754Y-50261256D01*
X49024334Y-50088215D01*
X49024334Y-49911785D01*
X49058754Y-49738744D01*
X49126271Y-49575743D01*
X49224291Y-49429046D01*
X49349046Y-49304291D01*
X49495743Y-49206271D01*
X49658744Y-49138754D01*
X49831785Y-49104334D01*
X50008215Y-49104334D01*
X50181256Y-49138754D01*
G37*
G36*
X112483268Y-48157612D02*
G01*
X112515711Y-48179289D01*
X112537388Y-48211732D01*
X112545000Y-48250000D01*
X112545000Y-48493449D01*
X112615969Y-48514977D01*
X112638327Y-48481515D01*
X112638799Y-48480377D01*
X112706868Y-48378504D01*
X112793504Y-48291868D01*
X112895377Y-48223799D01*
X113008572Y-48176912D01*
X113128739Y-48153010D01*
X113251261Y-48153010D01*
X113371428Y-48176912D01*
X113484623Y-48223799D01*
X113586496Y-48291868D01*
X113673132Y-48378504D01*
X113741201Y-48480377D01*
X113788088Y-48593572D01*
X113788328Y-48594781D01*
X113791592Y-48602660D01*
X113858408Y-48602660D01*
X113861671Y-48594781D01*
X113861912Y-48593572D01*
X113908799Y-48480377D01*
X113976868Y-48378504D01*
X114063504Y-48291868D01*
X114165377Y-48223799D01*
X114278572Y-48176912D01*
X114398739Y-48153010D01*
X114521261Y-48153010D01*
X114641428Y-48176912D01*
X114754623Y-48223799D01*
X114856496Y-48291868D01*
X114943132Y-48378504D01*
X115011201Y-48480377D01*
X115058088Y-48593572D01*
X115081990Y-48713739D01*
X115085000Y-48775000D01*
X115085000Y-49225000D01*
X115081990Y-49286261D01*
X115058088Y-49406428D01*
X115011201Y-49519623D01*
X114943132Y-49621496D01*
X114856496Y-49708132D01*
X114754623Y-49776201D01*
X114641428Y-49823088D01*
X114521261Y-49846990D01*
X114398739Y-49846990D01*
X114278572Y-49823088D01*
X114165377Y-49776201D01*
X114063504Y-49708132D01*
X113976868Y-49621496D01*
X113908799Y-49519623D01*
X113861912Y-49406428D01*
X113861671Y-49405216D01*
X113858408Y-49397339D01*
X113791592Y-49397339D01*
X113788328Y-49405216D01*
X113788088Y-49406428D01*
X113741201Y-49519623D01*
X113673132Y-49621496D01*
X113586496Y-49708132D01*
X113484623Y-49776201D01*
X113371428Y-49823088D01*
X113251261Y-49846990D01*
X113128739Y-49846990D01*
X113008572Y-49823088D01*
X112895377Y-49776201D01*
X112793504Y-49708132D01*
X112706868Y-49621496D01*
X112638799Y-49519623D01*
X112638327Y-49518483D01*
X112615969Y-49485023D01*
X112545000Y-49506550D01*
X112545000Y-49750000D01*
X112537388Y-49788268D01*
X112515711Y-49820711D01*
X112483268Y-49842388D01*
X112445000Y-49850000D01*
X111395000Y-49850000D01*
X111356732Y-49842388D01*
X111324289Y-49820711D01*
X111302612Y-49788268D01*
X111295000Y-49750000D01*
X111295000Y-48250000D01*
X111302612Y-48211732D01*
X111324289Y-48179289D01*
X111356732Y-48157612D01*
X111395000Y-48150000D01*
X112445000Y-48150000D01*
X112483268Y-48157612D01*
G37*
G36*
X66858268Y-47007612D02*
G01*
X66890711Y-47029289D01*
X66912388Y-47061732D01*
X66920000Y-47100000D01*
X66920000Y-48900000D01*
X66912388Y-48938268D01*
X66890711Y-48970711D01*
X66858268Y-48992388D01*
X66820000Y-49000000D01*
X65020000Y-49000000D01*
X64981732Y-48992388D01*
X64949289Y-48970711D01*
X64927612Y-48938268D01*
X64920000Y-48900000D01*
X64920000Y-47100000D01*
X64927612Y-47061732D01*
X64949289Y-47029289D01*
X64981732Y-47007612D01*
X65020000Y-47000000D01*
X66820000Y-47000000D01*
X66858268Y-47007612D01*
G37*
G36*
X68750285Y-47043060D02*
G01*
X68931397Y-47118079D01*
X69094393Y-47226990D01*
X69233010Y-47365607D01*
X69341921Y-47528603D01*
X69416940Y-47709715D01*
X69455185Y-47901983D01*
X69455185Y-48098017D01*
X69416940Y-48290285D01*
X69341921Y-48471397D01*
X69233010Y-48634393D01*
X69094393Y-48773010D01*
X68931397Y-48881921D01*
X68750285Y-48956940D01*
X68558017Y-48995185D01*
X68361983Y-48995185D01*
X68169715Y-48956940D01*
X67988603Y-48881921D01*
X67825607Y-48773010D01*
X67686990Y-48634393D01*
X67578079Y-48471397D01*
X67503060Y-48290285D01*
X67464815Y-48098017D01*
X67464815Y-47901983D01*
X67503060Y-47709715D01*
X67578079Y-47528603D01*
X67686990Y-47365607D01*
X67825607Y-47226990D01*
X67988603Y-47118079D01*
X68169715Y-47043060D01*
X68361983Y-47004815D01*
X68558017Y-47004815D01*
X68750285Y-47043060D01*
G37*
G36*
X110569868Y-39114550D02*
G01*
X110575586Y-39117345D01*
X110577962Y-39117722D01*
X110615987Y-39137096D01*
X110673377Y-39165153D01*
X110754847Y-39246623D01*
X110782907Y-39304020D01*
X110802276Y-39342034D01*
X110802652Y-39344408D01*
X110805450Y-39350132D01*
X110820000Y-39450000D01*
X110820000Y-40550000D01*
X110805450Y-40649868D01*
X110802652Y-40655589D01*
X110802277Y-40657962D01*
X110782926Y-40695939D01*
X110754847Y-40753377D01*
X110673377Y-40834847D01*
X110615955Y-40862919D01*
X110577965Y-40882276D01*
X110575591Y-40882651D01*
X110569868Y-40885450D01*
X110470000Y-40900000D01*
X109370000Y-40900000D01*
X109270132Y-40885450D01*
X109264410Y-40882652D01*
X109262037Y-40882277D01*
X109224035Y-40862914D01*
X109166623Y-40834847D01*
X109085153Y-40753377D01*
X109057104Y-40696003D01*
X109037723Y-40657965D01*
X109037346Y-40655588D01*
X109034550Y-40649868D01*
X109020000Y-40550000D01*
X109020000Y-39450000D01*
X109034550Y-39350132D01*
X109037345Y-39344413D01*
X109037722Y-39342037D01*
X109057108Y-39303987D01*
X109085153Y-39246623D01*
X109166623Y-39165153D01*
X109223971Y-39137116D01*
X109262034Y-39117723D01*
X109264411Y-39117346D01*
X109270132Y-39114550D01*
X109370000Y-39100000D01*
X110470000Y-39100000D01*
X110569868Y-39114550D01*
G37*
G36*
X112181256Y-39138754D02*
G01*
X112344257Y-39206271D01*
X112490954Y-39304291D01*
X112615709Y-39429046D01*
X112713729Y-39575743D01*
X112781246Y-39738744D01*
X112815666Y-39911785D01*
X112815666Y-40088215D01*
X112781246Y-40261256D01*
X112713729Y-40424257D01*
X112615709Y-40570954D01*
X112490954Y-40695709D01*
X112344257Y-40793729D01*
X112181256Y-40861246D01*
X112008215Y-40895666D01*
X111831785Y-40895666D01*
X111658744Y-40861246D01*
X111495743Y-40793729D01*
X111349046Y-40695709D01*
X111224291Y-40570954D01*
X111126271Y-40424257D01*
X111058754Y-40261256D01*
X111024334Y-40088215D01*
X111024334Y-39911785D01*
X111058754Y-39738744D01*
X111126271Y-39575743D01*
X111224291Y-39429046D01*
X111349046Y-39304291D01*
X111495743Y-39206271D01*
X111658744Y-39138754D01*
X111831785Y-39104334D01*
X112008215Y-39104334D01*
X112181256Y-39138754D01*
G37*
G36*
X50369868Y-34314550D02*
G01*
X50375586Y-34317345D01*
X50377962Y-34317722D01*
X50415987Y-34337096D01*
X50473377Y-34365153D01*
X50554847Y-34446623D01*
X50582907Y-34504020D01*
X50602276Y-34542034D01*
X50602652Y-34544408D01*
X50605450Y-34550132D01*
X50620000Y-34650000D01*
X50620000Y-37350000D01*
X50605450Y-37449868D01*
X50602652Y-37455589D01*
X50602277Y-37457962D01*
X50582926Y-37495939D01*
X50554847Y-37553377D01*
X50473377Y-37634847D01*
X50415955Y-37662919D01*
X50377965Y-37682276D01*
X50375591Y-37682651D01*
X50369868Y-37685450D01*
X50270000Y-37700000D01*
X47570000Y-37700000D01*
X47470132Y-37685450D01*
X47464410Y-37682652D01*
X47462037Y-37682277D01*
X47424035Y-37662914D01*
X47366623Y-37634847D01*
X47285153Y-37553377D01*
X47257104Y-37496003D01*
X47237723Y-37457965D01*
X47237346Y-37455588D01*
X47234550Y-37449868D01*
X47220000Y-37350000D01*
X47220000Y-34650000D01*
X47234550Y-34550132D01*
X47237345Y-34544413D01*
X47237722Y-34542037D01*
X47257108Y-34503987D01*
X47285153Y-34446623D01*
X47366623Y-34365153D01*
X47423971Y-34337116D01*
X47462034Y-34317723D01*
X47464411Y-34317346D01*
X47470132Y-34314550D01*
X47570000Y-34300000D01*
X50270000Y-34300000D01*
X50369868Y-34314550D01*
G37*
G36*
X64491654Y-34332665D02*
G01*
X64706447Y-34390219D01*
X64911891Y-34475316D01*
X65104469Y-34586502D01*
X65280888Y-34721872D01*
X65438128Y-34879112D01*
X65573498Y-35055531D01*
X65684684Y-35248109D01*
X65769781Y-35453553D01*
X65827335Y-35668346D01*
X65856360Y-35888815D01*
X65856360Y-36111185D01*
X65827335Y-36331654D01*
X65769781Y-36546447D01*
X65684684Y-36751891D01*
X65573498Y-36944469D01*
X65438128Y-37120888D01*
X65280888Y-37278128D01*
X65104469Y-37413498D01*
X64911891Y-37524684D01*
X64706447Y-37609781D01*
X64491654Y-37667335D01*
X64271185Y-37696360D01*
X64048815Y-37696360D01*
X63828346Y-37667335D01*
X63613553Y-37609781D01*
X63408109Y-37524684D01*
X63215531Y-37413498D01*
X63039112Y-37278128D01*
X62881872Y-37120888D01*
X62746502Y-36944469D01*
X62635316Y-36751891D01*
X62550219Y-36546447D01*
X62492665Y-36331654D01*
X62463640Y-36111185D01*
X62463640Y-35888815D01*
X62492665Y-35668346D01*
X62550219Y-35453553D01*
X62635316Y-35248109D01*
X62746502Y-35055531D01*
X62881872Y-34879112D01*
X63039112Y-34721872D01*
X63215531Y-34586502D01*
X63408109Y-34475316D01*
X63613553Y-34390219D01*
X63828346Y-34332665D01*
X64048815Y-34303640D01*
X64271185Y-34303640D01*
X64491654Y-34332665D01*
G37*
G36*
X68969867Y-34714550D02*
G01*
X68975585Y-34717345D01*
X68977962Y-34717722D01*
X69016001Y-34737104D01*
X69073376Y-34765153D01*
X69154847Y-34846624D01*
X69182907Y-34904021D01*
X69202277Y-34942037D01*
X69202653Y-34944412D01*
X69205450Y-34950133D01*
X69219999Y-35050002D01*
X69219999Y-35053925D01*
X69220000Y-35053932D01*
X69220000Y-36088193D01*
X69220000Y-36949999D01*
X69205450Y-37049867D01*
X69202652Y-37055588D01*
X69202277Y-37057962D01*
X69182919Y-37095953D01*
X69154847Y-37153376D01*
X69073376Y-37234847D01*
X69015953Y-37262919D01*
X68977962Y-37282277D01*
X68975588Y-37282652D01*
X68969867Y-37285450D01*
X68869998Y-37299999D01*
X68866073Y-37299999D01*
X68866067Y-37300000D01*
X66973933Y-37300000D01*
X66973932Y-37299999D01*
X66970001Y-37300000D01*
X66870133Y-37285450D01*
X66864412Y-37282653D01*
X66862037Y-37282277D01*
X66824021Y-37262907D01*
X66766624Y-37234847D01*
X66685153Y-37153376D01*
X66657104Y-37096001D01*
X66637722Y-37057962D01*
X66637345Y-37055585D01*
X66634550Y-37049867D01*
X66620001Y-36949998D01*
X66620000Y-36946073D01*
X66620000Y-36946067D01*
X66620000Y-35053932D01*
X66620000Y-35053931D01*
X66620000Y-35050001D01*
X66634550Y-34950133D01*
X66637345Y-34944415D01*
X66637722Y-34942037D01*
X66657116Y-34903973D01*
X66685153Y-34846624D01*
X66766624Y-34765153D01*
X66823973Y-34737116D01*
X66862037Y-34717722D01*
X66864415Y-34717345D01*
X66870133Y-34714550D01*
X66970002Y-34700001D01*
X66973926Y-34700000D01*
X66973933Y-34700000D01*
X68866067Y-34700000D01*
X68869999Y-34700000D01*
X68969867Y-34714550D01*
G37*
G36*
X78383479Y-34735919D02*
G01*
X78577488Y-34798957D01*
X78759248Y-34891568D01*
X78924282Y-35011472D01*
X79068528Y-35155718D01*
X79188432Y-35320752D01*
X79281043Y-35502512D01*
X79344081Y-35696521D01*
X79375993Y-35898003D01*
X79375993Y-36101997D01*
X79344081Y-36303479D01*
X79281043Y-36497488D01*
X79188432Y-36679248D01*
X79068528Y-36844282D01*
X78924282Y-36988528D01*
X78759248Y-37108432D01*
X78577488Y-37201043D01*
X78383479Y-37264081D01*
X78181997Y-37295993D01*
X77978003Y-37295993D01*
X77776521Y-37264081D01*
X77582512Y-37201043D01*
X77400752Y-37108432D01*
X77235718Y-36988528D01*
X77091472Y-36844282D01*
X76971568Y-36679248D01*
X76878957Y-36497488D01*
X76815919Y-36303479D01*
X76784007Y-36101997D01*
X76784007Y-35898003D01*
X76815919Y-35696521D01*
X76878957Y-35502512D01*
X76971568Y-35320752D01*
X77091472Y-35155718D01*
X77235718Y-35011472D01*
X77400752Y-34891568D01*
X77582512Y-34798957D01*
X77776521Y-34735919D01*
X77978003Y-34704007D01*
X78181997Y-34704007D01*
X78383479Y-34735919D01*
G37*
G36*
X28508215Y-35104334D02*
G01*
X28681256Y-35138754D01*
X28844257Y-35206271D01*
X28990954Y-35304291D01*
X29115709Y-35429046D01*
X29213729Y-35575743D01*
X29281246Y-35738744D01*
X29315666Y-35911785D01*
X29315666Y-36088215D01*
X29281246Y-36261256D01*
X29213729Y-36424257D01*
X29115709Y-36570954D01*
X28990954Y-36695709D01*
X28844257Y-36793729D01*
X28681256Y-36861246D01*
X28508215Y-36895666D01*
X28420000Y-36900000D01*
X28418767Y-36900000D01*
X27421233Y-36900000D01*
X27420000Y-36900000D01*
X27331785Y-36895666D01*
X27158744Y-36861246D01*
X26995743Y-36793729D01*
X26849046Y-36695709D01*
X26724291Y-36570954D01*
X26626271Y-36424257D01*
X26558754Y-36261256D01*
X26524334Y-36088215D01*
X26524334Y-35911785D01*
X26558754Y-35738744D01*
X26626271Y-35575743D01*
X26724291Y-35429046D01*
X26849046Y-35304291D01*
X26995743Y-35206271D01*
X27158744Y-35138754D01*
X27331785Y-35104334D01*
X27420000Y-35100000D01*
X28420000Y-35100000D01*
X28508215Y-35104334D01*
G37*
G36*
X36108215Y-35104334D02*
G01*
X36281256Y-35138754D01*
X36444257Y-35206271D01*
X36590954Y-35304291D01*
X36715709Y-35429046D01*
X36813729Y-35575743D01*
X36881246Y-35738744D01*
X36915666Y-35911785D01*
X36915666Y-36088215D01*
X36881246Y-36261256D01*
X36813729Y-36424257D01*
X36715709Y-36570954D01*
X36590954Y-36695709D01*
X36444257Y-36793729D01*
X36281256Y-36861246D01*
X36108215Y-36895666D01*
X36020000Y-36900000D01*
X36018767Y-36900000D01*
X35021233Y-36900000D01*
X35020000Y-36900000D01*
X34931785Y-36895666D01*
X34758744Y-36861246D01*
X34595743Y-36793729D01*
X34449046Y-36695709D01*
X34324291Y-36570954D01*
X34226271Y-36424257D01*
X34158754Y-36261256D01*
X34124334Y-36088215D01*
X34124334Y-35911785D01*
X34158754Y-35738744D01*
X34226271Y-35575743D01*
X34324291Y-35429046D01*
X34449046Y-35304291D01*
X34595743Y-35206271D01*
X34758744Y-35138754D01*
X34931785Y-35104334D01*
X35020000Y-35100000D01*
X36020000Y-35100000D01*
X36108215Y-35104334D01*
G37*
G36*
X84809868Y-21114550D02*
G01*
X84815586Y-21117345D01*
X84817963Y-21117722D01*
X84856002Y-21137104D01*
X84913377Y-21165153D01*
X84994847Y-21246623D01*
X85022907Y-21304020D01*
X85042277Y-21342036D01*
X85042653Y-21344411D01*
X85045450Y-21350132D01*
X85059999Y-21450000D01*
X85059999Y-21453923D01*
X85060000Y-21453930D01*
X85060000Y-23026090D01*
X85060000Y-24550001D01*
X85045450Y-24649868D01*
X85042652Y-24655589D01*
X85042277Y-24657963D01*
X85022919Y-24695954D01*
X84994847Y-24753377D01*
X84913377Y-24834847D01*
X84855954Y-24862919D01*
X84817963Y-24882277D01*
X84815589Y-24882652D01*
X84809868Y-24885450D01*
X84710000Y-24899999D01*
X84706075Y-24899999D01*
X84706069Y-24900000D01*
X83133931Y-24900000D01*
X83133930Y-24899999D01*
X83129999Y-24900000D01*
X83030132Y-24885450D01*
X83024411Y-24882653D01*
X83022036Y-24882277D01*
X82984020Y-24862907D01*
X82926623Y-24834847D01*
X82845153Y-24753377D01*
X82817104Y-24696002D01*
X82797722Y-24657963D01*
X82797345Y-24655586D01*
X82794550Y-24649868D01*
X82780001Y-24550000D01*
X82780000Y-24546075D01*
X82780000Y-24546069D01*
X82780000Y-21453930D01*
X82780000Y-21453929D01*
X82780000Y-21449999D01*
X82794550Y-21350132D01*
X82797345Y-21344414D01*
X82797722Y-21342036D01*
X82817116Y-21303972D01*
X82845153Y-21246623D01*
X82926623Y-21165153D01*
X82983972Y-21137116D01*
X83022036Y-21117722D01*
X83024414Y-21117345D01*
X83030132Y-21114550D01*
X83130000Y-21100001D01*
X83133924Y-21100000D01*
X83133931Y-21100000D01*
X84706069Y-21100000D01*
X84710001Y-21100000D01*
X84809868Y-21114550D01*
G37*
G36*
X89266128Y-21131498D02*
G01*
X89436259Y-21186777D01*
X89595648Y-21267990D01*
X89740371Y-21373137D01*
X89866863Y-21499629D01*
X89972010Y-21644352D01*
X90053223Y-21803741D01*
X90108502Y-21973872D01*
X90136486Y-22150557D01*
X90140000Y-22240000D01*
X90140000Y-23760000D01*
X90136486Y-23849443D01*
X90108502Y-24026128D01*
X90053223Y-24196259D01*
X89972010Y-24355648D01*
X89866863Y-24500371D01*
X89740371Y-24626863D01*
X89595648Y-24732010D01*
X89436259Y-24813223D01*
X89266128Y-24868502D01*
X89089443Y-24896486D01*
X88910557Y-24896486D01*
X88733872Y-24868502D01*
X88563741Y-24813223D01*
X88404352Y-24732010D01*
X88259629Y-24626863D01*
X88133137Y-24500371D01*
X88027990Y-24355648D01*
X87946777Y-24196259D01*
X87891498Y-24026128D01*
X87863514Y-23849443D01*
X87860000Y-23760000D01*
X87860000Y-22240000D01*
X87863514Y-22150557D01*
X87891498Y-21973872D01*
X87946777Y-21803741D01*
X88027990Y-21644352D01*
X88133137Y-21499629D01*
X88259629Y-21373137D01*
X88404352Y-21267990D01*
X88563741Y-21186777D01*
X88733872Y-21131498D01*
X88910557Y-21103514D01*
X89089443Y-21103514D01*
X89266128Y-21131498D01*
G37*
G36*
X108744868Y-22064550D02*
G01*
X108750586Y-22067345D01*
X108752962Y-22067722D01*
X108790987Y-22087096D01*
X108848377Y-22115153D01*
X108929847Y-22196623D01*
X108957907Y-22254020D01*
X108977276Y-22292034D01*
X108977652Y-22294408D01*
X108980450Y-22300132D01*
X108995000Y-22400000D01*
X108995000Y-23600000D01*
X108980450Y-23699868D01*
X108977652Y-23705589D01*
X108977277Y-23707962D01*
X108957926Y-23745939D01*
X108929847Y-23803377D01*
X108848377Y-23884847D01*
X108790955Y-23912919D01*
X108752965Y-23932276D01*
X108750591Y-23932651D01*
X108744868Y-23935450D01*
X108645000Y-23950000D01*
X107195000Y-23950000D01*
X107095132Y-23935450D01*
X107089410Y-23932652D01*
X107087037Y-23932277D01*
X107049035Y-23912914D01*
X106991623Y-23884847D01*
X106910153Y-23803377D01*
X106882104Y-23746003D01*
X106862723Y-23707965D01*
X106862346Y-23705588D01*
X106859550Y-23699868D01*
X106845000Y-23600000D01*
X106845000Y-22400000D01*
X106859550Y-22300132D01*
X106862345Y-22294413D01*
X106862722Y-22292037D01*
X106882108Y-22253987D01*
X106910153Y-22196623D01*
X106991623Y-22115153D01*
X107048971Y-22087116D01*
X107087034Y-22067723D01*
X107089411Y-22067346D01*
X107095132Y-22064550D01*
X107195000Y-22050000D01*
X108645000Y-22050000D01*
X108744868Y-22064550D01*
G37*
G36*
X27809868Y-20114550D02*
G01*
X27815586Y-20117345D01*
X27817963Y-20117722D01*
X27856002Y-20137104D01*
X27913377Y-20165153D01*
X27994847Y-20246623D01*
X28022907Y-20304020D01*
X28042277Y-20342036D01*
X28042653Y-20344411D01*
X28045450Y-20350132D01*
X28059999Y-20450000D01*
X28059999Y-20453923D01*
X28060000Y-20453930D01*
X28060000Y-22050000D01*
X28060000Y-23550001D01*
X28045450Y-23649868D01*
X28042652Y-23655589D01*
X28042277Y-23657963D01*
X28022919Y-23695954D01*
X27994847Y-23753377D01*
X27913377Y-23834847D01*
X27855954Y-23862919D01*
X27817963Y-23882277D01*
X27815589Y-23882652D01*
X27809868Y-23885450D01*
X27710000Y-23899999D01*
X27706075Y-23899999D01*
X27706069Y-23900000D01*
X26133931Y-23900000D01*
X26133930Y-23899999D01*
X26129999Y-23900000D01*
X26030132Y-23885450D01*
X26024411Y-23882653D01*
X26022036Y-23882277D01*
X25984020Y-23862907D01*
X25926623Y-23834847D01*
X25845153Y-23753377D01*
X25817104Y-23696002D01*
X25797722Y-23657963D01*
X25797345Y-23655586D01*
X25794550Y-23649868D01*
X25780001Y-23550000D01*
X25780000Y-23546075D01*
X25780000Y-23546069D01*
X25780000Y-20453930D01*
X25780000Y-20453929D01*
X25780000Y-20449999D01*
X25794550Y-20350132D01*
X25797345Y-20344414D01*
X25797722Y-20342036D01*
X25817116Y-20303972D01*
X25845153Y-20246623D01*
X25926623Y-20165153D01*
X25983972Y-20137116D01*
X26022036Y-20117722D01*
X26024414Y-20117345D01*
X26030132Y-20114550D01*
X26130000Y-20100001D01*
X26133924Y-20100000D01*
X26133931Y-20100000D01*
X27706069Y-20100000D01*
X27710001Y-20100000D01*
X27809868Y-20114550D01*
G37*
G36*
X54809868Y-20114550D02*
G01*
X54815586Y-20117345D01*
X54817963Y-20117722D01*
X54856002Y-20137104D01*
X54913377Y-20165153D01*
X54994847Y-20246623D01*
X55022907Y-20304020D01*
X55042277Y-20342036D01*
X55042653Y-20344411D01*
X55045450Y-20350132D01*
X55059999Y-20450000D01*
X55059999Y-20453923D01*
X55060000Y-20453930D01*
X55060000Y-22050000D01*
X55060000Y-23550001D01*
X55045450Y-23649868D01*
X55042652Y-23655589D01*
X55042277Y-23657963D01*
X55022919Y-23695954D01*
X54994847Y-23753377D01*
X54913377Y-23834847D01*
X54855954Y-23862919D01*
X54817963Y-23882277D01*
X54815589Y-23882652D01*
X54809868Y-23885450D01*
X54710000Y-23899999D01*
X54706075Y-23899999D01*
X54706069Y-23900000D01*
X53133931Y-23900000D01*
X53133930Y-23899999D01*
X53129999Y-23900000D01*
X53030132Y-23885450D01*
X53024411Y-23882653D01*
X53022036Y-23882277D01*
X52984020Y-23862907D01*
X52926623Y-23834847D01*
X52845153Y-23753377D01*
X52817104Y-23696002D01*
X52797722Y-23657963D01*
X52797345Y-23655586D01*
X52794550Y-23649868D01*
X52780001Y-23550000D01*
X52780000Y-23546075D01*
X52780000Y-23546069D01*
X52780000Y-20453930D01*
X52780000Y-20453929D01*
X52780000Y-20449999D01*
X52794550Y-20350132D01*
X52797345Y-20344414D01*
X52797722Y-20342036D01*
X52817116Y-20303972D01*
X52845153Y-20246623D01*
X52926623Y-20165153D01*
X52983972Y-20137116D01*
X53022036Y-20117722D01*
X53024414Y-20117345D01*
X53030132Y-20114550D01*
X53130000Y-20100001D01*
X53133924Y-20100000D01*
X53133931Y-20100000D01*
X54706069Y-20100000D01*
X54710001Y-20100000D01*
X54809868Y-20114550D01*
G37*
G36*
X32266128Y-20131498D02*
G01*
X32436259Y-20186777D01*
X32595648Y-20267990D01*
X32740371Y-20373137D01*
X32866863Y-20499629D01*
X32972010Y-20644352D01*
X33053223Y-20803741D01*
X33108502Y-20973872D01*
X33136486Y-21150557D01*
X33140000Y-21240000D01*
X33140000Y-22760000D01*
X33136486Y-22849443D01*
X33108502Y-23026128D01*
X33053223Y-23196259D01*
X32972010Y-23355648D01*
X32866863Y-23500371D01*
X32740371Y-23626863D01*
X32595648Y-23732010D01*
X32436259Y-23813223D01*
X32266128Y-23868502D01*
X32089443Y-23896486D01*
X31910557Y-23896486D01*
X31733872Y-23868502D01*
X31563741Y-23813223D01*
X31404352Y-23732010D01*
X31259629Y-23626863D01*
X31133137Y-23500371D01*
X31027990Y-23355648D01*
X30946777Y-23196259D01*
X30891498Y-23026128D01*
X30863514Y-22849443D01*
X30860000Y-22760000D01*
X30860000Y-21240000D01*
X30863514Y-21150557D01*
X30891498Y-20973872D01*
X30946777Y-20803741D01*
X31027990Y-20644352D01*
X31133137Y-20499629D01*
X31259629Y-20373137D01*
X31404352Y-20267990D01*
X31563741Y-20186777D01*
X31733872Y-20131498D01*
X31910557Y-20103514D01*
X32089443Y-20103514D01*
X32266128Y-20131498D01*
G37*
G36*
X59266128Y-20131498D02*
G01*
X59436259Y-20186777D01*
X59595648Y-20267990D01*
X59740371Y-20373137D01*
X59866863Y-20499629D01*
X59972010Y-20644352D01*
X60053223Y-20803741D01*
X60108502Y-20973872D01*
X60136486Y-21150557D01*
X60140000Y-21240000D01*
X60140000Y-22760000D01*
X60136486Y-22849443D01*
X60108502Y-23026128D01*
X60053223Y-23196259D01*
X59972010Y-23355648D01*
X59866863Y-23500371D01*
X59740371Y-23626863D01*
X59595648Y-23732010D01*
X59436259Y-23813223D01*
X59266128Y-23868502D01*
X59089443Y-23896486D01*
X58910557Y-23896486D01*
X58733872Y-23868502D01*
X58563741Y-23813223D01*
X58404352Y-23732010D01*
X58259629Y-23626863D01*
X58133137Y-23500371D01*
X58027990Y-23355648D01*
X57946777Y-23196259D01*
X57891498Y-23026128D01*
X57863514Y-22849443D01*
X57860000Y-22760000D01*
X57860000Y-21240000D01*
X57863514Y-21150557D01*
X57891498Y-20973872D01*
X57946777Y-20803741D01*
X58027990Y-20644352D01*
X58133137Y-20499629D01*
X58259629Y-20373137D01*
X58404352Y-20267990D01*
X58563741Y-20186777D01*
X58733872Y-20131498D01*
X58910557Y-20103514D01*
X59089443Y-20103514D01*
X59266128Y-20131498D01*
G37*
G36*
X64346128Y-20131498D02*
G01*
X64516259Y-20186777D01*
X64675648Y-20267990D01*
X64820371Y-20373137D01*
X64946863Y-20499629D01*
X65052010Y-20644352D01*
X65133223Y-20803741D01*
X65188502Y-20973872D01*
X65216486Y-21150557D01*
X65220000Y-21240000D01*
X65220000Y-22760000D01*
X65216486Y-22849443D01*
X65188502Y-23026128D01*
X65133223Y-23196259D01*
X65052010Y-23355648D01*
X64946863Y-23500371D01*
X64820371Y-23626863D01*
X64675648Y-23732010D01*
X64516259Y-23813223D01*
X64346128Y-23868502D01*
X64169443Y-23896486D01*
X63990557Y-23896486D01*
X63813872Y-23868502D01*
X63643741Y-23813223D01*
X63484352Y-23732010D01*
X63339629Y-23626863D01*
X63213137Y-23500371D01*
X63107990Y-23355648D01*
X63026777Y-23196259D01*
X62971498Y-23026128D01*
X62943514Y-22849443D01*
X62940000Y-22760000D01*
X62940000Y-21240000D01*
X62943514Y-21150557D01*
X62971498Y-20973872D01*
X63026777Y-20803741D01*
X63107990Y-20644352D01*
X63213137Y-20499629D01*
X63339629Y-20373137D01*
X63484352Y-20267990D01*
X63643741Y-20186777D01*
X63813872Y-20131498D01*
X63990557Y-20103514D01*
X64169443Y-20103514D01*
X64346128Y-20131498D01*
G37*
G36*
X69426128Y-20131498D02*
G01*
X69596259Y-20186777D01*
X69755648Y-20267990D01*
X69900371Y-20373137D01*
X70026863Y-20499629D01*
X70132010Y-20644352D01*
X70213223Y-20803741D01*
X70268502Y-20973872D01*
X70296486Y-21150557D01*
X70300000Y-21240000D01*
X70300000Y-22760000D01*
X70296486Y-22849443D01*
X70268502Y-23026128D01*
X70213223Y-23196259D01*
X70132010Y-23355648D01*
X70026863Y-23500371D01*
X69900371Y-23626863D01*
X69755648Y-23732010D01*
X69596259Y-23813223D01*
X69426128Y-23868502D01*
X69249443Y-23896486D01*
X69070557Y-23896486D01*
X68893872Y-23868502D01*
X68723741Y-23813223D01*
X68564352Y-23732010D01*
X68419629Y-23626863D01*
X68293137Y-23500371D01*
X68187990Y-23355648D01*
X68106777Y-23196259D01*
X68051498Y-23026128D01*
X68023514Y-22849443D01*
X68020000Y-22760000D01*
X68020000Y-21240000D01*
X68023514Y-21150557D01*
X68051498Y-20973872D01*
X68106777Y-20803741D01*
X68187990Y-20644352D01*
X68293137Y-20499629D01*
X68419629Y-20373137D01*
X68564352Y-20267990D01*
X68723741Y-20186777D01*
X68893872Y-20131498D01*
X69070557Y-20103514D01*
X69249443Y-20103514D01*
X69426128Y-20131498D01*
G37*
G36*
X108138116Y-19554575D02*
G01*
X108320770Y-19590907D01*
X108492827Y-19662175D01*
X108647674Y-19765640D01*
X108779360Y-19897326D01*
X108882825Y-20052173D01*
X108954093Y-20224230D01*
X108990425Y-20406884D01*
X108990425Y-20593116D01*
X108954093Y-20775770D01*
X108882825Y-20947827D01*
X108779360Y-21102674D01*
X108647674Y-21234360D01*
X108492827Y-21337825D01*
X108320770Y-21409093D01*
X108138116Y-21445425D01*
X108045000Y-21450000D01*
X108043768Y-21450000D01*
X107796232Y-21450000D01*
X107795000Y-21450000D01*
X107701884Y-21445425D01*
X107519230Y-21409093D01*
X107347173Y-21337825D01*
X107192326Y-21234360D01*
X107060640Y-21102674D01*
X106957175Y-20947827D01*
X106885907Y-20775770D01*
X106849575Y-20593116D01*
X106849575Y-20406884D01*
X106885907Y-20224230D01*
X106957175Y-20052173D01*
X107060640Y-19897326D01*
X107192326Y-19765640D01*
X107347173Y-19662175D01*
X107519230Y-19590907D01*
X107701884Y-19554575D01*
X107795000Y-19550000D01*
X108045000Y-19550000D01*
X108138116Y-19554575D01*
G37*
G36*
X17831654Y-17832665D02*
G01*
X18046447Y-17890219D01*
X18251891Y-17975316D01*
X18444469Y-18086502D01*
X18620888Y-18221872D01*
X18778128Y-18379112D01*
X18913498Y-18555531D01*
X19024684Y-18748109D01*
X19109781Y-18953553D01*
X19167335Y-19168346D01*
X19196360Y-19388815D01*
X19196360Y-19611185D01*
X19167335Y-19831654D01*
X19109781Y-20046447D01*
X19024684Y-20251891D01*
X18913498Y-20444469D01*
X18778128Y-20620888D01*
X18620888Y-20778128D01*
X18444469Y-20913498D01*
X18251891Y-21024684D01*
X18046447Y-21109781D01*
X17831654Y-21167335D01*
X17611185Y-21196360D01*
X17388815Y-21196360D01*
X17168346Y-21167335D01*
X16953553Y-21109781D01*
X16748109Y-21024684D01*
X16555531Y-20913498D01*
X16379112Y-20778128D01*
X16221872Y-20620888D01*
X16086502Y-20444469D01*
X15975316Y-20251891D01*
X15890219Y-20046447D01*
X15832665Y-19831654D01*
X15803640Y-19611185D01*
X15803640Y-19388815D01*
X15832665Y-19168346D01*
X15890219Y-18953553D01*
X15975316Y-18748109D01*
X16086502Y-18555531D01*
X16221872Y-18379112D01*
X16379112Y-18221872D01*
X16555531Y-18086502D01*
X16748109Y-17975316D01*
X16953553Y-17890219D01*
X17168346Y-17832665D01*
X17388815Y-17803640D01*
X17611185Y-17803640D01*
X17831654Y-17832665D01*
G37*
G36*
X130331654Y-17832665D02*
G01*
X130546447Y-17890219D01*
X130751891Y-17975316D01*
X130944469Y-18086502D01*
X131120888Y-18221872D01*
X131278128Y-18379112D01*
X131413498Y-18555531D01*
X131524684Y-18748109D01*
X131609781Y-18953553D01*
X131667335Y-19168346D01*
X131696360Y-19388815D01*
X131696360Y-19611185D01*
X131667335Y-19831654D01*
X131609781Y-20046447D01*
X131524684Y-20251891D01*
X131413498Y-20444469D01*
X131278128Y-20620888D01*
X131120888Y-20778128D01*
X130944469Y-20913498D01*
X130751891Y-21024684D01*
X130546447Y-21109781D01*
X130331654Y-21167335D01*
X130111185Y-21196360D01*
X129888815Y-21196360D01*
X129668346Y-21167335D01*
X129453553Y-21109781D01*
X129248109Y-21024684D01*
X129055531Y-20913498D01*
X128879112Y-20778128D01*
X128721872Y-20620888D01*
X128586502Y-20444469D01*
X128475316Y-20251891D01*
X128390219Y-20046447D01*
X128332665Y-19831654D01*
X128303640Y-19611185D01*
X128303640Y-19388815D01*
X128332665Y-19168346D01*
X128390219Y-18953553D01*
X128475316Y-18748109D01*
X128586502Y-18555531D01*
X128721872Y-18379112D01*
X128879112Y-18221872D01*
X129055531Y-18086502D01*
X129248109Y-17975316D01*
X129453553Y-17890219D01*
X129668346Y-17832665D01*
X129888815Y-17803640D01*
X130111185Y-17803640D01*
X130331654Y-17832665D01*
G37*
G36*
X108138116Y-17054575D02*
G01*
X108320770Y-17090907D01*
X108492827Y-17162175D01*
X108647674Y-17265640D01*
X108779360Y-17397326D01*
X108882825Y-17552173D01*
X108954093Y-17724230D01*
X108990425Y-17906884D01*
X108990425Y-18093116D01*
X108954093Y-18275770D01*
X108882825Y-18447827D01*
X108779360Y-18602674D01*
X108647674Y-18734360D01*
X108492827Y-18837825D01*
X108320770Y-18909093D01*
X108138116Y-18945425D01*
X108045000Y-18950000D01*
X108043768Y-18950000D01*
X107796232Y-18950000D01*
X107795000Y-18950000D01*
X107701884Y-18945425D01*
X107519230Y-18909093D01*
X107347173Y-18837825D01*
X107192326Y-18734360D01*
X107060640Y-18602674D01*
X106957175Y-18447827D01*
X106885907Y-18275770D01*
X106849575Y-18093116D01*
X106849575Y-17906884D01*
X106885907Y-17724230D01*
X106957175Y-17552173D01*
X107060640Y-17397326D01*
X107192326Y-17265640D01*
X107347173Y-17162175D01*
X107519230Y-17090907D01*
X107701884Y-17054575D01*
X107795000Y-17050000D01*
X108045000Y-17050000D01*
X108138116Y-17054575D01*
G37*
M02*
